M48
; DRILL file KiCad 10.0.5-10.0.5~ubuntu24.04.1 date 2026-08-12T16:04:17
; FORMAT={-:-/ absolute / metric / decimal}
; #@! TF.CreationDate,2026-08-12T16:04:17-03:00
; #@! TF.GenerationSoftware,Kicad,Pcbnew,10.0.5-10.0.5~ubuntu24.04.1
; #@! TF.FileFunction,MixedPlating,1,2
FMAT,2
METRIC
; #@! TA.AperFunction,Plated,PTH,ComponentDrill
T1C0.200
; #@! TA.AperFunction,Plated,PTH,ViaDrill
T2C0.300
; #@! TA.AperFunction,Plated,PTH,ViaDrill
T3C0.400
; #@! TA.AperFunction,Plated,PTH,ComponentDrill
T4C0.600
; #@! TA.AperFunction,Plated,PTH,ComponentDrill
T5C1.000
; #@! TA.AperFunction,NonPlated,NPTH,ComponentDrill
T6C0.650
%
G90
G05
T1
X98.425Y-133.84
X98.425Y-135.24
X99.125Y-133.14
X99.125Y-134.54
X99.125Y-135.94
X99.825Y-133.84
X99.825Y-135.24
X100.525Y-133.14
X100.525Y-134.54
X100.525Y-135.94
X101.225Y-133.84
X101.225Y-135.24
T2
X51.1Y-125.5
X51.5Y-134.675
X51.775Y-132.525
X51.8Y-123.2
X55.7Y-56.175
X55.85Y-110.525
X56.1Y-143.225
X56.65Y-133.65
X56.875Y-101.625
X56.875Y-104.275
X56.95Y-83.75
X56.95Y-87.45
X57.025Y-81.3
X57.125Y-92.675
X57.275Y-97.375
X59.175Y-119.775
X60.6Y-68.1
X60.775Y-98.45
X61.0Y-90.75
X62.35Y-86.55
X62.425Y-115.475
X62.525Y-61.525
X63.15Y-81.35
X63.15Y-108.4
X63.425Y-126.375
X63.675Y-113.475
X64.075Y-102.575
X64.225Y-89.7
X64.3Y-77.4
X64.5Y-134.05
X64.525Y-119.825
X64.55Y-114.375
X64.7Y-86.4
X65.7Y-117.8
X65.75Y-81.6
X65.85Y-54.1
X67.65Y-137.6
X67.825Y-58.0
X68.35Y-136.7
X68.975Y-134.825
X69.002Y-132.247
X69.9Y-132.3
X70.05Y-82.95
X70.325Y-78.025
X70.8Y-82.275
X71.9Y-135.875
X73.875Y-130.6
X74.1Y-109.875
X74.25Y-140.125
X74.4Y-89.825
X74.5Y-61.925
X74.55Y-98.8
X74.95Y-93.9
X75.3Y-118.025
X76.1Y-135.375
X76.675Y-80.725
X77.375Y-123.825
X77.5Y-131.775
X78.45Y-105.775
X78.6Y-142.35
X78.85Y-127.9
X80.4Y-115.2
X82.0Y-103.75
X82.8Y-105.0
X84.025Y-69.575
X84.3Y-112.15
X84.375Y-56.175
X85.15Y-106.45
X85.15Y-124.8
X85.6Y-104.5
X86.0Y-112.15
X86.1Y-128.75
X86.375Y-105.25
X86.7Y-127.55
X86.9Y-138.4
X86.95Y-137.1
X87.05Y-107.3
X87.05Y-111.75
X87.375Y-132.175
X87.65Y-126.8
X87.65Y-135.975
X87.899Y-57.111
X88.55Y-56.469
X88.625Y-88.45
X88.85Y-101.35
X88.9Y-113.0
X89.367Y-55.794
X89.5Y-100.3
X89.75Y-115.35
X89.775Y-62.3
X89.9Y-63.55
X90.2Y-76.65
X90.25Y-99.05
X90.35Y-78.4
X90.375Y-93.4
X90.55Y-110.0
X91.0Y-118.0
X91.3Y-130.05
X91.5Y-131.35
X91.65Y-62.55
X91.843Y-118.316
X92.175Y-127.0
X92.375Y-141.7
X92.5Y-63.8
X92.575Y-125.85
X93.1Y-140.9
X93.725Y-91.575
X93.75Y-110.1
X93.8Y-83.9
X93.85Y-119.0
X94.55Y-78.1
X94.65Y-130.65
X94.7Y-76.65
X95.075Y-63.7
X95.5Y-128.35
X95.8Y-84.9
X96.3Y-111.95
X96.4Y-122.3
X96.45Y-66.75
X96.7Y-113.3
X96.75Y-116.475
X96.95Y-111.15
X97.6Y-107.25
X97.7Y-122.25
X97.8Y-104.1
X97.8Y-114.3
X97.9Y-119.45
X97.95Y-74.75
X98.0Y-78.35
X98.75Y-114.5
X99.45Y-111.15
X99.725Y-95.8
X100.05Y-114.55
X100.075Y-84.975
X100.31Y-69.7
X100.35Y-130.05
X100.566Y-106.014
X100.76Y-111.955
X100.8Y-102.2
X100.8Y-113.95
X100.8Y-119.1
X100.95Y-120.4
X101.6Y-114.55
X102.3Y-74.9
X102.3Y-78.0
X102.5Y-121.45
X102.5Y-114.55
X103.125Y-54.675
X103.35Y-66.55
X103.35Y-120.55
X103.45Y-89.8
X103.5Y-109.05
X104.25Y-60.725
X104.25Y-105.65
X104.3Y-120.55
X104.525Y-141.775
X104.6Y-101.75
X105.15Y-116.475
X105.25Y-120.65
X105.35Y-141.05
X105.4Y-122.675
X105.45Y-126.0
X105.55Y-77.7
X106.3Y-112.55
X106.75Y-75.0
X107.2Y-119.825
X107.525Y-93.025
X108.65Y-123.9
X108.7Y-117.85
X109.0Y-78.1
X109.15Y-107.1
X109.4Y-118.6
X109.6Y-136.95
X109.65Y-138.0
X110.35Y-107.15
X110.45Y-97.1
X110.5Y-94.9
X110.65Y-74.85
X110.75Y-71.55
X111.1Y-110.5
X111.252Y-107.202
X111.4Y-123.6
X111.4Y-135.2
X111.675Y-84.65
X111.7Y-97.05
X111.75Y-93.65
X111.85Y-79.2
X112.075Y-53.75
X112.225Y-60.075
X112.25Y-101.225
X112.95Y-97.05
X113.05Y-92.3
X113.6Y-111.525
X114.05Y-114.9
X114.25Y-97.05
X114.3Y-91.5
X114.75Y-128.85
X115.25Y-115.8
X115.45Y-130.5
X115.725Y-141.65
X116.325Y-140.975
X117.95Y-133.55
X118.0Y-98.9
X118.05Y-114.05
X118.15Y-90.0
X118.8Y-128.6
X118.9Y-116.475
X118.95Y-100.325
X119.575Y-120.65
X119.575Y-122.7
X120.25Y-101.8
X120.35Y-78.55
X120.4Y-88.5
X120.425Y-124.875
X120.75Y-118.9
X120.75Y-121.575
X121.175Y-67.375
X121.35Y-85.6
X121.95Y-118.0
X121.95Y-131.575
X122.55Y-135.55
X122.95Y-82.275
X123.0Y-75.55
X123.025Y-117.225
X123.05Y-122.25
X123.9Y-112.8
X124.05Y-129.5
X124.425Y-124.675
X124.475Y-138.125
X124.675Y-132.725
X124.975Y-115.3
X125.05Y-104.025
X126.225Y-141.6
X126.375Y-135.975
X127.1Y-134.45
X127.1Y-141.075
X127.25Y-82.8
X127.3Y-76.45
X127.662Y-132.875
X127.799Y-135.14
X128.95Y-138.3
X128.975Y-130.75
X130.125Y-135.475
X130.15Y-64.95
X130.175Y-132.625
X130.9Y-63.55
X131.03Y-140.79
X133.1Y-135.55
X133.825Y-70.725
X133.9Y-59.8
X134.935Y-140.255
X135.61Y-89.95
X135.7Y-137.9
X135.75Y-103.7
X135.925Y-120.675
X135.95Y-127.225
X136.35Y-91.2
X136.35Y-140.8
X136.4Y-132.575
X136.4Y-136.4
X136.45Y-104.55
X136.5Y-119.725
X136.725Y-86.85
X137.25Y-92.1
X137.35Y-105.75
X137.45Y-118.975
X137.45Y-134.55
X137.65Y-89.15
X138.1Y-106.75
X140.2Y-122.175
X140.775Y-71.775
X141.15Y-128.625
X141.2Y-131.425
X141.475Y-114.85
X141.5Y-133.95
X142.05Y-94.2
X142.05Y-103.2
X142.275Y-84.025
X142.4Y-109.35
X142.65Y-90.0
X142.675Y-142.625
X142.725Y-60.75
X142.844Y-103.624
X142.9Y-96.1
X143.4Y-104.6
X143.519Y-99.1
X143.55Y-91.65
X144.1Y-105.2
X144.4Y-77.15
X144.5Y-55.425
X146.45Y-103.55
X146.75Y-117.6
T3
X58.0Y-129.0
X58.675Y-116.5
X59.1Y-95.25
X59.117Y-88.15
X59.2Y-63.7
X72.4Y-68.65
X72.85Y-86.5
X75.375Y-128.3
X75.45Y-122.45
X77.15Y-69.65
X77.9Y-63.7
X80.9Y-140.45
X81.25Y-122.3
X87.9Y-120.8
X92.5Y-87.55
X93.6Y-103.75
X97.0Y-65.125
X97.912Y-67.638
X97.925Y-71.925
X98.0Y-69.7
X98.625Y-65.05
X100.31Y-67.775
X100.35Y-71.975
X102.587Y-67.662
X102.75Y-69.7
X102.8Y-71.925
X107.8Y-53.9
X107.95Y-62.15
X114.7Y-86.9
X115.3Y-71.7
X116.8Y-136.4
X119.05Y-108.4
X119.1Y-111.45
X124.85Y-63.25
X125.05Y-67.85
X127.4Y-59.9
X128.7Y-80.95
X133.15Y-82.1
X142.675Y-111.8
X142.9Y-121.9
X148.2Y-88.05
X148.2Y-111.35
T5
X53.875Y-129.595
X53.875Y-132.135
X53.875Y-134.675
X53.875Y-137.215
X53.925Y-117.11
X53.925Y-119.65
X53.925Y-122.19
X53.925Y-124.73
X54.0Y-67.46
X54.0Y-70.0
X54.0Y-77.42
X54.0Y-79.96
X54.0Y-82.5
X54.0Y-85.04
X54.0Y-92.5
X54.0Y-95.04
X54.0Y-97.58
X54.0Y-100.12
X54.0Y-102.66
X54.0Y-105.2
X63.2Y-52.825
X63.2Y-55.365
X63.5Y-92.96
X63.5Y-95.5
X63.5Y-98.04
X64.3Y-67.24
X64.3Y-69.78
X64.3Y-72.32
X64.3Y-74.86
X69.5Y-52.925
X69.5Y-55.465
X78.0Y-53.0
X80.54Y-53.0
X96.725Y-53.0
X96.745Y-60.155
X99.265Y-53.0
X99.285Y-60.155
X115.91Y-53.25
X118.45Y-53.25
X120.99Y-53.25
X123.53Y-53.25
X130.91Y-52.76
X130.91Y-55.3
X133.45Y-52.76
X133.45Y-55.3
X135.99Y-52.76
X135.99Y-55.3
X137.05Y-65.85
X137.05Y-68.39
X137.05Y-70.93
X138.5Y-108.85
X138.5Y-111.39
X138.5Y-113.93
X138.5Y-116.47
X138.53Y-52.76
X138.53Y-55.3
X139.9Y-87.98
X139.9Y-90.52
X139.9Y-93.06
X139.9Y-95.6
X139.9Y-98.14
X139.9Y-100.68
X145.9Y-65.81
X145.9Y-68.35
X145.9Y-70.89
X145.9Y-108.86
X145.9Y-111.4
X145.9Y-113.94
X145.95Y-87.98
X145.95Y-90.52
X145.95Y-93.06
X145.95Y-95.6
X145.95Y-98.14
X145.95Y-100.68
X145.97Y-122.38
X145.97Y-124.92
X145.97Y-127.46
X145.97Y-130.0
X145.97Y-132.54
X145.97Y-135.08
X145.97Y-137.62
T6
X130.21Y-143.53
X135.99Y-143.53
T4
X128.78Y-142.46G85X128.78Y-143.56
G05
X128.78Y-146.81G85X128.78Y-147.61
G05
X137.42Y-142.46G85X137.42Y-143.56
G05
X137.42Y-146.81G85X137.42Y-147.61
G05
M30
