%TF.GenerationSoftware,KiCad,Pcbnew,10.0.4-10.0.4~ubuntu24.04.1*%
%TF.CreationDate,2026-07-31T14:24:29-03:00*%
%TF.ProjectId,PCB_SALUS_v3,5043425f-5341-44c5-9553-5f76332e6b69,rev?*%
%TF.SameCoordinates,Original*%
%TF.FileFunction,Paste,Top*%
%TF.FilePolarity,Positive*%
%FSLAX46Y46*%
G04 Gerber Fmt 4.6, Leading zero omitted, Abs format (unit mm)*
G04 Created by KiCad (PCBNEW 10.0.4-10.0.4~ubuntu24.04.1) date 2026-07-31 14:24:29*
%MOMM*%
%LPD*%
G01*
G04 APERTURE LIST*
G04 Aperture macros list*
%AMRoundRect*
0 Rectangle with rounded corners*
0 $1 Rounding radius*
0 $2 $3 $4 $5 $6 $7 $8 $9 X,Y pos of 4 corners*
0 Add a 4 corners polygon primitive as box body*
4,1,4,$2,$3,$4,$5,$6,$7,$8,$9,$2,$3,0*
0 Add four circle primitives for the rounded corners*
1,1,$1+$1,$2,$3*
1,1,$1+$1,$4,$5*
1,1,$1+$1,$6,$7*
1,1,$1+$1,$8,$9*
0 Add four rect primitives between the rounded corners*
20,1,$1+$1,$2,$3,$4,$5,0*
20,1,$1+$1,$4,$5,$6,$7,0*
20,1,$1+$1,$6,$7,$8,$9,0*
20,1,$1+$1,$8,$9,$2,$3,0*%
G04 Aperture macros list end*
%ADD10R,1.100000X1.400000*%
%ADD11RoundRect,0.250000X-1.275000X-1.125000X1.275000X-1.125000X1.275000X1.125000X-1.275000X1.125000X0*%
%ADD12RoundRect,0.250000X-0.850000X-0.350000X0.850000X-0.350000X0.850000X0.350000X-0.850000X0.350000X0*%
%ADD13RoundRect,0.200000X0.200000X0.275000X-0.200000X0.275000X-0.200000X-0.275000X0.200000X-0.275000X0*%
%ADD14RoundRect,0.200000X-0.275000X0.200000X-0.275000X-0.200000X0.275000X-0.200000X0.275000X0.200000X0*%
%ADD15RoundRect,0.225000X0.250000X-0.225000X0.250000X0.225000X-0.250000X0.225000X-0.250000X-0.225000X0*%
%ADD16RoundRect,0.237500X0.287500X0.237500X-0.287500X0.237500X-0.287500X-0.237500X0.287500X-0.237500X0*%
%ADD17RoundRect,0.200000X-0.200000X-0.275000X0.200000X-0.275000X0.200000X0.275000X-0.200000X0.275000X0*%
%ADD18RoundRect,0.200000X0.275000X-0.200000X0.275000X0.200000X-0.275000X0.200000X-0.275000X-0.200000X0*%
%ADD19RoundRect,0.250000X-0.945000X0.420000X-0.945000X-0.420000X0.945000X-0.420000X0.945000X0.420000X0*%
%ADD20RoundRect,0.225000X-0.250000X0.225000X-0.250000X-0.225000X0.250000X-0.225000X0.250000X0.225000X0*%
%ADD21RoundRect,0.062500X-0.062500X-0.275000X0.062500X-0.275000X0.062500X0.275000X-0.062500X0.275000X0*%
%ADD22RoundRect,0.062500X-0.275000X-0.062500X0.275000X-0.062500X0.275000X0.062500X-0.275000X0.062500X0*%
%ADD23RoundRect,0.175000X-0.325000X0.175000X-0.325000X-0.175000X0.325000X-0.175000X0.325000X0.175000X0*%
%ADD24RoundRect,0.150000X-0.150000X0.200000X-0.150000X-0.200000X0.150000X-0.200000X0.150000X0.200000X0*%
%ADD25RoundRect,0.250000X1.000000X0.650000X-1.000000X0.650000X-1.000000X-0.650000X1.000000X-0.650000X0*%
%ADD26RoundRect,0.150000X-0.150000X0.825000X-0.150000X-0.825000X0.150000X-0.825000X0.150000X0.825000X0*%
%ADD27RoundRect,0.150000X-0.150000X-0.470000X0.150000X-0.470000X0.150000X0.470000X-0.150000X0.470000X0*%
%ADD28RoundRect,0.075000X-0.075000X-0.545000X0.075000X-0.545000X0.075000X0.545000X-0.075000X0.545000X0*%
%ADD29RoundRect,0.250000X-0.475000X0.250000X-0.475000X-0.250000X0.475000X-0.250000X0.475000X0.250000X0*%
%ADD30RoundRect,0.225000X-0.225000X-0.250000X0.225000X-0.250000X0.225000X0.250000X-0.225000X0.250000X0*%
%ADD31R,0.900000X0.900000*%
%ADD32R,1.500000X0.900000*%
%ADD33R,0.900000X1.500000*%
%ADD34RoundRect,0.250000X0.475000X-0.250000X0.475000X0.250000X-0.475000X0.250000X-0.475000X-0.250000X0*%
%ADD35RoundRect,0.250000X-0.250000X-0.475000X0.250000X-0.475000X0.250000X0.475000X-0.250000X0.475000X0*%
%ADD36RoundRect,0.225000X0.225000X0.250000X-0.225000X0.250000X-0.225000X-0.250000X0.225000X-0.250000X0*%
%ADD37RoundRect,0.150000X-0.825000X-0.150000X0.825000X-0.150000X0.825000X0.150000X-0.825000X0.150000X0*%
%ADD38R,1.400000X1.100000*%
G04 APERTURE END LIST*
D10*
%TO.C,SW2*%
X128650000Y-122250000D03*
X125650000Y-122250000D03*
X128650000Y-128750000D03*
X125650000Y-128750000D03*
%TD*%
D11*
%TO.C,U1*%
X98635000Y-68175000D03*
X98635000Y-71225000D03*
X101985000Y-68175000D03*
X101985000Y-71225000D03*
D12*
X94010000Y-67420000D03*
X94010000Y-69700000D03*
X94010000Y-71980000D03*
%TD*%
D13*
%TO.C,R29*%
X111250000Y-130850000D03*
X109600000Y-130850000D03*
%TD*%
D14*
%TO.C,R33*%
X82440000Y-108700000D03*
X82440000Y-110350000D03*
%TD*%
D15*
%TO.C,C13*%
X99200000Y-105225000D03*
X99200000Y-103675000D03*
%TD*%
D13*
%TO.C,R11*%
X85925000Y-135000000D03*
X84275000Y-135000000D03*
%TD*%
D16*
%TO.C,FB1*%
X95925000Y-105350000D03*
X94175000Y-105350000D03*
%TD*%
D13*
%TO.C,R20*%
X85925000Y-133400000D03*
X84275000Y-133400000D03*
%TD*%
D17*
%TO.C,R34*%
X101000000Y-100550000D03*
X102650000Y-100550000D03*
%TD*%
D18*
%TO.C,R16*%
X101650000Y-89625000D03*
X101650000Y-87975000D03*
%TD*%
D15*
%TO.C,C12*%
X100950000Y-112975000D03*
X100950000Y-111425000D03*
%TD*%
D13*
%TO.C,R30*%
X111250000Y-129250000D03*
X109600000Y-129250000D03*
%TD*%
D14*
%TO.C,R15*%
X106900000Y-106575000D03*
X106900000Y-108225000D03*
%TD*%
D19*
%TO.C,C30*%
X105500000Y-69170000D03*
X105500000Y-72250000D03*
%TD*%
D20*
%TO.C,C23*%
X93675000Y-73925000D03*
X93675000Y-75475000D03*
%TD*%
D21*
%TO.C,U4*%
X98750000Y-107287500D03*
X99250000Y-107287500D03*
X99750000Y-107287500D03*
X100250000Y-107287500D03*
X100750000Y-107287500D03*
X101250000Y-107287500D03*
X101750000Y-107287500D03*
D22*
X102262500Y-108550000D03*
D21*
X101750000Y-109812500D03*
X101250000Y-109812500D03*
X100750000Y-109812500D03*
X100250000Y-109812500D03*
X99750000Y-109812500D03*
X99250000Y-109812500D03*
X98750000Y-109812500D03*
D22*
X98237500Y-108550000D03*
%TD*%
D23*
%TO.C,D5*%
X139500000Y-137300000D03*
D24*
X137800000Y-137300000D03*
X137800000Y-139300000D03*
X139700000Y-139300000D03*
%TD*%
D13*
%TO.C,R18*%
X73575000Y-91550000D03*
X71925000Y-91550000D03*
%TD*%
D25*
%TO.C,D7*%
X81400000Y-72450000D03*
X77400000Y-72450000D03*
%TD*%
D17*
%TO.C,R24*%
X123075000Y-132350000D03*
X124725000Y-132350000D03*
%TD*%
%TO.C,R28*%
X111325000Y-127410000D03*
X112975000Y-127410000D03*
%TD*%
D26*
%TO.C,U5*%
X115507500Y-98825000D03*
X114237500Y-98825000D03*
X112967500Y-98825000D03*
X111697500Y-98825000D03*
X110427500Y-98825000D03*
X109157500Y-98825000D03*
X107887500Y-98825000D03*
X106617500Y-98825000D03*
X106617500Y-103775000D03*
X107887500Y-103775000D03*
X109157500Y-103775000D03*
X110427500Y-103775000D03*
X111697500Y-103775000D03*
X112967500Y-103775000D03*
X114237500Y-103775000D03*
X115507500Y-103775000D03*
%TD*%
D18*
%TO.C,R22*%
X113550000Y-138675000D03*
X113550000Y-137025000D03*
%TD*%
D14*
%TO.C,R13*%
X101750000Y-103625000D03*
X101750000Y-105275000D03*
%TD*%
D15*
%TO.C,C15*%
X56900000Y-79425000D03*
X56900000Y-77875000D03*
%TD*%
D20*
%TO.C,C6*%
X109450000Y-140675000D03*
X109450000Y-142225000D03*
%TD*%
D14*
%TO.C,R35*%
X96750000Y-118975000D03*
X96750000Y-120625000D03*
%TD*%
D27*
%TO.C,J16*%
X129900000Y-142410000D03*
X130700000Y-142410000D03*
D28*
X131850000Y-142410000D03*
X132850000Y-142410000D03*
X133350000Y-142410000D03*
X134350000Y-142410000D03*
D27*
X135500000Y-142410000D03*
X136300000Y-142410000D03*
X136300000Y-142410000D03*
X135500000Y-142410000D03*
D28*
X134850000Y-142410000D03*
X133850000Y-142410000D03*
X132350000Y-142410000D03*
X131350000Y-142410000D03*
D27*
X130700000Y-142410000D03*
X129900000Y-142410000D03*
%TD*%
D18*
%TO.C,R26*%
X133860000Y-139265000D03*
X133860000Y-137615000D03*
%TD*%
D17*
%TO.C,R14*%
X95075000Y-109800000D03*
X96725000Y-109800000D03*
%TD*%
D18*
%TO.C,R23*%
X86550000Y-124325000D03*
X86550000Y-122675000D03*
%TD*%
D17*
%TO.C,R3*%
X82625000Y-139500000D03*
X84275000Y-139500000D03*
%TD*%
D13*
%TO.C,R1*%
X134850000Y-58100000D03*
X133200000Y-58100000D03*
%TD*%
D29*
%TO.C,C16*%
X58900000Y-77600000D03*
X58900000Y-79500000D03*
%TD*%
D30*
%TO.C,C19*%
X117675000Y-104750000D03*
X119225000Y-104750000D03*
%TD*%
D13*
%TO.C,R21*%
X115425000Y-132100000D03*
X113775000Y-132100000D03*
%TD*%
D31*
%TO.C,U8*%
X101225000Y-135940000D03*
X101225000Y-134540000D03*
X101225000Y-133140000D03*
X99825000Y-135940000D03*
X99825000Y-134540000D03*
X99825000Y-133140000D03*
X98425000Y-135940000D03*
X98425000Y-134540000D03*
X98425000Y-133140000D03*
D32*
X107075000Y-142260000D03*
X107075000Y-140990000D03*
X107075000Y-139720000D03*
X107075000Y-138450000D03*
X107075000Y-137180000D03*
X107075000Y-135910000D03*
X107075000Y-134640000D03*
X107075000Y-133370000D03*
X107075000Y-132100000D03*
X107075000Y-130830000D03*
X107075000Y-129560000D03*
X107075000Y-128290000D03*
X107075000Y-127020000D03*
X107075000Y-125750000D03*
D33*
X105310000Y-124500000D03*
X104040000Y-124500000D03*
X102770000Y-124500000D03*
X101500000Y-124500000D03*
X100230000Y-124500000D03*
X98960000Y-124500000D03*
X97690000Y-124500000D03*
X96420000Y-124500000D03*
X95150000Y-124500000D03*
X93880000Y-124500000D03*
X92610000Y-124500000D03*
X91340000Y-124500000D03*
D32*
X89575000Y-125750000D03*
X89575000Y-127020000D03*
X89575000Y-128290000D03*
X89575000Y-129560000D03*
X89575000Y-130830000D03*
X89575000Y-132100000D03*
X89575000Y-133370000D03*
X89575000Y-134640000D03*
X89575000Y-135910000D03*
X89575000Y-137180000D03*
X89575000Y-138450000D03*
X89575000Y-139720000D03*
X89575000Y-140990000D03*
X89575000Y-142260000D03*
%TD*%
D14*
%TO.C,R19*%
X57050000Y-68325000D03*
X57050000Y-69975000D03*
%TD*%
%TO.C,R12*%
X73650000Y-134150000D03*
X73650000Y-135800000D03*
%TD*%
D29*
%TO.C,C28*%
X91600000Y-72000000D03*
X91600000Y-73900000D03*
%TD*%
D20*
%TO.C,C17*%
X86400000Y-141275000D03*
X86400000Y-142825000D03*
%TD*%
D15*
%TO.C,C18*%
X85750000Y-138625000D03*
X85750000Y-137075000D03*
%TD*%
D25*
%TO.C,D9*%
X81450000Y-76650000D03*
X77450000Y-76650000D03*
%TD*%
D34*
%TO.C,C8*%
X111450000Y-138700000D03*
X111450000Y-136800000D03*
%TD*%
D35*
%TO.C,C14*%
X94050000Y-107600000D03*
X95950000Y-107600000D03*
%TD*%
D14*
%TO.C,R32*%
X84950000Y-108700000D03*
X84950000Y-110350000D03*
%TD*%
D17*
%TO.C,R2*%
X82575000Y-141250000D03*
X84225000Y-141250000D03*
%TD*%
D36*
%TO.C,C20*%
X73375000Y-93900000D03*
X71825000Y-93900000D03*
%TD*%
D17*
%TO.C,R27*%
X111335000Y-125820000D03*
X112985000Y-125820000D03*
%TD*%
D37*
%TO.C,U6*%
X122325000Y-88555000D03*
X122325000Y-89825000D03*
X122325000Y-91095000D03*
X122325000Y-92365000D03*
X122325000Y-93635000D03*
X122325000Y-94905000D03*
X122325000Y-96175000D03*
X122325000Y-97445000D03*
X127275000Y-97445000D03*
X127275000Y-96175000D03*
X127275000Y-94905000D03*
X127275000Y-93635000D03*
X127275000Y-92365000D03*
X127275000Y-91095000D03*
X127275000Y-89825000D03*
X127275000Y-88555000D03*
%TD*%
D29*
%TO.C,C5*%
X111450000Y-140300000D03*
X111450000Y-142200000D03*
%TD*%
D14*
%TO.C,R36*%
X70950000Y-132900000D03*
X70950000Y-134550000D03*
%TD*%
D18*
%TO.C,R17*%
X95100000Y-120625000D03*
X95100000Y-118975000D03*
%TD*%
D20*
%TO.C,C22*%
X117250000Y-69025000D03*
X117250000Y-70575000D03*
%TD*%
D14*
%TO.C,R31*%
X87460000Y-108700000D03*
X87460000Y-110350000D03*
%TD*%
D37*
%TO.C,U7*%
X76975000Y-91145000D03*
X76975000Y-92415000D03*
X76975000Y-93685000D03*
X76975000Y-94955000D03*
X81925000Y-94955000D03*
X81925000Y-93685000D03*
X81925000Y-92415000D03*
X81925000Y-91145000D03*
%TD*%
D38*
%TO.C,SW1*%
X67350000Y-143875000D03*
X67350000Y-140875000D03*
X60850000Y-143875000D03*
X60850000Y-140875000D03*
%TD*%
D20*
%TO.C,C21*%
X85300000Y-92025000D03*
X85300000Y-93575000D03*
%TD*%
D18*
%TO.C,R25*%
X131340000Y-139385000D03*
X131340000Y-137735000D03*
%TD*%
M02*
