%TF.GenerationSoftware,KiCad,Pcbnew,10.0.4-10.0.4~ubuntu24.04.1*%
%TF.CreationDate,2026-07-30T16:56:11-03:00*%
%TF.ProjectId,PCB_SALUS_v3,5043425f-5341-44c5-9553-5f76332e6b69,rev?*%
%TF.SameCoordinates,Original*%
%TF.FileFunction,Legend,Top*%
%TF.FilePolarity,Positive*%
%FSLAX46Y46*%
G04 Gerber Fmt 4.6, Leading zero omitted, Abs format (unit mm)*
G04 Created by KiCad (PCBNEW 10.0.4-10.0.4~ubuntu24.04.1) date 2026-07-30 16:56:11*
%MOMM*%
%LPD*%
G01*
G04 APERTURE LIST*
G04 Aperture macros list*
%AMRoundRect*
0 Rectangle with rounded corners*
0 $1 Rounding radius*
0 $2 $3 $4 $5 $6 $7 $8 $9 X,Y pos of 4 corners*
0 Add a 4 corners polygon primitive as box body*
4,1,4,$2,$3,$4,$5,$6,$7,$8,$9,$2,$3,0*
0 Add four circle primitives for the rounded corners*
1,1,$1+$1,$2,$3*
1,1,$1+$1,$4,$5*
1,1,$1+$1,$6,$7*
1,1,$1+$1,$8,$9*
0 Add four rect primitives between the rounded corners*
20,1,$1+$1,$2,$3,$4,$5,0*
20,1,$1+$1,$4,$5,$6,$7,0*
20,1,$1+$1,$6,$7,$8,$9,0*
20,1,$1+$1,$8,$9,$2,$3,0*%
G04 Aperture macros list end*
%ADD10C,0.150000*%
%ADD11C,0.254000*%
%ADD12C,0.152500*%
%ADD13C,0.152000*%
%ADD14C,0.120000*%
%ADD15R,2.000000X1.050000*%
%ADD16RoundRect,0.200000X-0.200000X-0.275000X0.200000X-0.275000X0.200000X0.275000X-0.200000X0.275000X0*%
%ADD17R,1.700000X1.700000*%
%ADD18C,1.700000*%
%ADD19C,3.200000*%
%ADD20RoundRect,0.062500X-0.350000X-0.062500X0.350000X-0.062500X0.350000X0.062500X-0.350000X0.062500X0*%
%ADD21RoundRect,0.062500X-0.062500X-0.350000X0.062500X-0.350000X0.062500X0.350000X-0.062500X0.350000X0*%
%ADD22R,2.600000X2.600000*%
%ADD23RoundRect,0.200000X0.200000X0.275000X-0.200000X0.275000X-0.200000X-0.275000X0.200000X-0.275000X0*%
%ADD24RoundRect,0.250000X-0.475000X0.250000X-0.475000X-0.250000X0.475000X-0.250000X0.475000X0.250000X0*%
%ADD25RoundRect,0.200000X-0.275000X0.200000X-0.275000X-0.200000X0.275000X-0.200000X0.275000X0.200000X0*%
%ADD26RoundRect,0.225000X0.250000X-0.225000X0.250000X0.225000X-0.250000X0.225000X-0.250000X-0.225000X0*%
%ADD27RoundRect,0.250000X-0.700000X-1.000000X0.700000X-1.000000X0.700000X1.000000X-0.700000X1.000000X0*%
%ADD28RoundRect,0.237500X0.287500X0.237500X-0.287500X0.237500X-0.287500X-0.237500X0.287500X-0.237500X0*%
%ADD29RoundRect,0.250000X1.000000X0.650000X-1.000000X0.650000X-1.000000X-0.650000X1.000000X-0.650000X0*%
%ADD30RoundRect,0.200000X0.275000X-0.200000X0.275000X0.200000X-0.275000X0.200000X-0.275000X-0.200000X0*%
%ADD31RoundRect,0.225000X-0.250000X0.225000X-0.250000X-0.225000X0.250000X-0.225000X0.250000X0.225000X0*%
%ADD32RoundRect,0.062500X-0.062500X-0.275000X0.062500X-0.275000X0.062500X0.275000X-0.062500X0.275000X0*%
%ADD33RoundRect,0.062500X-0.275000X-0.062500X0.275000X-0.062500X0.275000X0.062500X-0.275000X0.062500X0*%
%ADD34RoundRect,0.175000X-0.325000X0.175000X-0.325000X-0.175000X0.325000X-0.175000X0.325000X0.175000X0*%
%ADD35RoundRect,0.150000X-0.150000X0.200000X-0.150000X-0.200000X0.150000X-0.200000X0.150000X0.200000X0*%
%ADD36RoundRect,0.250000X0.475000X-0.250000X0.475000X0.250000X-0.475000X0.250000X-0.475000X-0.250000X0*%
%ADD37RoundRect,0.150000X-0.587500X-0.150000X0.587500X-0.150000X0.587500X0.150000X-0.587500X0.150000X0*%
%ADD38RoundRect,0.150000X-0.150000X0.825000X-0.150000X-0.825000X0.150000X-0.825000X0.150000X0.825000X0*%
%ADD39RoundRect,0.225000X0.225000X0.250000X-0.225000X0.250000X-0.225000X-0.250000X0.225000X-0.250000X0*%
%ADD40C,0.650000*%
%ADD41RoundRect,0.150000X-0.150000X-0.470000X0.150000X-0.470000X0.150000X0.470000X-0.150000X0.470000X0*%
%ADD42RoundRect,0.075000X-0.075000X-0.545000X0.075000X-0.545000X0.075000X0.545000X-0.075000X0.545000X0*%
%ADD43O,1.000000X2.100000*%
%ADD44O,1.000000X1.800000*%
%ADD45RoundRect,0.225000X-0.225000X-0.250000X0.225000X-0.250000X0.225000X0.250000X-0.225000X0.250000X0*%
%ADD46RoundRect,0.150000X-0.150000X0.512500X-0.150000X-0.512500X0.150000X-0.512500X0.150000X0.512500X0*%
%ADD47R,1.500000X0.900000*%
%ADD48R,0.900000X1.500000*%
%ADD49C,0.600000*%
%ADD50R,3.900000X3.900000*%
%ADD51RoundRect,0.250000X-0.262500X-0.450000X0.262500X-0.450000X0.262500X0.450000X-0.262500X0.450000X0*%
%ADD52RoundRect,0.250000X-0.250000X-0.475000X0.250000X-0.475000X0.250000X0.475000X-0.250000X0.475000X0*%
%ADD53RoundRect,0.250000X0.250000X0.475000X-0.250000X0.475000X-0.250000X-0.475000X0.250000X-0.475000X0*%
%ADD54RoundRect,0.175000X-0.175000X-0.325000X0.175000X-0.325000X0.175000X0.325000X-0.175000X0.325000X0*%
%ADD55RoundRect,0.150000X-0.200000X-0.150000X0.200000X-0.150000X0.200000X0.150000X-0.200000X0.150000X0*%
%ADD56RoundRect,0.150000X-0.825000X-0.150000X0.825000X-0.150000X0.825000X0.150000X-0.825000X0.150000X0*%
%ADD57RoundRect,0.150000X-0.470000X0.150000X-0.470000X-0.150000X0.470000X-0.150000X0.470000X0.150000X0*%
%ADD58RoundRect,0.075000X-0.545000X0.075000X-0.545000X-0.075000X0.545000X-0.075000X0.545000X0.075000X0*%
%ADD59O,2.100000X1.000000*%
%ADD60O,1.800000X1.000000*%
G04 APERTURE END LIST*
D10*
X129884200Y-128133332D02*
X129931819Y-127990475D01*
X129931819Y-127990475D02*
X129931819Y-127752380D01*
X129931819Y-127752380D02*
X129884200Y-127657142D01*
X129884200Y-127657142D02*
X129836580Y-127609523D01*
X129836580Y-127609523D02*
X129741342Y-127561904D01*
X129741342Y-127561904D02*
X129646104Y-127561904D01*
X129646104Y-127561904D02*
X129550866Y-127609523D01*
X129550866Y-127609523D02*
X129503247Y-127657142D01*
X129503247Y-127657142D02*
X129455628Y-127752380D01*
X129455628Y-127752380D02*
X129408009Y-127942856D01*
X129408009Y-127942856D02*
X129360390Y-128038094D01*
X129360390Y-128038094D02*
X129312771Y-128085713D01*
X129312771Y-128085713D02*
X129217533Y-128133332D01*
X129217533Y-128133332D02*
X129122295Y-128133332D01*
X129122295Y-128133332D02*
X129027057Y-128085713D01*
X129027057Y-128085713D02*
X128979438Y-128038094D01*
X128979438Y-128038094D02*
X128931819Y-127942856D01*
X128931819Y-127942856D02*
X128931819Y-127704761D01*
X128931819Y-127704761D02*
X128979438Y-127561904D01*
X128931819Y-127228570D02*
X129931819Y-126990475D01*
X129931819Y-126990475D02*
X129217533Y-126799999D01*
X129217533Y-126799999D02*
X129931819Y-126609523D01*
X129931819Y-126609523D02*
X128931819Y-126371428D01*
X129027057Y-126038094D02*
X128979438Y-125990475D01*
X128979438Y-125990475D02*
X128931819Y-125895237D01*
X128931819Y-125895237D02*
X128931819Y-125657142D01*
X128931819Y-125657142D02*
X128979438Y-125561904D01*
X128979438Y-125561904D02*
X129027057Y-125514285D01*
X129027057Y-125514285D02*
X129122295Y-125466666D01*
X129122295Y-125466666D02*
X129217533Y-125466666D01*
X129217533Y-125466666D02*
X129360390Y-125514285D01*
X129360390Y-125514285D02*
X129931819Y-126085713D01*
X129931819Y-126085713D02*
X129931819Y-125466666D01*
X62483333Y-113374819D02*
X62150000Y-112898628D01*
X61911905Y-113374819D02*
X61911905Y-112374819D01*
X61911905Y-112374819D02*
X62292857Y-112374819D01*
X62292857Y-112374819D02*
X62388095Y-112422438D01*
X62388095Y-112422438D02*
X62435714Y-112470057D01*
X62435714Y-112470057D02*
X62483333Y-112565295D01*
X62483333Y-112565295D02*
X62483333Y-112708152D01*
X62483333Y-112708152D02*
X62435714Y-112803390D01*
X62435714Y-112803390D02*
X62388095Y-112851009D01*
X62388095Y-112851009D02*
X62292857Y-112898628D01*
X62292857Y-112898628D02*
X61911905Y-112898628D01*
X63340476Y-112708152D02*
X63340476Y-113374819D01*
X63102381Y-112327200D02*
X62864286Y-113041485D01*
X62864286Y-113041485D02*
X63483333Y-113041485D01*
X145616666Y-85054819D02*
X145616666Y-85769104D01*
X145616666Y-85769104D02*
X145569047Y-85911961D01*
X145569047Y-85911961D02*
X145473809Y-86007200D01*
X145473809Y-86007200D02*
X145330952Y-86054819D01*
X145330952Y-86054819D02*
X145235714Y-86054819D01*
X146140476Y-86054819D02*
X146330952Y-86054819D01*
X146330952Y-86054819D02*
X146426190Y-86007200D01*
X146426190Y-86007200D02*
X146473809Y-85959580D01*
X146473809Y-85959580D02*
X146569047Y-85816723D01*
X146569047Y-85816723D02*
X146616666Y-85626247D01*
X146616666Y-85626247D02*
X146616666Y-85245295D01*
X146616666Y-85245295D02*
X146569047Y-85150057D01*
X146569047Y-85150057D02*
X146521428Y-85102438D01*
X146521428Y-85102438D02*
X146426190Y-85054819D01*
X146426190Y-85054819D02*
X146235714Y-85054819D01*
X146235714Y-85054819D02*
X146140476Y-85102438D01*
X146140476Y-85102438D02*
X146092857Y-85150057D01*
X146092857Y-85150057D02*
X146045238Y-85245295D01*
X146045238Y-85245295D02*
X146045238Y-85483390D01*
X146045238Y-85483390D02*
X146092857Y-85578628D01*
X146092857Y-85578628D02*
X146140476Y-85626247D01*
X146140476Y-85626247D02*
X146235714Y-85673866D01*
X146235714Y-85673866D02*
X146426190Y-85673866D01*
X146426190Y-85673866D02*
X146521428Y-85626247D01*
X146521428Y-85626247D02*
X146569047Y-85578628D01*
X146569047Y-85578628D02*
X146616666Y-85483390D01*
X52666666Y-50304819D02*
X52333333Y-49828628D01*
X52095238Y-50304819D02*
X52095238Y-49304819D01*
X52095238Y-49304819D02*
X52476190Y-49304819D01*
X52476190Y-49304819D02*
X52571428Y-49352438D01*
X52571428Y-49352438D02*
X52619047Y-49400057D01*
X52619047Y-49400057D02*
X52666666Y-49495295D01*
X52666666Y-49495295D02*
X52666666Y-49638152D01*
X52666666Y-49638152D02*
X52619047Y-49733390D01*
X52619047Y-49733390D02*
X52571428Y-49781009D01*
X52571428Y-49781009D02*
X52476190Y-49828628D01*
X52476190Y-49828628D02*
X52095238Y-49828628D01*
X53095238Y-49781009D02*
X53428571Y-49781009D01*
X53571428Y-50304819D02*
X53095238Y-50304819D01*
X53095238Y-50304819D02*
X53095238Y-49304819D01*
X53095238Y-49304819D02*
X53571428Y-49304819D01*
X54333333Y-49781009D02*
X54000000Y-49781009D01*
X54000000Y-50304819D02*
X54000000Y-49304819D01*
X54000000Y-49304819D02*
X54476190Y-49304819D01*
X55000000Y-49304819D02*
X55000000Y-49542914D01*
X54761905Y-49447676D02*
X55000000Y-49542914D01*
X55000000Y-49542914D02*
X55238095Y-49447676D01*
X54857143Y-49733390D02*
X55000000Y-49542914D01*
X55000000Y-49542914D02*
X55142857Y-49733390D01*
X55761905Y-49304819D02*
X55761905Y-49542914D01*
X55523810Y-49447676D02*
X55761905Y-49542914D01*
X55761905Y-49542914D02*
X56000000Y-49447676D01*
X55619048Y-49733390D02*
X55761905Y-49542914D01*
X55761905Y-49542914D02*
X55904762Y-49733390D01*
X144666666Y-142304819D02*
X144333333Y-141828628D01*
X144095238Y-142304819D02*
X144095238Y-141304819D01*
X144095238Y-141304819D02*
X144476190Y-141304819D01*
X144476190Y-141304819D02*
X144571428Y-141352438D01*
X144571428Y-141352438D02*
X144619047Y-141400057D01*
X144619047Y-141400057D02*
X144666666Y-141495295D01*
X144666666Y-141495295D02*
X144666666Y-141638152D01*
X144666666Y-141638152D02*
X144619047Y-141733390D01*
X144619047Y-141733390D02*
X144571428Y-141781009D01*
X144571428Y-141781009D02*
X144476190Y-141828628D01*
X144476190Y-141828628D02*
X144095238Y-141828628D01*
X145095238Y-141781009D02*
X145428571Y-141781009D01*
X145571428Y-142304819D02*
X145095238Y-142304819D01*
X145095238Y-142304819D02*
X145095238Y-141304819D01*
X145095238Y-141304819D02*
X145571428Y-141304819D01*
X146333333Y-141781009D02*
X146000000Y-141781009D01*
X146000000Y-142304819D02*
X146000000Y-141304819D01*
X146000000Y-141304819D02*
X146476190Y-141304819D01*
X147000000Y-141304819D02*
X147000000Y-141542914D01*
X146761905Y-141447676D02*
X147000000Y-141542914D01*
X147000000Y-141542914D02*
X147238095Y-141447676D01*
X146857143Y-141733390D02*
X147000000Y-141542914D01*
X147000000Y-141542914D02*
X147142857Y-141733390D01*
X147761905Y-141304819D02*
X147761905Y-141542914D01*
X147523810Y-141447676D02*
X147761905Y-141542914D01*
X147761905Y-141542914D02*
X148000000Y-141447676D01*
X147619048Y-141733390D02*
X147761905Y-141542914D01*
X147761905Y-141542914D02*
X147904762Y-141733390D01*
X70588095Y-115354819D02*
X70588095Y-116164342D01*
X70588095Y-116164342D02*
X70635714Y-116259580D01*
X70635714Y-116259580D02*
X70683333Y-116307200D01*
X70683333Y-116307200D02*
X70778571Y-116354819D01*
X70778571Y-116354819D02*
X70969047Y-116354819D01*
X70969047Y-116354819D02*
X71064285Y-116307200D01*
X71064285Y-116307200D02*
X71111904Y-116259580D01*
X71111904Y-116259580D02*
X71159523Y-116164342D01*
X71159523Y-116164342D02*
X71159523Y-115354819D01*
X71540476Y-115354819D02*
X72159523Y-115354819D01*
X72159523Y-115354819D02*
X71826190Y-115735771D01*
X71826190Y-115735771D02*
X71969047Y-115735771D01*
X71969047Y-115735771D02*
X72064285Y-115783390D01*
X72064285Y-115783390D02*
X72111904Y-115831009D01*
X72111904Y-115831009D02*
X72159523Y-115926247D01*
X72159523Y-115926247D02*
X72159523Y-116164342D01*
X72159523Y-116164342D02*
X72111904Y-116259580D01*
X72111904Y-116259580D02*
X72064285Y-116307200D01*
X72064285Y-116307200D02*
X71969047Y-116354819D01*
X71969047Y-116354819D02*
X71683333Y-116354819D01*
X71683333Y-116354819D02*
X71588095Y-116307200D01*
X71588095Y-116307200D02*
X71540476Y-116259580D01*
X109782142Y-132734819D02*
X109448809Y-132258628D01*
X109210714Y-132734819D02*
X109210714Y-131734819D01*
X109210714Y-131734819D02*
X109591666Y-131734819D01*
X109591666Y-131734819D02*
X109686904Y-131782438D01*
X109686904Y-131782438D02*
X109734523Y-131830057D01*
X109734523Y-131830057D02*
X109782142Y-131925295D01*
X109782142Y-131925295D02*
X109782142Y-132068152D01*
X109782142Y-132068152D02*
X109734523Y-132163390D01*
X109734523Y-132163390D02*
X109686904Y-132211009D01*
X109686904Y-132211009D02*
X109591666Y-132258628D01*
X109591666Y-132258628D02*
X109210714Y-132258628D01*
X110163095Y-131830057D02*
X110210714Y-131782438D01*
X110210714Y-131782438D02*
X110305952Y-131734819D01*
X110305952Y-131734819D02*
X110544047Y-131734819D01*
X110544047Y-131734819D02*
X110639285Y-131782438D01*
X110639285Y-131782438D02*
X110686904Y-131830057D01*
X110686904Y-131830057D02*
X110734523Y-131925295D01*
X110734523Y-131925295D02*
X110734523Y-132020533D01*
X110734523Y-132020533D02*
X110686904Y-132163390D01*
X110686904Y-132163390D02*
X110115476Y-132734819D01*
X110115476Y-132734819D02*
X110734523Y-132734819D01*
X111210714Y-132734819D02*
X111401190Y-132734819D01*
X111401190Y-132734819D02*
X111496428Y-132687200D01*
X111496428Y-132687200D02*
X111544047Y-132639580D01*
X111544047Y-132639580D02*
X111639285Y-132496723D01*
X111639285Y-132496723D02*
X111686904Y-132306247D01*
X111686904Y-132306247D02*
X111686904Y-131925295D01*
X111686904Y-131925295D02*
X111639285Y-131830057D01*
X111639285Y-131830057D02*
X111591666Y-131782438D01*
X111591666Y-131782438D02*
X111496428Y-131734819D01*
X111496428Y-131734819D02*
X111305952Y-131734819D01*
X111305952Y-131734819D02*
X111210714Y-131782438D01*
X111210714Y-131782438D02*
X111163095Y-131830057D01*
X111163095Y-131830057D02*
X111115476Y-131925295D01*
X111115476Y-131925295D02*
X111115476Y-132163390D01*
X111115476Y-132163390D02*
X111163095Y-132258628D01*
X111163095Y-132258628D02*
X111210714Y-132306247D01*
X111210714Y-132306247D02*
X111305952Y-132353866D01*
X111305952Y-132353866D02*
X111496428Y-132353866D01*
X111496428Y-132353866D02*
X111591666Y-132306247D01*
X111591666Y-132306247D02*
X111639285Y-132258628D01*
X111639285Y-132258628D02*
X111686904Y-132163390D01*
X53666666Y-89574819D02*
X53666666Y-90289104D01*
X53666666Y-90289104D02*
X53619047Y-90431961D01*
X53619047Y-90431961D02*
X53523809Y-90527200D01*
X53523809Y-90527200D02*
X53380952Y-90574819D01*
X53380952Y-90574819D02*
X53285714Y-90574819D01*
X54666666Y-90574819D02*
X54095238Y-90574819D01*
X54380952Y-90574819D02*
X54380952Y-89574819D01*
X54380952Y-89574819D02*
X54285714Y-89717676D01*
X54285714Y-89717676D02*
X54190476Y-89812914D01*
X54190476Y-89812914D02*
X54095238Y-89860533D01*
X144666666Y-50304819D02*
X144333333Y-49828628D01*
X144095238Y-50304819D02*
X144095238Y-49304819D01*
X144095238Y-49304819D02*
X144476190Y-49304819D01*
X144476190Y-49304819D02*
X144571428Y-49352438D01*
X144571428Y-49352438D02*
X144619047Y-49400057D01*
X144619047Y-49400057D02*
X144666666Y-49495295D01*
X144666666Y-49495295D02*
X144666666Y-49638152D01*
X144666666Y-49638152D02*
X144619047Y-49733390D01*
X144619047Y-49733390D02*
X144571428Y-49781009D01*
X144571428Y-49781009D02*
X144476190Y-49828628D01*
X144476190Y-49828628D02*
X144095238Y-49828628D01*
X145095238Y-49781009D02*
X145428571Y-49781009D01*
X145571428Y-50304819D02*
X145095238Y-50304819D01*
X145095238Y-50304819D02*
X145095238Y-49304819D01*
X145095238Y-49304819D02*
X145571428Y-49304819D01*
X146333333Y-49781009D02*
X146000000Y-49781009D01*
X146000000Y-50304819D02*
X146000000Y-49304819D01*
X146000000Y-49304819D02*
X146476190Y-49304819D01*
X147000000Y-49304819D02*
X147000000Y-49542914D01*
X146761905Y-49447676D02*
X147000000Y-49542914D01*
X147000000Y-49542914D02*
X147238095Y-49447676D01*
X146857143Y-49733390D02*
X147000000Y-49542914D01*
X147000000Y-49542914D02*
X147142857Y-49733390D01*
X147761905Y-49304819D02*
X147761905Y-49542914D01*
X147523810Y-49447676D02*
X147761905Y-49542914D01*
X147761905Y-49542914D02*
X148000000Y-49447676D01*
X147619048Y-49733390D02*
X147761905Y-49542914D01*
X147761905Y-49542914D02*
X147904762Y-49733390D01*
X105739580Y-71892857D02*
X105787200Y-71940476D01*
X105787200Y-71940476D02*
X105834819Y-72083333D01*
X105834819Y-72083333D02*
X105834819Y-72178571D01*
X105834819Y-72178571D02*
X105787200Y-72321428D01*
X105787200Y-72321428D02*
X105691961Y-72416666D01*
X105691961Y-72416666D02*
X105596723Y-72464285D01*
X105596723Y-72464285D02*
X105406247Y-72511904D01*
X105406247Y-72511904D02*
X105263390Y-72511904D01*
X105263390Y-72511904D02*
X105072914Y-72464285D01*
X105072914Y-72464285D02*
X104977676Y-72416666D01*
X104977676Y-72416666D02*
X104882438Y-72321428D01*
X104882438Y-72321428D02*
X104834819Y-72178571D01*
X104834819Y-72178571D02*
X104834819Y-72083333D01*
X104834819Y-72083333D02*
X104882438Y-71940476D01*
X104882438Y-71940476D02*
X104930057Y-71892857D01*
X104834819Y-71559523D02*
X104834819Y-70940476D01*
X104834819Y-70940476D02*
X105215771Y-71273809D01*
X105215771Y-71273809D02*
X105215771Y-71130952D01*
X105215771Y-71130952D02*
X105263390Y-71035714D01*
X105263390Y-71035714D02*
X105311009Y-70988095D01*
X105311009Y-70988095D02*
X105406247Y-70940476D01*
X105406247Y-70940476D02*
X105644342Y-70940476D01*
X105644342Y-70940476D02*
X105739580Y-70988095D01*
X105739580Y-70988095D02*
X105787200Y-71035714D01*
X105787200Y-71035714D02*
X105834819Y-71130952D01*
X105834819Y-71130952D02*
X105834819Y-71416666D01*
X105834819Y-71416666D02*
X105787200Y-71511904D01*
X105787200Y-71511904D02*
X105739580Y-71559523D01*
X105834819Y-69988095D02*
X105834819Y-70559523D01*
X105834819Y-70273809D02*
X104834819Y-70273809D01*
X104834819Y-70273809D02*
X104977676Y-70369047D01*
X104977676Y-70369047D02*
X105072914Y-70464285D01*
X105072914Y-70464285D02*
X105120533Y-70559523D01*
X84324819Y-110167857D02*
X83848628Y-110501190D01*
X84324819Y-110739285D02*
X83324819Y-110739285D01*
X83324819Y-110739285D02*
X83324819Y-110358333D01*
X83324819Y-110358333D02*
X83372438Y-110263095D01*
X83372438Y-110263095D02*
X83420057Y-110215476D01*
X83420057Y-110215476D02*
X83515295Y-110167857D01*
X83515295Y-110167857D02*
X83658152Y-110167857D01*
X83658152Y-110167857D02*
X83753390Y-110215476D01*
X83753390Y-110215476D02*
X83801009Y-110263095D01*
X83801009Y-110263095D02*
X83848628Y-110358333D01*
X83848628Y-110358333D02*
X83848628Y-110739285D01*
X83324819Y-109834523D02*
X83324819Y-109215476D01*
X83324819Y-109215476D02*
X83705771Y-109548809D01*
X83705771Y-109548809D02*
X83705771Y-109405952D01*
X83705771Y-109405952D02*
X83753390Y-109310714D01*
X83753390Y-109310714D02*
X83801009Y-109263095D01*
X83801009Y-109263095D02*
X83896247Y-109215476D01*
X83896247Y-109215476D02*
X84134342Y-109215476D01*
X84134342Y-109215476D02*
X84229580Y-109263095D01*
X84229580Y-109263095D02*
X84277200Y-109310714D01*
X84277200Y-109310714D02*
X84324819Y-109405952D01*
X84324819Y-109405952D02*
X84324819Y-109691666D01*
X84324819Y-109691666D02*
X84277200Y-109786904D01*
X84277200Y-109786904D02*
X84229580Y-109834523D01*
X83324819Y-108882142D02*
X83324819Y-108263095D01*
X83324819Y-108263095D02*
X83705771Y-108596428D01*
X83705771Y-108596428D02*
X83705771Y-108453571D01*
X83705771Y-108453571D02*
X83753390Y-108358333D01*
X83753390Y-108358333D02*
X83801009Y-108310714D01*
X83801009Y-108310714D02*
X83896247Y-108263095D01*
X83896247Y-108263095D02*
X84134342Y-108263095D01*
X84134342Y-108263095D02*
X84229580Y-108310714D01*
X84229580Y-108310714D02*
X84277200Y-108358333D01*
X84277200Y-108358333D02*
X84324819Y-108453571D01*
X84324819Y-108453571D02*
X84324819Y-108739285D01*
X84324819Y-108739285D02*
X84277200Y-108834523D01*
X84277200Y-108834523D02*
X84229580Y-108882142D01*
X63166666Y-90034819D02*
X63166666Y-90749104D01*
X63166666Y-90749104D02*
X63119047Y-90891961D01*
X63119047Y-90891961D02*
X63023809Y-90987200D01*
X63023809Y-90987200D02*
X62880952Y-91034819D01*
X62880952Y-91034819D02*
X62785714Y-91034819D01*
X64071428Y-90368152D02*
X64071428Y-91034819D01*
X63833333Y-89987200D02*
X63595238Y-90701485D01*
X63595238Y-90701485D02*
X64214285Y-90701485D01*
X98129580Y-105092857D02*
X98177200Y-105140476D01*
X98177200Y-105140476D02*
X98224819Y-105283333D01*
X98224819Y-105283333D02*
X98224819Y-105378571D01*
X98224819Y-105378571D02*
X98177200Y-105521428D01*
X98177200Y-105521428D02*
X98081961Y-105616666D01*
X98081961Y-105616666D02*
X97986723Y-105664285D01*
X97986723Y-105664285D02*
X97796247Y-105711904D01*
X97796247Y-105711904D02*
X97653390Y-105711904D01*
X97653390Y-105711904D02*
X97462914Y-105664285D01*
X97462914Y-105664285D02*
X97367676Y-105616666D01*
X97367676Y-105616666D02*
X97272438Y-105521428D01*
X97272438Y-105521428D02*
X97224819Y-105378571D01*
X97224819Y-105378571D02*
X97224819Y-105283333D01*
X97224819Y-105283333D02*
X97272438Y-105140476D01*
X97272438Y-105140476D02*
X97320057Y-105092857D01*
X98224819Y-104140476D02*
X98224819Y-104711904D01*
X98224819Y-104426190D02*
X97224819Y-104426190D01*
X97224819Y-104426190D02*
X97367676Y-104521428D01*
X97367676Y-104521428D02*
X97462914Y-104616666D01*
X97462914Y-104616666D02*
X97510533Y-104711904D01*
X97224819Y-103807142D02*
X97224819Y-103188095D01*
X97224819Y-103188095D02*
X97605771Y-103521428D01*
X97605771Y-103521428D02*
X97605771Y-103378571D01*
X97605771Y-103378571D02*
X97653390Y-103283333D01*
X97653390Y-103283333D02*
X97701009Y-103235714D01*
X97701009Y-103235714D02*
X97796247Y-103188095D01*
X97796247Y-103188095D02*
X98034342Y-103188095D01*
X98034342Y-103188095D02*
X98129580Y-103235714D01*
X98129580Y-103235714D02*
X98177200Y-103283333D01*
X98177200Y-103283333D02*
X98224819Y-103378571D01*
X98224819Y-103378571D02*
X98224819Y-103664285D01*
X98224819Y-103664285D02*
X98177200Y-103759523D01*
X98177200Y-103759523D02*
X98129580Y-103807142D01*
X84457142Y-136884819D02*
X84123809Y-136408628D01*
X83885714Y-136884819D02*
X83885714Y-135884819D01*
X83885714Y-135884819D02*
X84266666Y-135884819D01*
X84266666Y-135884819D02*
X84361904Y-135932438D01*
X84361904Y-135932438D02*
X84409523Y-135980057D01*
X84409523Y-135980057D02*
X84457142Y-136075295D01*
X84457142Y-136075295D02*
X84457142Y-136218152D01*
X84457142Y-136218152D02*
X84409523Y-136313390D01*
X84409523Y-136313390D02*
X84361904Y-136361009D01*
X84361904Y-136361009D02*
X84266666Y-136408628D01*
X84266666Y-136408628D02*
X83885714Y-136408628D01*
X85409523Y-136884819D02*
X84838095Y-136884819D01*
X85123809Y-136884819D02*
X85123809Y-135884819D01*
X85123809Y-135884819D02*
X85028571Y-136027676D01*
X85028571Y-136027676D02*
X84933333Y-136122914D01*
X84933333Y-136122914D02*
X84838095Y-136170533D01*
X86361904Y-136884819D02*
X85790476Y-136884819D01*
X86076190Y-136884819D02*
X86076190Y-135884819D01*
X86076190Y-135884819D02*
X85980952Y-136027676D01*
X85980952Y-136027676D02*
X85885714Y-136122914D01*
X85885714Y-136122914D02*
X85790476Y-136170533D01*
X139090476Y-85054819D02*
X139090476Y-85769104D01*
X139090476Y-85769104D02*
X139042857Y-85911961D01*
X139042857Y-85911961D02*
X138947619Y-86007200D01*
X138947619Y-86007200D02*
X138804762Y-86054819D01*
X138804762Y-86054819D02*
X138709524Y-86054819D01*
X140090476Y-86054819D02*
X139519048Y-86054819D01*
X139804762Y-86054819D02*
X139804762Y-85054819D01*
X139804762Y-85054819D02*
X139709524Y-85197676D01*
X139709524Y-85197676D02*
X139614286Y-85292914D01*
X139614286Y-85292914D02*
X139519048Y-85340533D01*
X140709524Y-85054819D02*
X140804762Y-85054819D01*
X140804762Y-85054819D02*
X140900000Y-85102438D01*
X140900000Y-85102438D02*
X140947619Y-85150057D01*
X140947619Y-85150057D02*
X140995238Y-85245295D01*
X140995238Y-85245295D02*
X141042857Y-85435771D01*
X141042857Y-85435771D02*
X141042857Y-85673866D01*
X141042857Y-85673866D02*
X140995238Y-85864342D01*
X140995238Y-85864342D02*
X140947619Y-85959580D01*
X140947619Y-85959580D02*
X140900000Y-86007200D01*
X140900000Y-86007200D02*
X140804762Y-86054819D01*
X140804762Y-86054819D02*
X140709524Y-86054819D01*
X140709524Y-86054819D02*
X140614286Y-86007200D01*
X140614286Y-86007200D02*
X140566667Y-85959580D01*
X140566667Y-85959580D02*
X140519048Y-85864342D01*
X140519048Y-85864342D02*
X140471429Y-85673866D01*
X140471429Y-85673866D02*
X140471429Y-85435771D01*
X140471429Y-85435771D02*
X140519048Y-85245295D01*
X140519048Y-85245295D02*
X140566667Y-85150057D01*
X140566667Y-85150057D02*
X140614286Y-85102438D01*
X140614286Y-85102438D02*
X140709524Y-85054819D01*
X98513333Y-74654819D02*
X98037143Y-74654819D01*
X98037143Y-74654819D02*
X98037143Y-73654819D01*
X98799048Y-73750057D02*
X98846667Y-73702438D01*
X98846667Y-73702438D02*
X98941905Y-73654819D01*
X98941905Y-73654819D02*
X99180000Y-73654819D01*
X99180000Y-73654819D02*
X99275238Y-73702438D01*
X99275238Y-73702438D02*
X99322857Y-73750057D01*
X99322857Y-73750057D02*
X99370476Y-73845295D01*
X99370476Y-73845295D02*
X99370476Y-73940533D01*
X99370476Y-73940533D02*
X99322857Y-74083390D01*
X99322857Y-74083390D02*
X98751429Y-74654819D01*
X98751429Y-74654819D02*
X99370476Y-74654819D01*
X94216666Y-106711009D02*
X93883333Y-106711009D01*
X93883333Y-107234819D02*
X93883333Y-106234819D01*
X93883333Y-106234819D02*
X94359523Y-106234819D01*
X95073809Y-106711009D02*
X95216666Y-106758628D01*
X95216666Y-106758628D02*
X95264285Y-106806247D01*
X95264285Y-106806247D02*
X95311904Y-106901485D01*
X95311904Y-106901485D02*
X95311904Y-107044342D01*
X95311904Y-107044342D02*
X95264285Y-107139580D01*
X95264285Y-107139580D02*
X95216666Y-107187200D01*
X95216666Y-107187200D02*
X95121428Y-107234819D01*
X95121428Y-107234819D02*
X94740476Y-107234819D01*
X94740476Y-107234819D02*
X94740476Y-106234819D01*
X94740476Y-106234819D02*
X95073809Y-106234819D01*
X95073809Y-106234819D02*
X95169047Y-106282438D01*
X95169047Y-106282438D02*
X95216666Y-106330057D01*
X95216666Y-106330057D02*
X95264285Y-106425295D01*
X95264285Y-106425295D02*
X95264285Y-106520533D01*
X95264285Y-106520533D02*
X95216666Y-106615771D01*
X95216666Y-106615771D02*
X95169047Y-106663390D01*
X95169047Y-106663390D02*
X95073809Y-106711009D01*
X95073809Y-106711009D02*
X94740476Y-106711009D01*
X96264285Y-107234819D02*
X95692857Y-107234819D01*
X95978571Y-107234819D02*
X95978571Y-106234819D01*
X95978571Y-106234819D02*
X95883333Y-106377676D01*
X95883333Y-106377676D02*
X95788095Y-106472914D01*
X95788095Y-106472914D02*
X95692857Y-106520533D01*
X78661905Y-73054819D02*
X78661905Y-72054819D01*
X78661905Y-72054819D02*
X78900000Y-72054819D01*
X78900000Y-72054819D02*
X79042857Y-72102438D01*
X79042857Y-72102438D02*
X79138095Y-72197676D01*
X79138095Y-72197676D02*
X79185714Y-72292914D01*
X79185714Y-72292914D02*
X79233333Y-72483390D01*
X79233333Y-72483390D02*
X79233333Y-72626247D01*
X79233333Y-72626247D02*
X79185714Y-72816723D01*
X79185714Y-72816723D02*
X79138095Y-72911961D01*
X79138095Y-72911961D02*
X79042857Y-73007200D01*
X79042857Y-73007200D02*
X78900000Y-73054819D01*
X78900000Y-73054819D02*
X78661905Y-73054819D01*
X79804762Y-72483390D02*
X79709524Y-72435771D01*
X79709524Y-72435771D02*
X79661905Y-72388152D01*
X79661905Y-72388152D02*
X79614286Y-72292914D01*
X79614286Y-72292914D02*
X79614286Y-72245295D01*
X79614286Y-72245295D02*
X79661905Y-72150057D01*
X79661905Y-72150057D02*
X79709524Y-72102438D01*
X79709524Y-72102438D02*
X79804762Y-72054819D01*
X79804762Y-72054819D02*
X79995238Y-72054819D01*
X79995238Y-72054819D02*
X80090476Y-72102438D01*
X80090476Y-72102438D02*
X80138095Y-72150057D01*
X80138095Y-72150057D02*
X80185714Y-72245295D01*
X80185714Y-72245295D02*
X80185714Y-72292914D01*
X80185714Y-72292914D02*
X80138095Y-72388152D01*
X80138095Y-72388152D02*
X80090476Y-72435771D01*
X80090476Y-72435771D02*
X79995238Y-72483390D01*
X79995238Y-72483390D02*
X79804762Y-72483390D01*
X79804762Y-72483390D02*
X79709524Y-72531009D01*
X79709524Y-72531009D02*
X79661905Y-72578628D01*
X79661905Y-72578628D02*
X79614286Y-72673866D01*
X79614286Y-72673866D02*
X79614286Y-72864342D01*
X79614286Y-72864342D02*
X79661905Y-72959580D01*
X79661905Y-72959580D02*
X79709524Y-73007200D01*
X79709524Y-73007200D02*
X79804762Y-73054819D01*
X79804762Y-73054819D02*
X79995238Y-73054819D01*
X79995238Y-73054819D02*
X80090476Y-73007200D01*
X80090476Y-73007200D02*
X80138095Y-72959580D01*
X80138095Y-72959580D02*
X80185714Y-72864342D01*
X80185714Y-72864342D02*
X80185714Y-72673866D01*
X80185714Y-72673866D02*
X80138095Y-72578628D01*
X80138095Y-72578628D02*
X80090476Y-72531009D01*
X80090476Y-72531009D02*
X79995238Y-72483390D01*
X84457142Y-135284819D02*
X84123809Y-134808628D01*
X83885714Y-135284819D02*
X83885714Y-134284819D01*
X83885714Y-134284819D02*
X84266666Y-134284819D01*
X84266666Y-134284819D02*
X84361904Y-134332438D01*
X84361904Y-134332438D02*
X84409523Y-134380057D01*
X84409523Y-134380057D02*
X84457142Y-134475295D01*
X84457142Y-134475295D02*
X84457142Y-134618152D01*
X84457142Y-134618152D02*
X84409523Y-134713390D01*
X84409523Y-134713390D02*
X84361904Y-134761009D01*
X84361904Y-134761009D02*
X84266666Y-134808628D01*
X84266666Y-134808628D02*
X83885714Y-134808628D01*
X84838095Y-134380057D02*
X84885714Y-134332438D01*
X84885714Y-134332438D02*
X84980952Y-134284819D01*
X84980952Y-134284819D02*
X85219047Y-134284819D01*
X85219047Y-134284819D02*
X85314285Y-134332438D01*
X85314285Y-134332438D02*
X85361904Y-134380057D01*
X85361904Y-134380057D02*
X85409523Y-134475295D01*
X85409523Y-134475295D02*
X85409523Y-134570533D01*
X85409523Y-134570533D02*
X85361904Y-134713390D01*
X85361904Y-134713390D02*
X84790476Y-135284819D01*
X84790476Y-135284819D02*
X85409523Y-135284819D01*
X86028571Y-134284819D02*
X86123809Y-134284819D01*
X86123809Y-134284819D02*
X86219047Y-134332438D01*
X86219047Y-134332438D02*
X86266666Y-134380057D01*
X86266666Y-134380057D02*
X86314285Y-134475295D01*
X86314285Y-134475295D02*
X86361904Y-134665771D01*
X86361904Y-134665771D02*
X86361904Y-134903866D01*
X86361904Y-134903866D02*
X86314285Y-135094342D01*
X86314285Y-135094342D02*
X86266666Y-135189580D01*
X86266666Y-135189580D02*
X86219047Y-135237200D01*
X86219047Y-135237200D02*
X86123809Y-135284819D01*
X86123809Y-135284819D02*
X86028571Y-135284819D01*
X86028571Y-135284819D02*
X85933333Y-135237200D01*
X85933333Y-135237200D02*
X85885714Y-135189580D01*
X85885714Y-135189580D02*
X85838095Y-135094342D01*
X85838095Y-135094342D02*
X85790476Y-134903866D01*
X85790476Y-134903866D02*
X85790476Y-134665771D01*
X85790476Y-134665771D02*
X85838095Y-134475295D01*
X85838095Y-134475295D02*
X85885714Y-134380057D01*
X85885714Y-134380057D02*
X85933333Y-134332438D01*
X85933333Y-134332438D02*
X86028571Y-134284819D01*
X62866666Y-49899819D02*
X62866666Y-50614104D01*
X62866666Y-50614104D02*
X62819047Y-50756961D01*
X62819047Y-50756961D02*
X62723809Y-50852200D01*
X62723809Y-50852200D02*
X62580952Y-50899819D01*
X62580952Y-50899819D02*
X62485714Y-50899819D01*
X63247619Y-49899819D02*
X63914285Y-49899819D01*
X63914285Y-49899819D02*
X63485714Y-50899819D01*
X101182142Y-99574819D02*
X100848809Y-99098628D01*
X100610714Y-99574819D02*
X100610714Y-98574819D01*
X100610714Y-98574819D02*
X100991666Y-98574819D01*
X100991666Y-98574819D02*
X101086904Y-98622438D01*
X101086904Y-98622438D02*
X101134523Y-98670057D01*
X101134523Y-98670057D02*
X101182142Y-98765295D01*
X101182142Y-98765295D02*
X101182142Y-98908152D01*
X101182142Y-98908152D02*
X101134523Y-99003390D01*
X101134523Y-99003390D02*
X101086904Y-99051009D01*
X101086904Y-99051009D02*
X100991666Y-99098628D01*
X100991666Y-99098628D02*
X100610714Y-99098628D01*
X101515476Y-98574819D02*
X102134523Y-98574819D01*
X102134523Y-98574819D02*
X101801190Y-98955771D01*
X101801190Y-98955771D02*
X101944047Y-98955771D01*
X101944047Y-98955771D02*
X102039285Y-99003390D01*
X102039285Y-99003390D02*
X102086904Y-99051009D01*
X102086904Y-99051009D02*
X102134523Y-99146247D01*
X102134523Y-99146247D02*
X102134523Y-99384342D01*
X102134523Y-99384342D02*
X102086904Y-99479580D01*
X102086904Y-99479580D02*
X102039285Y-99527200D01*
X102039285Y-99527200D02*
X101944047Y-99574819D01*
X101944047Y-99574819D02*
X101658333Y-99574819D01*
X101658333Y-99574819D02*
X101563095Y-99527200D01*
X101563095Y-99527200D02*
X101515476Y-99479580D01*
X102991666Y-98908152D02*
X102991666Y-99574819D01*
X102753571Y-98527200D02*
X102515476Y-99241485D01*
X102515476Y-99241485D02*
X103134523Y-99241485D01*
X75833333Y-115174819D02*
X75500000Y-114698628D01*
X75261905Y-115174819D02*
X75261905Y-114174819D01*
X75261905Y-114174819D02*
X75642857Y-114174819D01*
X75642857Y-114174819D02*
X75738095Y-114222438D01*
X75738095Y-114222438D02*
X75785714Y-114270057D01*
X75785714Y-114270057D02*
X75833333Y-114365295D01*
X75833333Y-114365295D02*
X75833333Y-114508152D01*
X75833333Y-114508152D02*
X75785714Y-114603390D01*
X75785714Y-114603390D02*
X75738095Y-114651009D01*
X75738095Y-114651009D02*
X75642857Y-114698628D01*
X75642857Y-114698628D02*
X75261905Y-114698628D01*
X76404762Y-114603390D02*
X76309524Y-114555771D01*
X76309524Y-114555771D02*
X76261905Y-114508152D01*
X76261905Y-114508152D02*
X76214286Y-114412914D01*
X76214286Y-114412914D02*
X76214286Y-114365295D01*
X76214286Y-114365295D02*
X76261905Y-114270057D01*
X76261905Y-114270057D02*
X76309524Y-114222438D01*
X76309524Y-114222438D02*
X76404762Y-114174819D01*
X76404762Y-114174819D02*
X76595238Y-114174819D01*
X76595238Y-114174819D02*
X76690476Y-114222438D01*
X76690476Y-114222438D02*
X76738095Y-114270057D01*
X76738095Y-114270057D02*
X76785714Y-114365295D01*
X76785714Y-114365295D02*
X76785714Y-114412914D01*
X76785714Y-114412914D02*
X76738095Y-114508152D01*
X76738095Y-114508152D02*
X76690476Y-114555771D01*
X76690476Y-114555771D02*
X76595238Y-114603390D01*
X76595238Y-114603390D02*
X76404762Y-114603390D01*
X76404762Y-114603390D02*
X76309524Y-114651009D01*
X76309524Y-114651009D02*
X76261905Y-114698628D01*
X76261905Y-114698628D02*
X76214286Y-114793866D01*
X76214286Y-114793866D02*
X76214286Y-114984342D01*
X76214286Y-114984342D02*
X76261905Y-115079580D01*
X76261905Y-115079580D02*
X76309524Y-115127200D01*
X76309524Y-115127200D02*
X76404762Y-115174819D01*
X76404762Y-115174819D02*
X76595238Y-115174819D01*
X76595238Y-115174819D02*
X76690476Y-115127200D01*
X76690476Y-115127200D02*
X76738095Y-115079580D01*
X76738095Y-115079580D02*
X76785714Y-114984342D01*
X76785714Y-114984342D02*
X76785714Y-114793866D01*
X76785714Y-114793866D02*
X76738095Y-114698628D01*
X76738095Y-114698628D02*
X76690476Y-114651009D01*
X76690476Y-114651009D02*
X76595238Y-114603390D01*
X100674819Y-89442857D02*
X100198628Y-89776190D01*
X100674819Y-90014285D02*
X99674819Y-90014285D01*
X99674819Y-90014285D02*
X99674819Y-89633333D01*
X99674819Y-89633333D02*
X99722438Y-89538095D01*
X99722438Y-89538095D02*
X99770057Y-89490476D01*
X99770057Y-89490476D02*
X99865295Y-89442857D01*
X99865295Y-89442857D02*
X100008152Y-89442857D01*
X100008152Y-89442857D02*
X100103390Y-89490476D01*
X100103390Y-89490476D02*
X100151009Y-89538095D01*
X100151009Y-89538095D02*
X100198628Y-89633333D01*
X100198628Y-89633333D02*
X100198628Y-90014285D01*
X100674819Y-88490476D02*
X100674819Y-89061904D01*
X100674819Y-88776190D02*
X99674819Y-88776190D01*
X99674819Y-88776190D02*
X99817676Y-88871428D01*
X99817676Y-88871428D02*
X99912914Y-88966666D01*
X99912914Y-88966666D02*
X99960533Y-89061904D01*
X99674819Y-87633333D02*
X99674819Y-87823809D01*
X99674819Y-87823809D02*
X99722438Y-87919047D01*
X99722438Y-87919047D02*
X99770057Y-87966666D01*
X99770057Y-87966666D02*
X99912914Y-88061904D01*
X99912914Y-88061904D02*
X100103390Y-88109523D01*
X100103390Y-88109523D02*
X100484342Y-88109523D01*
X100484342Y-88109523D02*
X100579580Y-88061904D01*
X100579580Y-88061904D02*
X100627200Y-88014285D01*
X100627200Y-88014285D02*
X100674819Y-87919047D01*
X100674819Y-87919047D02*
X100674819Y-87728571D01*
X100674819Y-87728571D02*
X100627200Y-87633333D01*
X100627200Y-87633333D02*
X100579580Y-87585714D01*
X100579580Y-87585714D02*
X100484342Y-87538095D01*
X100484342Y-87538095D02*
X100246247Y-87538095D01*
X100246247Y-87538095D02*
X100151009Y-87585714D01*
X100151009Y-87585714D02*
X100103390Y-87633333D01*
X100103390Y-87633333D02*
X100055771Y-87728571D01*
X100055771Y-87728571D02*
X100055771Y-87919047D01*
X100055771Y-87919047D02*
X100103390Y-88014285D01*
X100103390Y-88014285D02*
X100151009Y-88061904D01*
X100151009Y-88061904D02*
X100246247Y-88109523D01*
X99879580Y-112842857D02*
X99927200Y-112890476D01*
X99927200Y-112890476D02*
X99974819Y-113033333D01*
X99974819Y-113033333D02*
X99974819Y-113128571D01*
X99974819Y-113128571D02*
X99927200Y-113271428D01*
X99927200Y-113271428D02*
X99831961Y-113366666D01*
X99831961Y-113366666D02*
X99736723Y-113414285D01*
X99736723Y-113414285D02*
X99546247Y-113461904D01*
X99546247Y-113461904D02*
X99403390Y-113461904D01*
X99403390Y-113461904D02*
X99212914Y-113414285D01*
X99212914Y-113414285D02*
X99117676Y-113366666D01*
X99117676Y-113366666D02*
X99022438Y-113271428D01*
X99022438Y-113271428D02*
X98974819Y-113128571D01*
X98974819Y-113128571D02*
X98974819Y-113033333D01*
X98974819Y-113033333D02*
X99022438Y-112890476D01*
X99022438Y-112890476D02*
X99070057Y-112842857D01*
X99974819Y-111890476D02*
X99974819Y-112461904D01*
X99974819Y-112176190D02*
X98974819Y-112176190D01*
X98974819Y-112176190D02*
X99117676Y-112271428D01*
X99117676Y-112271428D02*
X99212914Y-112366666D01*
X99212914Y-112366666D02*
X99260533Y-112461904D01*
X99070057Y-111509523D02*
X99022438Y-111461904D01*
X99022438Y-111461904D02*
X98974819Y-111366666D01*
X98974819Y-111366666D02*
X98974819Y-111128571D01*
X98974819Y-111128571D02*
X99022438Y-111033333D01*
X99022438Y-111033333D02*
X99070057Y-110985714D01*
X99070057Y-110985714D02*
X99165295Y-110938095D01*
X99165295Y-110938095D02*
X99260533Y-110938095D01*
X99260533Y-110938095D02*
X99403390Y-110985714D01*
X99403390Y-110985714D02*
X99974819Y-111557142D01*
X99974819Y-111557142D02*
X99974819Y-110938095D01*
X109782142Y-131134819D02*
X109448809Y-130658628D01*
X109210714Y-131134819D02*
X109210714Y-130134819D01*
X109210714Y-130134819D02*
X109591666Y-130134819D01*
X109591666Y-130134819D02*
X109686904Y-130182438D01*
X109686904Y-130182438D02*
X109734523Y-130230057D01*
X109734523Y-130230057D02*
X109782142Y-130325295D01*
X109782142Y-130325295D02*
X109782142Y-130468152D01*
X109782142Y-130468152D02*
X109734523Y-130563390D01*
X109734523Y-130563390D02*
X109686904Y-130611009D01*
X109686904Y-130611009D02*
X109591666Y-130658628D01*
X109591666Y-130658628D02*
X109210714Y-130658628D01*
X110115476Y-130134819D02*
X110734523Y-130134819D01*
X110734523Y-130134819D02*
X110401190Y-130515771D01*
X110401190Y-130515771D02*
X110544047Y-130515771D01*
X110544047Y-130515771D02*
X110639285Y-130563390D01*
X110639285Y-130563390D02*
X110686904Y-130611009D01*
X110686904Y-130611009D02*
X110734523Y-130706247D01*
X110734523Y-130706247D02*
X110734523Y-130944342D01*
X110734523Y-130944342D02*
X110686904Y-131039580D01*
X110686904Y-131039580D02*
X110639285Y-131087200D01*
X110639285Y-131087200D02*
X110544047Y-131134819D01*
X110544047Y-131134819D02*
X110258333Y-131134819D01*
X110258333Y-131134819D02*
X110163095Y-131087200D01*
X110163095Y-131087200D02*
X110115476Y-131039580D01*
X111353571Y-130134819D02*
X111448809Y-130134819D01*
X111448809Y-130134819D02*
X111544047Y-130182438D01*
X111544047Y-130182438D02*
X111591666Y-130230057D01*
X111591666Y-130230057D02*
X111639285Y-130325295D01*
X111639285Y-130325295D02*
X111686904Y-130515771D01*
X111686904Y-130515771D02*
X111686904Y-130753866D01*
X111686904Y-130753866D02*
X111639285Y-130944342D01*
X111639285Y-130944342D02*
X111591666Y-131039580D01*
X111591666Y-131039580D02*
X111544047Y-131087200D01*
X111544047Y-131087200D02*
X111448809Y-131134819D01*
X111448809Y-131134819D02*
X111353571Y-131134819D01*
X111353571Y-131134819D02*
X111258333Y-131087200D01*
X111258333Y-131087200D02*
X111210714Y-131039580D01*
X111210714Y-131039580D02*
X111163095Y-130944342D01*
X111163095Y-130944342D02*
X111115476Y-130753866D01*
X111115476Y-130753866D02*
X111115476Y-130515771D01*
X111115476Y-130515771D02*
X111163095Y-130325295D01*
X111163095Y-130325295D02*
X111210714Y-130230057D01*
X111210714Y-130230057D02*
X111258333Y-130182438D01*
X111258333Y-130182438D02*
X111353571Y-130134819D01*
X108784819Y-108042857D02*
X108308628Y-108376190D01*
X108784819Y-108614285D02*
X107784819Y-108614285D01*
X107784819Y-108614285D02*
X107784819Y-108233333D01*
X107784819Y-108233333D02*
X107832438Y-108138095D01*
X107832438Y-108138095D02*
X107880057Y-108090476D01*
X107880057Y-108090476D02*
X107975295Y-108042857D01*
X107975295Y-108042857D02*
X108118152Y-108042857D01*
X108118152Y-108042857D02*
X108213390Y-108090476D01*
X108213390Y-108090476D02*
X108261009Y-108138095D01*
X108261009Y-108138095D02*
X108308628Y-108233333D01*
X108308628Y-108233333D02*
X108308628Y-108614285D01*
X108784819Y-107090476D02*
X108784819Y-107661904D01*
X108784819Y-107376190D02*
X107784819Y-107376190D01*
X107784819Y-107376190D02*
X107927676Y-107471428D01*
X107927676Y-107471428D02*
X108022914Y-107566666D01*
X108022914Y-107566666D02*
X108070533Y-107661904D01*
X107784819Y-106185714D02*
X107784819Y-106661904D01*
X107784819Y-106661904D02*
X108261009Y-106709523D01*
X108261009Y-106709523D02*
X108213390Y-106661904D01*
X108213390Y-106661904D02*
X108165771Y-106566666D01*
X108165771Y-106566666D02*
X108165771Y-106328571D01*
X108165771Y-106328571D02*
X108213390Y-106233333D01*
X108213390Y-106233333D02*
X108261009Y-106185714D01*
X108261009Y-106185714D02*
X108356247Y-106138095D01*
X108356247Y-106138095D02*
X108594342Y-106138095D01*
X108594342Y-106138095D02*
X108689580Y-106185714D01*
X108689580Y-106185714D02*
X108737200Y-106233333D01*
X108737200Y-106233333D02*
X108784819Y-106328571D01*
X108784819Y-106328571D02*
X108784819Y-106566666D01*
X108784819Y-106566666D02*
X108737200Y-106661904D01*
X108737200Y-106661904D02*
X108689580Y-106709523D01*
X93799819Y-53809523D02*
X94514104Y-53809523D01*
X94514104Y-53809523D02*
X94656961Y-53857142D01*
X94656961Y-53857142D02*
X94752200Y-53952380D01*
X94752200Y-53952380D02*
X94799819Y-54095237D01*
X94799819Y-54095237D02*
X94799819Y-54190475D01*
X94799819Y-52809523D02*
X94799819Y-53380951D01*
X94799819Y-53095237D02*
X93799819Y-53095237D01*
X93799819Y-53095237D02*
X93942676Y-53190475D01*
X93942676Y-53190475D02*
X94037914Y-53285713D01*
X94037914Y-53285713D02*
X94085533Y-53380951D01*
X94799819Y-52333332D02*
X94799819Y-52142856D01*
X94799819Y-52142856D02*
X94752200Y-52047618D01*
X94752200Y-52047618D02*
X94704580Y-51999999D01*
X94704580Y-51999999D02*
X94561723Y-51904761D01*
X94561723Y-51904761D02*
X94371247Y-51857142D01*
X94371247Y-51857142D02*
X93990295Y-51857142D01*
X93990295Y-51857142D02*
X93895057Y-51904761D01*
X93895057Y-51904761D02*
X93847438Y-51952380D01*
X93847438Y-51952380D02*
X93799819Y-52047618D01*
X93799819Y-52047618D02*
X93799819Y-52238094D01*
X93799819Y-52238094D02*
X93847438Y-52333332D01*
X93847438Y-52333332D02*
X93895057Y-52380951D01*
X93895057Y-52380951D02*
X93990295Y-52428570D01*
X93990295Y-52428570D02*
X94228390Y-52428570D01*
X94228390Y-52428570D02*
X94323628Y-52380951D01*
X94323628Y-52380951D02*
X94371247Y-52333332D01*
X94371247Y-52333332D02*
X94418866Y-52238094D01*
X94418866Y-52238094D02*
X94418866Y-52047618D01*
X94418866Y-52047618D02*
X94371247Y-51952380D01*
X94371247Y-51952380D02*
X94323628Y-51904761D01*
X94323628Y-51904761D02*
X94228390Y-51857142D01*
X93339580Y-70692857D02*
X93387200Y-70740476D01*
X93387200Y-70740476D02*
X93434819Y-70883333D01*
X93434819Y-70883333D02*
X93434819Y-70978571D01*
X93434819Y-70978571D02*
X93387200Y-71121428D01*
X93387200Y-71121428D02*
X93291961Y-71216666D01*
X93291961Y-71216666D02*
X93196723Y-71264285D01*
X93196723Y-71264285D02*
X93006247Y-71311904D01*
X93006247Y-71311904D02*
X92863390Y-71311904D01*
X92863390Y-71311904D02*
X92672914Y-71264285D01*
X92672914Y-71264285D02*
X92577676Y-71216666D01*
X92577676Y-71216666D02*
X92482438Y-71121428D01*
X92482438Y-71121428D02*
X92434819Y-70978571D01*
X92434819Y-70978571D02*
X92434819Y-70883333D01*
X92434819Y-70883333D02*
X92482438Y-70740476D01*
X92482438Y-70740476D02*
X92530057Y-70692857D01*
X92530057Y-70311904D02*
X92482438Y-70264285D01*
X92482438Y-70264285D02*
X92434819Y-70169047D01*
X92434819Y-70169047D02*
X92434819Y-69930952D01*
X92434819Y-69930952D02*
X92482438Y-69835714D01*
X92482438Y-69835714D02*
X92530057Y-69788095D01*
X92530057Y-69788095D02*
X92625295Y-69740476D01*
X92625295Y-69740476D02*
X92720533Y-69740476D01*
X92720533Y-69740476D02*
X92863390Y-69788095D01*
X92863390Y-69788095D02*
X93434819Y-70359523D01*
X93434819Y-70359523D02*
X93434819Y-69740476D01*
X92434819Y-69407142D02*
X92434819Y-68788095D01*
X92434819Y-68788095D02*
X92815771Y-69121428D01*
X92815771Y-69121428D02*
X92815771Y-68978571D01*
X92815771Y-68978571D02*
X92863390Y-68883333D01*
X92863390Y-68883333D02*
X92911009Y-68835714D01*
X92911009Y-68835714D02*
X93006247Y-68788095D01*
X93006247Y-68788095D02*
X93244342Y-68788095D01*
X93244342Y-68788095D02*
X93339580Y-68835714D01*
X93339580Y-68835714D02*
X93387200Y-68883333D01*
X93387200Y-68883333D02*
X93434819Y-68978571D01*
X93434819Y-68978571D02*
X93434819Y-69264285D01*
X93434819Y-69264285D02*
X93387200Y-69359523D01*
X93387200Y-69359523D02*
X93339580Y-69407142D01*
X99488095Y-105454819D02*
X99488095Y-106264342D01*
X99488095Y-106264342D02*
X99535714Y-106359580D01*
X99535714Y-106359580D02*
X99583333Y-106407200D01*
X99583333Y-106407200D02*
X99678571Y-106454819D01*
X99678571Y-106454819D02*
X99869047Y-106454819D01*
X99869047Y-106454819D02*
X99964285Y-106407200D01*
X99964285Y-106407200D02*
X100011904Y-106359580D01*
X100011904Y-106359580D02*
X100059523Y-106264342D01*
X100059523Y-106264342D02*
X100059523Y-105454819D01*
X100964285Y-105788152D02*
X100964285Y-106454819D01*
X100726190Y-105407200D02*
X100488095Y-106121485D01*
X100488095Y-106121485D02*
X101107142Y-106121485D01*
X141904819Y-139058094D02*
X140904819Y-139058094D01*
X140904819Y-139058094D02*
X140904819Y-138819999D01*
X140904819Y-138819999D02*
X140952438Y-138677142D01*
X140952438Y-138677142D02*
X141047676Y-138581904D01*
X141047676Y-138581904D02*
X141142914Y-138534285D01*
X141142914Y-138534285D02*
X141333390Y-138486666D01*
X141333390Y-138486666D02*
X141476247Y-138486666D01*
X141476247Y-138486666D02*
X141666723Y-138534285D01*
X141666723Y-138534285D02*
X141761961Y-138581904D01*
X141761961Y-138581904D02*
X141857200Y-138677142D01*
X141857200Y-138677142D02*
X141904819Y-138819999D01*
X141904819Y-138819999D02*
X141904819Y-139058094D01*
X140904819Y-137581904D02*
X140904819Y-138058094D01*
X140904819Y-138058094D02*
X141381009Y-138105713D01*
X141381009Y-138105713D02*
X141333390Y-138058094D01*
X141333390Y-138058094D02*
X141285771Y-137962856D01*
X141285771Y-137962856D02*
X141285771Y-137724761D01*
X141285771Y-137724761D02*
X141333390Y-137629523D01*
X141333390Y-137629523D02*
X141381009Y-137581904D01*
X141381009Y-137581904D02*
X141476247Y-137534285D01*
X141476247Y-137534285D02*
X141714342Y-137534285D01*
X141714342Y-137534285D02*
X141809580Y-137581904D01*
X141809580Y-137581904D02*
X141857200Y-137629523D01*
X141857200Y-137629523D02*
X141904819Y-137724761D01*
X141904819Y-137724761D02*
X141904819Y-137962856D01*
X141904819Y-137962856D02*
X141857200Y-138058094D01*
X141857200Y-138058094D02*
X141809580Y-138105713D01*
X72107142Y-93434819D02*
X71773809Y-92958628D01*
X71535714Y-93434819D02*
X71535714Y-92434819D01*
X71535714Y-92434819D02*
X71916666Y-92434819D01*
X71916666Y-92434819D02*
X72011904Y-92482438D01*
X72011904Y-92482438D02*
X72059523Y-92530057D01*
X72059523Y-92530057D02*
X72107142Y-92625295D01*
X72107142Y-92625295D02*
X72107142Y-92768152D01*
X72107142Y-92768152D02*
X72059523Y-92863390D01*
X72059523Y-92863390D02*
X72011904Y-92911009D01*
X72011904Y-92911009D02*
X71916666Y-92958628D01*
X71916666Y-92958628D02*
X71535714Y-92958628D01*
X73059523Y-93434819D02*
X72488095Y-93434819D01*
X72773809Y-93434819D02*
X72773809Y-92434819D01*
X72773809Y-92434819D02*
X72678571Y-92577676D01*
X72678571Y-92577676D02*
X72583333Y-92672914D01*
X72583333Y-92672914D02*
X72488095Y-92720533D01*
X73630952Y-92863390D02*
X73535714Y-92815771D01*
X73535714Y-92815771D02*
X73488095Y-92768152D01*
X73488095Y-92768152D02*
X73440476Y-92672914D01*
X73440476Y-92672914D02*
X73440476Y-92625295D01*
X73440476Y-92625295D02*
X73488095Y-92530057D01*
X73488095Y-92530057D02*
X73535714Y-92482438D01*
X73535714Y-92482438D02*
X73630952Y-92434819D01*
X73630952Y-92434819D02*
X73821428Y-92434819D01*
X73821428Y-92434819D02*
X73916666Y-92482438D01*
X73916666Y-92482438D02*
X73964285Y-92530057D01*
X73964285Y-92530057D02*
X74011904Y-92625295D01*
X74011904Y-92625295D02*
X74011904Y-92672914D01*
X74011904Y-92672914D02*
X73964285Y-92768152D01*
X73964285Y-92768152D02*
X73916666Y-92815771D01*
X73916666Y-92815771D02*
X73821428Y-92863390D01*
X73821428Y-92863390D02*
X73630952Y-92863390D01*
X73630952Y-92863390D02*
X73535714Y-92911009D01*
X73535714Y-92911009D02*
X73488095Y-92958628D01*
X73488095Y-92958628D02*
X73440476Y-93053866D01*
X73440476Y-93053866D02*
X73440476Y-93244342D01*
X73440476Y-93244342D02*
X73488095Y-93339580D01*
X73488095Y-93339580D02*
X73535714Y-93387200D01*
X73535714Y-93387200D02*
X73630952Y-93434819D01*
X73630952Y-93434819D02*
X73821428Y-93434819D01*
X73821428Y-93434819D02*
X73916666Y-93387200D01*
X73916666Y-93387200D02*
X73964285Y-93339580D01*
X73964285Y-93339580D02*
X74011904Y-93244342D01*
X74011904Y-93244342D02*
X74011904Y-93053866D01*
X74011904Y-93053866D02*
X73964285Y-92958628D01*
X73964285Y-92958628D02*
X73916666Y-92911009D01*
X73916666Y-92911009D02*
X73821428Y-92863390D01*
X63490476Y-64314819D02*
X63490476Y-65029104D01*
X63490476Y-65029104D02*
X63442857Y-65171961D01*
X63442857Y-65171961D02*
X63347619Y-65267200D01*
X63347619Y-65267200D02*
X63204762Y-65314819D01*
X63204762Y-65314819D02*
X63109524Y-65314819D01*
X64490476Y-65314819D02*
X63919048Y-65314819D01*
X64204762Y-65314819D02*
X64204762Y-64314819D01*
X64204762Y-64314819D02*
X64109524Y-64457676D01*
X64109524Y-64457676D02*
X64014286Y-64552914D01*
X64014286Y-64552914D02*
X63919048Y-64600533D01*
X64871429Y-64410057D02*
X64919048Y-64362438D01*
X64919048Y-64362438D02*
X65014286Y-64314819D01*
X65014286Y-64314819D02*
X65252381Y-64314819D01*
X65252381Y-64314819D02*
X65347619Y-64362438D01*
X65347619Y-64362438D02*
X65395238Y-64410057D01*
X65395238Y-64410057D02*
X65442857Y-64505295D01*
X65442857Y-64505295D02*
X65442857Y-64600533D01*
X65442857Y-64600533D02*
X65395238Y-64743390D01*
X65395238Y-64743390D02*
X64823810Y-65314819D01*
X64823810Y-65314819D02*
X65442857Y-65314819D01*
X125364819Y-54059523D02*
X126079104Y-54059523D01*
X126079104Y-54059523D02*
X126221961Y-54107142D01*
X126221961Y-54107142D02*
X126317200Y-54202380D01*
X126317200Y-54202380D02*
X126364819Y-54345237D01*
X126364819Y-54345237D02*
X126364819Y-54440475D01*
X126364819Y-53059523D02*
X126364819Y-53630951D01*
X126364819Y-53345237D02*
X125364819Y-53345237D01*
X125364819Y-53345237D02*
X125507676Y-53440475D01*
X125507676Y-53440475D02*
X125602914Y-53535713D01*
X125602914Y-53535713D02*
X125650533Y-53630951D01*
X125698152Y-52202380D02*
X126364819Y-52202380D01*
X125317200Y-52440475D02*
X126031485Y-52678570D01*
X126031485Y-52678570D02*
X126031485Y-52059523D01*
X78661905Y-66654819D02*
X78661905Y-65654819D01*
X78661905Y-65654819D02*
X78900000Y-65654819D01*
X78900000Y-65654819D02*
X79042857Y-65702438D01*
X79042857Y-65702438D02*
X79138095Y-65797676D01*
X79138095Y-65797676D02*
X79185714Y-65892914D01*
X79185714Y-65892914D02*
X79233333Y-66083390D01*
X79233333Y-66083390D02*
X79233333Y-66226247D01*
X79233333Y-66226247D02*
X79185714Y-66416723D01*
X79185714Y-66416723D02*
X79138095Y-66511961D01*
X79138095Y-66511961D02*
X79042857Y-66607200D01*
X79042857Y-66607200D02*
X78900000Y-66654819D01*
X78900000Y-66654819D02*
X78661905Y-66654819D01*
X79566667Y-65654819D02*
X80233333Y-65654819D01*
X80233333Y-65654819D02*
X79804762Y-66654819D01*
X64429580Y-122142857D02*
X64477200Y-122190476D01*
X64477200Y-122190476D02*
X64524819Y-122333333D01*
X64524819Y-122333333D02*
X64524819Y-122428571D01*
X64524819Y-122428571D02*
X64477200Y-122571428D01*
X64477200Y-122571428D02*
X64381961Y-122666666D01*
X64381961Y-122666666D02*
X64286723Y-122714285D01*
X64286723Y-122714285D02*
X64096247Y-122761904D01*
X64096247Y-122761904D02*
X63953390Y-122761904D01*
X63953390Y-122761904D02*
X63762914Y-122714285D01*
X63762914Y-122714285D02*
X63667676Y-122666666D01*
X63667676Y-122666666D02*
X63572438Y-122571428D01*
X63572438Y-122571428D02*
X63524819Y-122428571D01*
X63524819Y-122428571D02*
X63524819Y-122333333D01*
X63524819Y-122333333D02*
X63572438Y-122190476D01*
X63572438Y-122190476D02*
X63620057Y-122142857D01*
X64524819Y-121190476D02*
X64524819Y-121761904D01*
X64524819Y-121476190D02*
X63524819Y-121476190D01*
X63524819Y-121476190D02*
X63667676Y-121571428D01*
X63667676Y-121571428D02*
X63762914Y-121666666D01*
X63762914Y-121666666D02*
X63810533Y-121761904D01*
X63524819Y-120571428D02*
X63524819Y-120476190D01*
X63524819Y-120476190D02*
X63572438Y-120380952D01*
X63572438Y-120380952D02*
X63620057Y-120333333D01*
X63620057Y-120333333D02*
X63715295Y-120285714D01*
X63715295Y-120285714D02*
X63905771Y-120238095D01*
X63905771Y-120238095D02*
X64143866Y-120238095D01*
X64143866Y-120238095D02*
X64334342Y-120285714D01*
X64334342Y-120285714D02*
X64429580Y-120333333D01*
X64429580Y-120333333D02*
X64477200Y-120380952D01*
X64477200Y-120380952D02*
X64524819Y-120476190D01*
X64524819Y-120476190D02*
X64524819Y-120571428D01*
X64524819Y-120571428D02*
X64477200Y-120666666D01*
X64477200Y-120666666D02*
X64429580Y-120714285D01*
X64429580Y-120714285D02*
X64334342Y-120761904D01*
X64334342Y-120761904D02*
X64143866Y-120809523D01*
X64143866Y-120809523D02*
X63905771Y-120809523D01*
X63905771Y-120809523D02*
X63715295Y-120761904D01*
X63715295Y-120761904D02*
X63620057Y-120714285D01*
X63620057Y-120714285D02*
X63572438Y-120666666D01*
X63572438Y-120666666D02*
X63524819Y-120571428D01*
X145090476Y-105934819D02*
X145090476Y-106649104D01*
X145090476Y-106649104D02*
X145042857Y-106791961D01*
X145042857Y-106791961D02*
X144947619Y-106887200D01*
X144947619Y-106887200D02*
X144804762Y-106934819D01*
X144804762Y-106934819D02*
X144709524Y-106934819D01*
X146090476Y-106934819D02*
X145519048Y-106934819D01*
X145804762Y-106934819D02*
X145804762Y-105934819D01*
X145804762Y-105934819D02*
X145709524Y-106077676D01*
X145709524Y-106077676D02*
X145614286Y-106172914D01*
X145614286Y-106172914D02*
X145519048Y-106220533D01*
X146995238Y-105934819D02*
X146519048Y-105934819D01*
X146519048Y-105934819D02*
X146471429Y-106411009D01*
X146471429Y-106411009D02*
X146519048Y-106363390D01*
X146519048Y-106363390D02*
X146614286Y-106315771D01*
X146614286Y-106315771D02*
X146852381Y-106315771D01*
X146852381Y-106315771D02*
X146947619Y-106363390D01*
X146947619Y-106363390D02*
X146995238Y-106411009D01*
X146995238Y-106411009D02*
X147042857Y-106506247D01*
X147042857Y-106506247D02*
X147042857Y-106744342D01*
X147042857Y-106744342D02*
X146995238Y-106839580D01*
X146995238Y-106839580D02*
X146947619Y-106887200D01*
X146947619Y-106887200D02*
X146852381Y-106934819D01*
X146852381Y-106934819D02*
X146614286Y-106934819D01*
X146614286Y-106934819D02*
X146519048Y-106887200D01*
X146519048Y-106887200D02*
X146471429Y-106839580D01*
X79554761Y-117450057D02*
X79459523Y-117402438D01*
X79459523Y-117402438D02*
X79364285Y-117307200D01*
X79364285Y-117307200D02*
X79221428Y-117164342D01*
X79221428Y-117164342D02*
X79126190Y-117116723D01*
X79126190Y-117116723D02*
X79030952Y-117116723D01*
X79078571Y-117354819D02*
X78983333Y-117307200D01*
X78983333Y-117307200D02*
X78888095Y-117211961D01*
X78888095Y-117211961D02*
X78840476Y-117021485D01*
X78840476Y-117021485D02*
X78840476Y-116688152D01*
X78840476Y-116688152D02*
X78888095Y-116497676D01*
X78888095Y-116497676D02*
X78983333Y-116402438D01*
X78983333Y-116402438D02*
X79078571Y-116354819D01*
X79078571Y-116354819D02*
X79269047Y-116354819D01*
X79269047Y-116354819D02*
X79364285Y-116402438D01*
X79364285Y-116402438D02*
X79459523Y-116497676D01*
X79459523Y-116497676D02*
X79507142Y-116688152D01*
X79507142Y-116688152D02*
X79507142Y-117021485D01*
X79507142Y-117021485D02*
X79459523Y-117211961D01*
X79459523Y-117211961D02*
X79364285Y-117307200D01*
X79364285Y-117307200D02*
X79269047Y-117354819D01*
X79269047Y-117354819D02*
X79078571Y-117354819D01*
X79840476Y-116354819D02*
X80459523Y-116354819D01*
X80459523Y-116354819D02*
X80126190Y-116735771D01*
X80126190Y-116735771D02*
X80269047Y-116735771D01*
X80269047Y-116735771D02*
X80364285Y-116783390D01*
X80364285Y-116783390D02*
X80411904Y-116831009D01*
X80411904Y-116831009D02*
X80459523Y-116926247D01*
X80459523Y-116926247D02*
X80459523Y-117164342D01*
X80459523Y-117164342D02*
X80411904Y-117259580D01*
X80411904Y-117259580D02*
X80364285Y-117307200D01*
X80364285Y-117307200D02*
X80269047Y-117354819D01*
X80269047Y-117354819D02*
X79983333Y-117354819D01*
X79983333Y-117354819D02*
X79888095Y-117307200D01*
X79888095Y-117307200D02*
X79840476Y-117259580D01*
X123257142Y-131374819D02*
X122923809Y-130898628D01*
X122685714Y-131374819D02*
X122685714Y-130374819D01*
X122685714Y-130374819D02*
X123066666Y-130374819D01*
X123066666Y-130374819D02*
X123161904Y-130422438D01*
X123161904Y-130422438D02*
X123209523Y-130470057D01*
X123209523Y-130470057D02*
X123257142Y-130565295D01*
X123257142Y-130565295D02*
X123257142Y-130708152D01*
X123257142Y-130708152D02*
X123209523Y-130803390D01*
X123209523Y-130803390D02*
X123161904Y-130851009D01*
X123161904Y-130851009D02*
X123066666Y-130898628D01*
X123066666Y-130898628D02*
X122685714Y-130898628D01*
X123638095Y-130470057D02*
X123685714Y-130422438D01*
X123685714Y-130422438D02*
X123780952Y-130374819D01*
X123780952Y-130374819D02*
X124019047Y-130374819D01*
X124019047Y-130374819D02*
X124114285Y-130422438D01*
X124114285Y-130422438D02*
X124161904Y-130470057D01*
X124161904Y-130470057D02*
X124209523Y-130565295D01*
X124209523Y-130565295D02*
X124209523Y-130660533D01*
X124209523Y-130660533D02*
X124161904Y-130803390D01*
X124161904Y-130803390D02*
X123590476Y-131374819D01*
X123590476Y-131374819D02*
X124209523Y-131374819D01*
X125066666Y-130708152D02*
X125066666Y-131374819D01*
X124828571Y-130327200D02*
X124590476Y-131041485D01*
X124590476Y-131041485D02*
X125209523Y-131041485D01*
X111507142Y-126434819D02*
X111173809Y-125958628D01*
X110935714Y-126434819D02*
X110935714Y-125434819D01*
X110935714Y-125434819D02*
X111316666Y-125434819D01*
X111316666Y-125434819D02*
X111411904Y-125482438D01*
X111411904Y-125482438D02*
X111459523Y-125530057D01*
X111459523Y-125530057D02*
X111507142Y-125625295D01*
X111507142Y-125625295D02*
X111507142Y-125768152D01*
X111507142Y-125768152D02*
X111459523Y-125863390D01*
X111459523Y-125863390D02*
X111411904Y-125911009D01*
X111411904Y-125911009D02*
X111316666Y-125958628D01*
X111316666Y-125958628D02*
X110935714Y-125958628D01*
X111888095Y-125530057D02*
X111935714Y-125482438D01*
X111935714Y-125482438D02*
X112030952Y-125434819D01*
X112030952Y-125434819D02*
X112269047Y-125434819D01*
X112269047Y-125434819D02*
X112364285Y-125482438D01*
X112364285Y-125482438D02*
X112411904Y-125530057D01*
X112411904Y-125530057D02*
X112459523Y-125625295D01*
X112459523Y-125625295D02*
X112459523Y-125720533D01*
X112459523Y-125720533D02*
X112411904Y-125863390D01*
X112411904Y-125863390D02*
X111840476Y-126434819D01*
X111840476Y-126434819D02*
X112459523Y-126434819D01*
X113030952Y-125863390D02*
X112935714Y-125815771D01*
X112935714Y-125815771D02*
X112888095Y-125768152D01*
X112888095Y-125768152D02*
X112840476Y-125672914D01*
X112840476Y-125672914D02*
X112840476Y-125625295D01*
X112840476Y-125625295D02*
X112888095Y-125530057D01*
X112888095Y-125530057D02*
X112935714Y-125482438D01*
X112935714Y-125482438D02*
X113030952Y-125434819D01*
X113030952Y-125434819D02*
X113221428Y-125434819D01*
X113221428Y-125434819D02*
X113316666Y-125482438D01*
X113316666Y-125482438D02*
X113364285Y-125530057D01*
X113364285Y-125530057D02*
X113411904Y-125625295D01*
X113411904Y-125625295D02*
X113411904Y-125672914D01*
X113411904Y-125672914D02*
X113364285Y-125768152D01*
X113364285Y-125768152D02*
X113316666Y-125815771D01*
X113316666Y-125815771D02*
X113221428Y-125863390D01*
X113221428Y-125863390D02*
X113030952Y-125863390D01*
X113030952Y-125863390D02*
X112935714Y-125911009D01*
X112935714Y-125911009D02*
X112888095Y-125958628D01*
X112888095Y-125958628D02*
X112840476Y-126053866D01*
X112840476Y-126053866D02*
X112840476Y-126244342D01*
X112840476Y-126244342D02*
X112888095Y-126339580D01*
X112888095Y-126339580D02*
X112935714Y-126387200D01*
X112935714Y-126387200D02*
X113030952Y-126434819D01*
X113030952Y-126434819D02*
X113221428Y-126434819D01*
X113221428Y-126434819D02*
X113316666Y-126387200D01*
X113316666Y-126387200D02*
X113364285Y-126339580D01*
X113364285Y-126339580D02*
X113411904Y-126244342D01*
X113411904Y-126244342D02*
X113411904Y-126053866D01*
X113411904Y-126053866D02*
X113364285Y-125958628D01*
X113364285Y-125958628D02*
X113316666Y-125911009D01*
X113316666Y-125911009D02*
X113221428Y-125863390D01*
X116417319Y-102061904D02*
X117226842Y-102061904D01*
X117226842Y-102061904D02*
X117322080Y-102014285D01*
X117322080Y-102014285D02*
X117369700Y-101966666D01*
X117369700Y-101966666D02*
X117417319Y-101871428D01*
X117417319Y-101871428D02*
X117417319Y-101680952D01*
X117417319Y-101680952D02*
X117369700Y-101585714D01*
X117369700Y-101585714D02*
X117322080Y-101538095D01*
X117322080Y-101538095D02*
X117226842Y-101490476D01*
X117226842Y-101490476D02*
X116417319Y-101490476D01*
X116417319Y-100538095D02*
X116417319Y-101014285D01*
X116417319Y-101014285D02*
X116893509Y-101061904D01*
X116893509Y-101061904D02*
X116845890Y-101014285D01*
X116845890Y-101014285D02*
X116798271Y-100919047D01*
X116798271Y-100919047D02*
X116798271Y-100680952D01*
X116798271Y-100680952D02*
X116845890Y-100585714D01*
X116845890Y-100585714D02*
X116893509Y-100538095D01*
X116893509Y-100538095D02*
X116988747Y-100490476D01*
X116988747Y-100490476D02*
X117226842Y-100490476D01*
X117226842Y-100490476D02*
X117322080Y-100538095D01*
X117322080Y-100538095D02*
X117369700Y-100585714D01*
X117369700Y-100585714D02*
X117417319Y-100680952D01*
X117417319Y-100680952D02*
X117417319Y-100919047D01*
X117417319Y-100919047D02*
X117369700Y-101014285D01*
X117369700Y-101014285D02*
X117322080Y-101061904D01*
X62283333Y-125024819D02*
X61950000Y-124548628D01*
X61711905Y-125024819D02*
X61711905Y-124024819D01*
X61711905Y-124024819D02*
X62092857Y-124024819D01*
X62092857Y-124024819D02*
X62188095Y-124072438D01*
X62188095Y-124072438D02*
X62235714Y-124120057D01*
X62235714Y-124120057D02*
X62283333Y-124215295D01*
X62283333Y-124215295D02*
X62283333Y-124358152D01*
X62283333Y-124358152D02*
X62235714Y-124453390D01*
X62235714Y-124453390D02*
X62188095Y-124501009D01*
X62188095Y-124501009D02*
X62092857Y-124548628D01*
X62092857Y-124548628D02*
X61711905Y-124548628D01*
X63188095Y-124024819D02*
X62711905Y-124024819D01*
X62711905Y-124024819D02*
X62664286Y-124501009D01*
X62664286Y-124501009D02*
X62711905Y-124453390D01*
X62711905Y-124453390D02*
X62807143Y-124405771D01*
X62807143Y-124405771D02*
X63045238Y-124405771D01*
X63045238Y-124405771D02*
X63140476Y-124453390D01*
X63140476Y-124453390D02*
X63188095Y-124501009D01*
X63188095Y-124501009D02*
X63235714Y-124596247D01*
X63235714Y-124596247D02*
X63235714Y-124834342D01*
X63235714Y-124834342D02*
X63188095Y-124929580D01*
X63188095Y-124929580D02*
X63140476Y-124977200D01*
X63140476Y-124977200D02*
X63045238Y-125024819D01*
X63045238Y-125024819D02*
X62807143Y-125024819D01*
X62807143Y-125024819D02*
X62711905Y-124977200D01*
X62711905Y-124977200D02*
X62664286Y-124929580D01*
X112574819Y-138492857D02*
X112098628Y-138826190D01*
X112574819Y-139064285D02*
X111574819Y-139064285D01*
X111574819Y-139064285D02*
X111574819Y-138683333D01*
X111574819Y-138683333D02*
X111622438Y-138588095D01*
X111622438Y-138588095D02*
X111670057Y-138540476D01*
X111670057Y-138540476D02*
X111765295Y-138492857D01*
X111765295Y-138492857D02*
X111908152Y-138492857D01*
X111908152Y-138492857D02*
X112003390Y-138540476D01*
X112003390Y-138540476D02*
X112051009Y-138588095D01*
X112051009Y-138588095D02*
X112098628Y-138683333D01*
X112098628Y-138683333D02*
X112098628Y-139064285D01*
X111670057Y-138111904D02*
X111622438Y-138064285D01*
X111622438Y-138064285D02*
X111574819Y-137969047D01*
X111574819Y-137969047D02*
X111574819Y-137730952D01*
X111574819Y-137730952D02*
X111622438Y-137635714D01*
X111622438Y-137635714D02*
X111670057Y-137588095D01*
X111670057Y-137588095D02*
X111765295Y-137540476D01*
X111765295Y-137540476D02*
X111860533Y-137540476D01*
X111860533Y-137540476D02*
X112003390Y-137588095D01*
X112003390Y-137588095D02*
X112574819Y-138159523D01*
X112574819Y-138159523D02*
X112574819Y-137540476D01*
X111670057Y-137159523D02*
X111622438Y-137111904D01*
X111622438Y-137111904D02*
X111574819Y-137016666D01*
X111574819Y-137016666D02*
X111574819Y-136778571D01*
X111574819Y-136778571D02*
X111622438Y-136683333D01*
X111622438Y-136683333D02*
X111670057Y-136635714D01*
X111670057Y-136635714D02*
X111765295Y-136588095D01*
X111765295Y-136588095D02*
X111860533Y-136588095D01*
X111860533Y-136588095D02*
X112003390Y-136635714D01*
X112003390Y-136635714D02*
X112574819Y-137207142D01*
X112574819Y-137207142D02*
X112574819Y-136588095D01*
X75933333Y-117924819D02*
X75600000Y-117448628D01*
X75361905Y-117924819D02*
X75361905Y-116924819D01*
X75361905Y-116924819D02*
X75742857Y-116924819D01*
X75742857Y-116924819D02*
X75838095Y-116972438D01*
X75838095Y-116972438D02*
X75885714Y-117020057D01*
X75885714Y-117020057D02*
X75933333Y-117115295D01*
X75933333Y-117115295D02*
X75933333Y-117258152D01*
X75933333Y-117258152D02*
X75885714Y-117353390D01*
X75885714Y-117353390D02*
X75838095Y-117401009D01*
X75838095Y-117401009D02*
X75742857Y-117448628D01*
X75742857Y-117448628D02*
X75361905Y-117448628D01*
X76409524Y-117924819D02*
X76600000Y-117924819D01*
X76600000Y-117924819D02*
X76695238Y-117877200D01*
X76695238Y-117877200D02*
X76742857Y-117829580D01*
X76742857Y-117829580D02*
X76838095Y-117686723D01*
X76838095Y-117686723D02*
X76885714Y-117496247D01*
X76885714Y-117496247D02*
X76885714Y-117115295D01*
X76885714Y-117115295D02*
X76838095Y-117020057D01*
X76838095Y-117020057D02*
X76790476Y-116972438D01*
X76790476Y-116972438D02*
X76695238Y-116924819D01*
X76695238Y-116924819D02*
X76504762Y-116924819D01*
X76504762Y-116924819D02*
X76409524Y-116972438D01*
X76409524Y-116972438D02*
X76361905Y-117020057D01*
X76361905Y-117020057D02*
X76314286Y-117115295D01*
X76314286Y-117115295D02*
X76314286Y-117353390D01*
X76314286Y-117353390D02*
X76361905Y-117448628D01*
X76361905Y-117448628D02*
X76409524Y-117496247D01*
X76409524Y-117496247D02*
X76504762Y-117543866D01*
X76504762Y-117543866D02*
X76695238Y-117543866D01*
X76695238Y-117543866D02*
X76790476Y-117496247D01*
X76790476Y-117496247D02*
X76838095Y-117448628D01*
X76838095Y-117448628D02*
X76885714Y-117353390D01*
X136240476Y-62924819D02*
X136240476Y-63639104D01*
X136240476Y-63639104D02*
X136192857Y-63781961D01*
X136192857Y-63781961D02*
X136097619Y-63877200D01*
X136097619Y-63877200D02*
X135954762Y-63924819D01*
X135954762Y-63924819D02*
X135859524Y-63924819D01*
X137240476Y-63924819D02*
X136669048Y-63924819D01*
X136954762Y-63924819D02*
X136954762Y-62924819D01*
X136954762Y-62924819D02*
X136859524Y-63067676D01*
X136859524Y-63067676D02*
X136764286Y-63162914D01*
X136764286Y-63162914D02*
X136669048Y-63210533D01*
X137573810Y-62924819D02*
X138240476Y-62924819D01*
X138240476Y-62924819D02*
X137811905Y-63924819D01*
X103634819Y-105092857D02*
X103158628Y-105426190D01*
X103634819Y-105664285D02*
X102634819Y-105664285D01*
X102634819Y-105664285D02*
X102634819Y-105283333D01*
X102634819Y-105283333D02*
X102682438Y-105188095D01*
X102682438Y-105188095D02*
X102730057Y-105140476D01*
X102730057Y-105140476D02*
X102825295Y-105092857D01*
X102825295Y-105092857D02*
X102968152Y-105092857D01*
X102968152Y-105092857D02*
X103063390Y-105140476D01*
X103063390Y-105140476D02*
X103111009Y-105188095D01*
X103111009Y-105188095D02*
X103158628Y-105283333D01*
X103158628Y-105283333D02*
X103158628Y-105664285D01*
X103634819Y-104140476D02*
X103634819Y-104711904D01*
X103634819Y-104426190D02*
X102634819Y-104426190D01*
X102634819Y-104426190D02*
X102777676Y-104521428D01*
X102777676Y-104521428D02*
X102872914Y-104616666D01*
X102872914Y-104616666D02*
X102920533Y-104711904D01*
X102634819Y-103807142D02*
X102634819Y-103188095D01*
X102634819Y-103188095D02*
X103015771Y-103521428D01*
X103015771Y-103521428D02*
X103015771Y-103378571D01*
X103015771Y-103378571D02*
X103063390Y-103283333D01*
X103063390Y-103283333D02*
X103111009Y-103235714D01*
X103111009Y-103235714D02*
X103206247Y-103188095D01*
X103206247Y-103188095D02*
X103444342Y-103188095D01*
X103444342Y-103188095D02*
X103539580Y-103235714D01*
X103539580Y-103235714D02*
X103587200Y-103283333D01*
X103587200Y-103283333D02*
X103634819Y-103378571D01*
X103634819Y-103378571D02*
X103634819Y-103664285D01*
X103634819Y-103664285D02*
X103587200Y-103759523D01*
X103587200Y-103759523D02*
X103539580Y-103807142D01*
X96727142Y-75489580D02*
X96679523Y-75537200D01*
X96679523Y-75537200D02*
X96536666Y-75584819D01*
X96536666Y-75584819D02*
X96441428Y-75584819D01*
X96441428Y-75584819D02*
X96298571Y-75537200D01*
X96298571Y-75537200D02*
X96203333Y-75441961D01*
X96203333Y-75441961D02*
X96155714Y-75346723D01*
X96155714Y-75346723D02*
X96108095Y-75156247D01*
X96108095Y-75156247D02*
X96108095Y-75013390D01*
X96108095Y-75013390D02*
X96155714Y-74822914D01*
X96155714Y-74822914D02*
X96203333Y-74727676D01*
X96203333Y-74727676D02*
X96298571Y-74632438D01*
X96298571Y-74632438D02*
X96441428Y-74584819D01*
X96441428Y-74584819D02*
X96536666Y-74584819D01*
X96536666Y-74584819D02*
X96679523Y-74632438D01*
X96679523Y-74632438D02*
X96727142Y-74680057D01*
X97108095Y-74680057D02*
X97155714Y-74632438D01*
X97155714Y-74632438D02*
X97250952Y-74584819D01*
X97250952Y-74584819D02*
X97489047Y-74584819D01*
X97489047Y-74584819D02*
X97584285Y-74632438D01*
X97584285Y-74632438D02*
X97631904Y-74680057D01*
X97631904Y-74680057D02*
X97679523Y-74775295D01*
X97679523Y-74775295D02*
X97679523Y-74870533D01*
X97679523Y-74870533D02*
X97631904Y-75013390D01*
X97631904Y-75013390D02*
X97060476Y-75584819D01*
X97060476Y-75584819D02*
X97679523Y-75584819D01*
X98155714Y-75584819D02*
X98346190Y-75584819D01*
X98346190Y-75584819D02*
X98441428Y-75537200D01*
X98441428Y-75537200D02*
X98489047Y-75489580D01*
X98489047Y-75489580D02*
X98584285Y-75346723D01*
X98584285Y-75346723D02*
X98631904Y-75156247D01*
X98631904Y-75156247D02*
X98631904Y-74775295D01*
X98631904Y-74775295D02*
X98584285Y-74680057D01*
X98584285Y-74680057D02*
X98536666Y-74632438D01*
X98536666Y-74632438D02*
X98441428Y-74584819D01*
X98441428Y-74584819D02*
X98250952Y-74584819D01*
X98250952Y-74584819D02*
X98155714Y-74632438D01*
X98155714Y-74632438D02*
X98108095Y-74680057D01*
X98108095Y-74680057D02*
X98060476Y-74775295D01*
X98060476Y-74775295D02*
X98060476Y-75013390D01*
X98060476Y-75013390D02*
X98108095Y-75108628D01*
X98108095Y-75108628D02*
X98155714Y-75156247D01*
X98155714Y-75156247D02*
X98250952Y-75203866D01*
X98250952Y-75203866D02*
X98441428Y-75203866D01*
X98441428Y-75203866D02*
X98536666Y-75156247D01*
X98536666Y-75156247D02*
X98584285Y-75108628D01*
X98584285Y-75108628D02*
X98631904Y-75013390D01*
X55829580Y-79292857D02*
X55877200Y-79340476D01*
X55877200Y-79340476D02*
X55924819Y-79483333D01*
X55924819Y-79483333D02*
X55924819Y-79578571D01*
X55924819Y-79578571D02*
X55877200Y-79721428D01*
X55877200Y-79721428D02*
X55781961Y-79816666D01*
X55781961Y-79816666D02*
X55686723Y-79864285D01*
X55686723Y-79864285D02*
X55496247Y-79911904D01*
X55496247Y-79911904D02*
X55353390Y-79911904D01*
X55353390Y-79911904D02*
X55162914Y-79864285D01*
X55162914Y-79864285D02*
X55067676Y-79816666D01*
X55067676Y-79816666D02*
X54972438Y-79721428D01*
X54972438Y-79721428D02*
X54924819Y-79578571D01*
X54924819Y-79578571D02*
X54924819Y-79483333D01*
X54924819Y-79483333D02*
X54972438Y-79340476D01*
X54972438Y-79340476D02*
X55020057Y-79292857D01*
X55924819Y-78340476D02*
X55924819Y-78911904D01*
X55924819Y-78626190D02*
X54924819Y-78626190D01*
X54924819Y-78626190D02*
X55067676Y-78721428D01*
X55067676Y-78721428D02*
X55162914Y-78816666D01*
X55162914Y-78816666D02*
X55210533Y-78911904D01*
X54924819Y-77435714D02*
X54924819Y-77911904D01*
X54924819Y-77911904D02*
X55401009Y-77959523D01*
X55401009Y-77959523D02*
X55353390Y-77911904D01*
X55353390Y-77911904D02*
X55305771Y-77816666D01*
X55305771Y-77816666D02*
X55305771Y-77578571D01*
X55305771Y-77578571D02*
X55353390Y-77483333D01*
X55353390Y-77483333D02*
X55401009Y-77435714D01*
X55401009Y-77435714D02*
X55496247Y-77388095D01*
X55496247Y-77388095D02*
X55734342Y-77388095D01*
X55734342Y-77388095D02*
X55829580Y-77435714D01*
X55829580Y-77435714D02*
X55877200Y-77483333D01*
X55877200Y-77483333D02*
X55924819Y-77578571D01*
X55924819Y-77578571D02*
X55924819Y-77816666D01*
X55924819Y-77816666D02*
X55877200Y-77911904D01*
X55877200Y-77911904D02*
X55829580Y-77959523D01*
X52666666Y-142304819D02*
X52333333Y-141828628D01*
X52095238Y-142304819D02*
X52095238Y-141304819D01*
X52095238Y-141304819D02*
X52476190Y-141304819D01*
X52476190Y-141304819D02*
X52571428Y-141352438D01*
X52571428Y-141352438D02*
X52619047Y-141400057D01*
X52619047Y-141400057D02*
X52666666Y-141495295D01*
X52666666Y-141495295D02*
X52666666Y-141638152D01*
X52666666Y-141638152D02*
X52619047Y-141733390D01*
X52619047Y-141733390D02*
X52571428Y-141781009D01*
X52571428Y-141781009D02*
X52476190Y-141828628D01*
X52476190Y-141828628D02*
X52095238Y-141828628D01*
X53095238Y-141781009D02*
X53428571Y-141781009D01*
X53571428Y-142304819D02*
X53095238Y-142304819D01*
X53095238Y-142304819D02*
X53095238Y-141304819D01*
X53095238Y-141304819D02*
X53571428Y-141304819D01*
X54333333Y-141781009D02*
X54000000Y-141781009D01*
X54000000Y-142304819D02*
X54000000Y-141304819D01*
X54000000Y-141304819D02*
X54476190Y-141304819D01*
X55000000Y-141304819D02*
X55000000Y-141542914D01*
X54761905Y-141447676D02*
X55000000Y-141542914D01*
X55000000Y-141542914D02*
X55238095Y-141447676D01*
X54857143Y-141733390D02*
X55000000Y-141542914D01*
X55000000Y-141542914D02*
X55142857Y-141733390D01*
X55761905Y-141304819D02*
X55761905Y-141542914D01*
X55523810Y-141447676D02*
X55761905Y-141542914D01*
X55761905Y-141542914D02*
X56000000Y-141447676D01*
X55619048Y-141733390D02*
X55761905Y-141542914D01*
X55761905Y-141542914D02*
X55904762Y-141733390D01*
X111239580Y-141616666D02*
X111287200Y-141664285D01*
X111287200Y-141664285D02*
X111334819Y-141807142D01*
X111334819Y-141807142D02*
X111334819Y-141902380D01*
X111334819Y-141902380D02*
X111287200Y-142045237D01*
X111287200Y-142045237D02*
X111191961Y-142140475D01*
X111191961Y-142140475D02*
X111096723Y-142188094D01*
X111096723Y-142188094D02*
X110906247Y-142235713D01*
X110906247Y-142235713D02*
X110763390Y-142235713D01*
X110763390Y-142235713D02*
X110572914Y-142188094D01*
X110572914Y-142188094D02*
X110477676Y-142140475D01*
X110477676Y-142140475D02*
X110382438Y-142045237D01*
X110382438Y-142045237D02*
X110334819Y-141902380D01*
X110334819Y-141902380D02*
X110334819Y-141807142D01*
X110334819Y-141807142D02*
X110382438Y-141664285D01*
X110382438Y-141664285D02*
X110430057Y-141616666D01*
X110334819Y-140759523D02*
X110334819Y-140949999D01*
X110334819Y-140949999D02*
X110382438Y-141045237D01*
X110382438Y-141045237D02*
X110430057Y-141092856D01*
X110430057Y-141092856D02*
X110572914Y-141188094D01*
X110572914Y-141188094D02*
X110763390Y-141235713D01*
X110763390Y-141235713D02*
X111144342Y-141235713D01*
X111144342Y-141235713D02*
X111239580Y-141188094D01*
X111239580Y-141188094D02*
X111287200Y-141140475D01*
X111287200Y-141140475D02*
X111334819Y-141045237D01*
X111334819Y-141045237D02*
X111334819Y-140854761D01*
X111334819Y-140854761D02*
X111287200Y-140759523D01*
X111287200Y-140759523D02*
X111239580Y-140711904D01*
X111239580Y-140711904D02*
X111144342Y-140664285D01*
X111144342Y-140664285D02*
X110906247Y-140664285D01*
X110906247Y-140664285D02*
X110811009Y-140711904D01*
X110811009Y-140711904D02*
X110763390Y-140759523D01*
X110763390Y-140759523D02*
X110715771Y-140854761D01*
X110715771Y-140854761D02*
X110715771Y-141045237D01*
X110715771Y-141045237D02*
X110763390Y-141140475D01*
X110763390Y-141140475D02*
X110811009Y-141188094D01*
X110811009Y-141188094D02*
X110906247Y-141235713D01*
X98634819Y-120442857D02*
X98158628Y-120776190D01*
X98634819Y-121014285D02*
X97634819Y-121014285D01*
X97634819Y-121014285D02*
X97634819Y-120633333D01*
X97634819Y-120633333D02*
X97682438Y-120538095D01*
X97682438Y-120538095D02*
X97730057Y-120490476D01*
X97730057Y-120490476D02*
X97825295Y-120442857D01*
X97825295Y-120442857D02*
X97968152Y-120442857D01*
X97968152Y-120442857D02*
X98063390Y-120490476D01*
X98063390Y-120490476D02*
X98111009Y-120538095D01*
X98111009Y-120538095D02*
X98158628Y-120633333D01*
X98158628Y-120633333D02*
X98158628Y-121014285D01*
X97634819Y-120109523D02*
X97634819Y-119490476D01*
X97634819Y-119490476D02*
X98015771Y-119823809D01*
X98015771Y-119823809D02*
X98015771Y-119680952D01*
X98015771Y-119680952D02*
X98063390Y-119585714D01*
X98063390Y-119585714D02*
X98111009Y-119538095D01*
X98111009Y-119538095D02*
X98206247Y-119490476D01*
X98206247Y-119490476D02*
X98444342Y-119490476D01*
X98444342Y-119490476D02*
X98539580Y-119538095D01*
X98539580Y-119538095D02*
X98587200Y-119585714D01*
X98587200Y-119585714D02*
X98634819Y-119680952D01*
X98634819Y-119680952D02*
X98634819Y-119966666D01*
X98634819Y-119966666D02*
X98587200Y-120061904D01*
X98587200Y-120061904D02*
X98539580Y-120109523D01*
X97634819Y-118585714D02*
X97634819Y-119061904D01*
X97634819Y-119061904D02*
X98111009Y-119109523D01*
X98111009Y-119109523D02*
X98063390Y-119061904D01*
X98063390Y-119061904D02*
X98015771Y-118966666D01*
X98015771Y-118966666D02*
X98015771Y-118728571D01*
X98015771Y-118728571D02*
X98063390Y-118633333D01*
X98063390Y-118633333D02*
X98111009Y-118585714D01*
X98111009Y-118585714D02*
X98206247Y-118538095D01*
X98206247Y-118538095D02*
X98444342Y-118538095D01*
X98444342Y-118538095D02*
X98539580Y-118585714D01*
X98539580Y-118585714D02*
X98587200Y-118633333D01*
X98587200Y-118633333D02*
X98634819Y-118728571D01*
X98634819Y-118728571D02*
X98634819Y-118966666D01*
X98634819Y-118966666D02*
X98587200Y-119061904D01*
X98587200Y-119061904D02*
X98539580Y-119109523D01*
X132290476Y-140089819D02*
X132290476Y-140804104D01*
X132290476Y-140804104D02*
X132242857Y-140946961D01*
X132242857Y-140946961D02*
X132147619Y-141042200D01*
X132147619Y-141042200D02*
X132004762Y-141089819D01*
X132004762Y-141089819D02*
X131909524Y-141089819D01*
X133290476Y-141089819D02*
X132719048Y-141089819D01*
X133004762Y-141089819D02*
X133004762Y-140089819D01*
X133004762Y-140089819D02*
X132909524Y-140232676D01*
X132909524Y-140232676D02*
X132814286Y-140327914D01*
X132814286Y-140327914D02*
X132719048Y-140375533D01*
X134147619Y-140089819D02*
X133957143Y-140089819D01*
X133957143Y-140089819D02*
X133861905Y-140137438D01*
X133861905Y-140137438D02*
X133814286Y-140185057D01*
X133814286Y-140185057D02*
X133719048Y-140327914D01*
X133719048Y-140327914D02*
X133671429Y-140518390D01*
X133671429Y-140518390D02*
X133671429Y-140899342D01*
X133671429Y-140899342D02*
X133719048Y-140994580D01*
X133719048Y-140994580D02*
X133766667Y-141042200D01*
X133766667Y-141042200D02*
X133861905Y-141089819D01*
X133861905Y-141089819D02*
X134052381Y-141089819D01*
X134052381Y-141089819D02*
X134147619Y-141042200D01*
X134147619Y-141042200D02*
X134195238Y-140994580D01*
X134195238Y-140994580D02*
X134242857Y-140899342D01*
X134242857Y-140899342D02*
X134242857Y-140661247D01*
X134242857Y-140661247D02*
X134195238Y-140566009D01*
X134195238Y-140566009D02*
X134147619Y-140518390D01*
X134147619Y-140518390D02*
X134052381Y-140470771D01*
X134052381Y-140470771D02*
X133861905Y-140470771D01*
X133861905Y-140470771D02*
X133766667Y-140518390D01*
X133766667Y-140518390D02*
X133719048Y-140566009D01*
X133719048Y-140566009D02*
X133671429Y-140661247D01*
X132884819Y-139082857D02*
X132408628Y-139416190D01*
X132884819Y-139654285D02*
X131884819Y-139654285D01*
X131884819Y-139654285D02*
X131884819Y-139273333D01*
X131884819Y-139273333D02*
X131932438Y-139178095D01*
X131932438Y-139178095D02*
X131980057Y-139130476D01*
X131980057Y-139130476D02*
X132075295Y-139082857D01*
X132075295Y-139082857D02*
X132218152Y-139082857D01*
X132218152Y-139082857D02*
X132313390Y-139130476D01*
X132313390Y-139130476D02*
X132361009Y-139178095D01*
X132361009Y-139178095D02*
X132408628Y-139273333D01*
X132408628Y-139273333D02*
X132408628Y-139654285D01*
X131980057Y-138701904D02*
X131932438Y-138654285D01*
X131932438Y-138654285D02*
X131884819Y-138559047D01*
X131884819Y-138559047D02*
X131884819Y-138320952D01*
X131884819Y-138320952D02*
X131932438Y-138225714D01*
X131932438Y-138225714D02*
X131980057Y-138178095D01*
X131980057Y-138178095D02*
X132075295Y-138130476D01*
X132075295Y-138130476D02*
X132170533Y-138130476D01*
X132170533Y-138130476D02*
X132313390Y-138178095D01*
X132313390Y-138178095D02*
X132884819Y-138749523D01*
X132884819Y-138749523D02*
X132884819Y-138130476D01*
X131884819Y-137273333D02*
X131884819Y-137463809D01*
X131884819Y-137463809D02*
X131932438Y-137559047D01*
X131932438Y-137559047D02*
X131980057Y-137606666D01*
X131980057Y-137606666D02*
X132122914Y-137701904D01*
X132122914Y-137701904D02*
X132313390Y-137749523D01*
X132313390Y-137749523D02*
X132694342Y-137749523D01*
X132694342Y-137749523D02*
X132789580Y-137701904D01*
X132789580Y-137701904D02*
X132837200Y-137654285D01*
X132837200Y-137654285D02*
X132884819Y-137559047D01*
X132884819Y-137559047D02*
X132884819Y-137368571D01*
X132884819Y-137368571D02*
X132837200Y-137273333D01*
X132837200Y-137273333D02*
X132789580Y-137225714D01*
X132789580Y-137225714D02*
X132694342Y-137178095D01*
X132694342Y-137178095D02*
X132456247Y-137178095D01*
X132456247Y-137178095D02*
X132361009Y-137225714D01*
X132361009Y-137225714D02*
X132313390Y-137273333D01*
X132313390Y-137273333D02*
X132265771Y-137368571D01*
X132265771Y-137368571D02*
X132265771Y-137559047D01*
X132265771Y-137559047D02*
X132313390Y-137654285D01*
X132313390Y-137654285D02*
X132361009Y-137701904D01*
X132361009Y-137701904D02*
X132456247Y-137749523D01*
X95257142Y-108824819D02*
X94923809Y-108348628D01*
X94685714Y-108824819D02*
X94685714Y-107824819D01*
X94685714Y-107824819D02*
X95066666Y-107824819D01*
X95066666Y-107824819D02*
X95161904Y-107872438D01*
X95161904Y-107872438D02*
X95209523Y-107920057D01*
X95209523Y-107920057D02*
X95257142Y-108015295D01*
X95257142Y-108015295D02*
X95257142Y-108158152D01*
X95257142Y-108158152D02*
X95209523Y-108253390D01*
X95209523Y-108253390D02*
X95161904Y-108301009D01*
X95161904Y-108301009D02*
X95066666Y-108348628D01*
X95066666Y-108348628D02*
X94685714Y-108348628D01*
X96209523Y-108824819D02*
X95638095Y-108824819D01*
X95923809Y-108824819D02*
X95923809Y-107824819D01*
X95923809Y-107824819D02*
X95828571Y-107967676D01*
X95828571Y-107967676D02*
X95733333Y-108062914D01*
X95733333Y-108062914D02*
X95638095Y-108110533D01*
X97066666Y-108158152D02*
X97066666Y-108824819D01*
X96828571Y-107777200D02*
X96590476Y-108491485D01*
X96590476Y-108491485D02*
X97209523Y-108491485D01*
X85574819Y-124142857D02*
X85098628Y-124476190D01*
X85574819Y-124714285D02*
X84574819Y-124714285D01*
X84574819Y-124714285D02*
X84574819Y-124333333D01*
X84574819Y-124333333D02*
X84622438Y-124238095D01*
X84622438Y-124238095D02*
X84670057Y-124190476D01*
X84670057Y-124190476D02*
X84765295Y-124142857D01*
X84765295Y-124142857D02*
X84908152Y-124142857D01*
X84908152Y-124142857D02*
X85003390Y-124190476D01*
X85003390Y-124190476D02*
X85051009Y-124238095D01*
X85051009Y-124238095D02*
X85098628Y-124333333D01*
X85098628Y-124333333D02*
X85098628Y-124714285D01*
X84670057Y-123761904D02*
X84622438Y-123714285D01*
X84622438Y-123714285D02*
X84574819Y-123619047D01*
X84574819Y-123619047D02*
X84574819Y-123380952D01*
X84574819Y-123380952D02*
X84622438Y-123285714D01*
X84622438Y-123285714D02*
X84670057Y-123238095D01*
X84670057Y-123238095D02*
X84765295Y-123190476D01*
X84765295Y-123190476D02*
X84860533Y-123190476D01*
X84860533Y-123190476D02*
X85003390Y-123238095D01*
X85003390Y-123238095D02*
X85574819Y-123809523D01*
X85574819Y-123809523D02*
X85574819Y-123190476D01*
X84574819Y-122857142D02*
X84574819Y-122238095D01*
X84574819Y-122238095D02*
X84955771Y-122571428D01*
X84955771Y-122571428D02*
X84955771Y-122428571D01*
X84955771Y-122428571D02*
X85003390Y-122333333D01*
X85003390Y-122333333D02*
X85051009Y-122285714D01*
X85051009Y-122285714D02*
X85146247Y-122238095D01*
X85146247Y-122238095D02*
X85384342Y-122238095D01*
X85384342Y-122238095D02*
X85479580Y-122285714D01*
X85479580Y-122285714D02*
X85527200Y-122333333D01*
X85527200Y-122333333D02*
X85574819Y-122428571D01*
X85574819Y-122428571D02*
X85574819Y-122714285D01*
X85574819Y-122714285D02*
X85527200Y-122809523D01*
X85527200Y-122809523D02*
X85479580Y-122857142D01*
X83283333Y-138524819D02*
X82950000Y-138048628D01*
X82711905Y-138524819D02*
X82711905Y-137524819D01*
X82711905Y-137524819D02*
X83092857Y-137524819D01*
X83092857Y-137524819D02*
X83188095Y-137572438D01*
X83188095Y-137572438D02*
X83235714Y-137620057D01*
X83235714Y-137620057D02*
X83283333Y-137715295D01*
X83283333Y-137715295D02*
X83283333Y-137858152D01*
X83283333Y-137858152D02*
X83235714Y-137953390D01*
X83235714Y-137953390D02*
X83188095Y-138001009D01*
X83188095Y-138001009D02*
X83092857Y-138048628D01*
X83092857Y-138048628D02*
X82711905Y-138048628D01*
X83616667Y-137524819D02*
X84235714Y-137524819D01*
X84235714Y-137524819D02*
X83902381Y-137905771D01*
X83902381Y-137905771D02*
X84045238Y-137905771D01*
X84045238Y-137905771D02*
X84140476Y-137953390D01*
X84140476Y-137953390D02*
X84188095Y-138001009D01*
X84188095Y-138001009D02*
X84235714Y-138096247D01*
X84235714Y-138096247D02*
X84235714Y-138334342D01*
X84235714Y-138334342D02*
X84188095Y-138429580D01*
X84188095Y-138429580D02*
X84140476Y-138477200D01*
X84140476Y-138477200D02*
X84045238Y-138524819D01*
X84045238Y-138524819D02*
X83759524Y-138524819D01*
X83759524Y-138524819D02*
X83664286Y-138477200D01*
X83664286Y-138477200D02*
X83616667Y-138429580D01*
X133858333Y-59984819D02*
X133525000Y-59508628D01*
X133286905Y-59984819D02*
X133286905Y-58984819D01*
X133286905Y-58984819D02*
X133667857Y-58984819D01*
X133667857Y-58984819D02*
X133763095Y-59032438D01*
X133763095Y-59032438D02*
X133810714Y-59080057D01*
X133810714Y-59080057D02*
X133858333Y-59175295D01*
X133858333Y-59175295D02*
X133858333Y-59318152D01*
X133858333Y-59318152D02*
X133810714Y-59413390D01*
X133810714Y-59413390D02*
X133763095Y-59461009D01*
X133763095Y-59461009D02*
X133667857Y-59508628D01*
X133667857Y-59508628D02*
X133286905Y-59508628D01*
X134810714Y-59984819D02*
X134239286Y-59984819D01*
X134525000Y-59984819D02*
X134525000Y-58984819D01*
X134525000Y-58984819D02*
X134429762Y-59127676D01*
X134429762Y-59127676D02*
X134334524Y-59222914D01*
X134334524Y-59222914D02*
X134239286Y-59270533D01*
X60939580Y-79192857D02*
X60987200Y-79240476D01*
X60987200Y-79240476D02*
X61034819Y-79383333D01*
X61034819Y-79383333D02*
X61034819Y-79478571D01*
X61034819Y-79478571D02*
X60987200Y-79621428D01*
X60987200Y-79621428D02*
X60891961Y-79716666D01*
X60891961Y-79716666D02*
X60796723Y-79764285D01*
X60796723Y-79764285D02*
X60606247Y-79811904D01*
X60606247Y-79811904D02*
X60463390Y-79811904D01*
X60463390Y-79811904D02*
X60272914Y-79764285D01*
X60272914Y-79764285D02*
X60177676Y-79716666D01*
X60177676Y-79716666D02*
X60082438Y-79621428D01*
X60082438Y-79621428D02*
X60034819Y-79478571D01*
X60034819Y-79478571D02*
X60034819Y-79383333D01*
X60034819Y-79383333D02*
X60082438Y-79240476D01*
X60082438Y-79240476D02*
X60130057Y-79192857D01*
X61034819Y-78240476D02*
X61034819Y-78811904D01*
X61034819Y-78526190D02*
X60034819Y-78526190D01*
X60034819Y-78526190D02*
X60177676Y-78621428D01*
X60177676Y-78621428D02*
X60272914Y-78716666D01*
X60272914Y-78716666D02*
X60320533Y-78811904D01*
X60034819Y-77383333D02*
X60034819Y-77573809D01*
X60034819Y-77573809D02*
X60082438Y-77669047D01*
X60082438Y-77669047D02*
X60130057Y-77716666D01*
X60130057Y-77716666D02*
X60272914Y-77811904D01*
X60272914Y-77811904D02*
X60463390Y-77859523D01*
X60463390Y-77859523D02*
X60844342Y-77859523D01*
X60844342Y-77859523D02*
X60939580Y-77811904D01*
X60939580Y-77811904D02*
X60987200Y-77764285D01*
X60987200Y-77764285D02*
X61034819Y-77669047D01*
X61034819Y-77669047D02*
X61034819Y-77478571D01*
X61034819Y-77478571D02*
X60987200Y-77383333D01*
X60987200Y-77383333D02*
X60939580Y-77335714D01*
X60939580Y-77335714D02*
X60844342Y-77288095D01*
X60844342Y-77288095D02*
X60606247Y-77288095D01*
X60606247Y-77288095D02*
X60511009Y-77335714D01*
X60511009Y-77335714D02*
X60463390Y-77383333D01*
X60463390Y-77383333D02*
X60415771Y-77478571D01*
X60415771Y-77478571D02*
X60415771Y-77669047D01*
X60415771Y-77669047D02*
X60463390Y-77764285D01*
X60463390Y-77764285D02*
X60511009Y-77811904D01*
X60511009Y-77811904D02*
X60606247Y-77859523D01*
X117807142Y-103679580D02*
X117759523Y-103727200D01*
X117759523Y-103727200D02*
X117616666Y-103774819D01*
X117616666Y-103774819D02*
X117521428Y-103774819D01*
X117521428Y-103774819D02*
X117378571Y-103727200D01*
X117378571Y-103727200D02*
X117283333Y-103631961D01*
X117283333Y-103631961D02*
X117235714Y-103536723D01*
X117235714Y-103536723D02*
X117188095Y-103346247D01*
X117188095Y-103346247D02*
X117188095Y-103203390D01*
X117188095Y-103203390D02*
X117235714Y-103012914D01*
X117235714Y-103012914D02*
X117283333Y-102917676D01*
X117283333Y-102917676D02*
X117378571Y-102822438D01*
X117378571Y-102822438D02*
X117521428Y-102774819D01*
X117521428Y-102774819D02*
X117616666Y-102774819D01*
X117616666Y-102774819D02*
X117759523Y-102822438D01*
X117759523Y-102822438D02*
X117807142Y-102870057D01*
X118759523Y-103774819D02*
X118188095Y-103774819D01*
X118473809Y-103774819D02*
X118473809Y-102774819D01*
X118473809Y-102774819D02*
X118378571Y-102917676D01*
X118378571Y-102917676D02*
X118283333Y-103012914D01*
X118283333Y-103012914D02*
X118188095Y-103060533D01*
X119235714Y-103774819D02*
X119426190Y-103774819D01*
X119426190Y-103774819D02*
X119521428Y-103727200D01*
X119521428Y-103727200D02*
X119569047Y-103679580D01*
X119569047Y-103679580D02*
X119664285Y-103536723D01*
X119664285Y-103536723D02*
X119711904Y-103346247D01*
X119711904Y-103346247D02*
X119711904Y-102965295D01*
X119711904Y-102965295D02*
X119664285Y-102870057D01*
X119664285Y-102870057D02*
X119616666Y-102822438D01*
X119616666Y-102822438D02*
X119521428Y-102774819D01*
X119521428Y-102774819D02*
X119330952Y-102774819D01*
X119330952Y-102774819D02*
X119235714Y-102822438D01*
X119235714Y-102822438D02*
X119188095Y-102870057D01*
X119188095Y-102870057D02*
X119140476Y-102965295D01*
X119140476Y-102965295D02*
X119140476Y-103203390D01*
X119140476Y-103203390D02*
X119188095Y-103298628D01*
X119188095Y-103298628D02*
X119235714Y-103346247D01*
X119235714Y-103346247D02*
X119330952Y-103393866D01*
X119330952Y-103393866D02*
X119521428Y-103393866D01*
X119521428Y-103393866D02*
X119616666Y-103346247D01*
X119616666Y-103346247D02*
X119664285Y-103298628D01*
X119664285Y-103298628D02*
X119711904Y-103203390D01*
X98504819Y-70611904D02*
X99314342Y-70611904D01*
X99314342Y-70611904D02*
X99409580Y-70564285D01*
X99409580Y-70564285D02*
X99457200Y-70516666D01*
X99457200Y-70516666D02*
X99504819Y-70421428D01*
X99504819Y-70421428D02*
X99504819Y-70230952D01*
X99504819Y-70230952D02*
X99457200Y-70135714D01*
X99457200Y-70135714D02*
X99409580Y-70088095D01*
X99409580Y-70088095D02*
X99314342Y-70040476D01*
X99314342Y-70040476D02*
X98504819Y-70040476D01*
X99504819Y-69516666D02*
X99504819Y-69326190D01*
X99504819Y-69326190D02*
X99457200Y-69230952D01*
X99457200Y-69230952D02*
X99409580Y-69183333D01*
X99409580Y-69183333D02*
X99266723Y-69088095D01*
X99266723Y-69088095D02*
X99076247Y-69040476D01*
X99076247Y-69040476D02*
X98695295Y-69040476D01*
X98695295Y-69040476D02*
X98600057Y-69088095D01*
X98600057Y-69088095D02*
X98552438Y-69135714D01*
X98552438Y-69135714D02*
X98504819Y-69230952D01*
X98504819Y-69230952D02*
X98504819Y-69421428D01*
X98504819Y-69421428D02*
X98552438Y-69516666D01*
X98552438Y-69516666D02*
X98600057Y-69564285D01*
X98600057Y-69564285D02*
X98695295Y-69611904D01*
X98695295Y-69611904D02*
X98933390Y-69611904D01*
X98933390Y-69611904D02*
X99028628Y-69564285D01*
X99028628Y-69564285D02*
X99076247Y-69516666D01*
X99076247Y-69516666D02*
X99123866Y-69421428D01*
X99123866Y-69421428D02*
X99123866Y-69230952D01*
X99123866Y-69230952D02*
X99076247Y-69135714D01*
X99076247Y-69135714D02*
X99028628Y-69088095D01*
X99028628Y-69088095D02*
X98933390Y-69040476D01*
X93819819Y-60964523D02*
X94534104Y-60964523D01*
X94534104Y-60964523D02*
X94676961Y-61012142D01*
X94676961Y-61012142D02*
X94772200Y-61107380D01*
X94772200Y-61107380D02*
X94819819Y-61250237D01*
X94819819Y-61250237D02*
X94819819Y-61345475D01*
X93915057Y-60535951D02*
X93867438Y-60488332D01*
X93867438Y-60488332D02*
X93819819Y-60393094D01*
X93819819Y-60393094D02*
X93819819Y-60154999D01*
X93819819Y-60154999D02*
X93867438Y-60059761D01*
X93867438Y-60059761D02*
X93915057Y-60012142D01*
X93915057Y-60012142D02*
X94010295Y-59964523D01*
X94010295Y-59964523D02*
X94105533Y-59964523D01*
X94105533Y-59964523D02*
X94248390Y-60012142D01*
X94248390Y-60012142D02*
X94819819Y-60583570D01*
X94819819Y-60583570D02*
X94819819Y-59964523D01*
X93819819Y-59345475D02*
X93819819Y-59250237D01*
X93819819Y-59250237D02*
X93867438Y-59154999D01*
X93867438Y-59154999D02*
X93915057Y-59107380D01*
X93915057Y-59107380D02*
X94010295Y-59059761D01*
X94010295Y-59059761D02*
X94200771Y-59012142D01*
X94200771Y-59012142D02*
X94438866Y-59012142D01*
X94438866Y-59012142D02*
X94629342Y-59059761D01*
X94629342Y-59059761D02*
X94724580Y-59107380D01*
X94724580Y-59107380D02*
X94772200Y-59154999D01*
X94772200Y-59154999D02*
X94819819Y-59250237D01*
X94819819Y-59250237D02*
X94819819Y-59345475D01*
X94819819Y-59345475D02*
X94772200Y-59440713D01*
X94772200Y-59440713D02*
X94724580Y-59488332D01*
X94724580Y-59488332D02*
X94629342Y-59535951D01*
X94629342Y-59535951D02*
X94438866Y-59583570D01*
X94438866Y-59583570D02*
X94200771Y-59583570D01*
X94200771Y-59583570D02*
X94010295Y-59535951D01*
X94010295Y-59535951D02*
X93915057Y-59488332D01*
X93915057Y-59488332D02*
X93867438Y-59440713D01*
X93867438Y-59440713D02*
X93819819Y-59345475D01*
X71957142Y-128824819D02*
X71623809Y-128348628D01*
X71385714Y-128824819D02*
X71385714Y-127824819D01*
X71385714Y-127824819D02*
X71766666Y-127824819D01*
X71766666Y-127824819D02*
X71861904Y-127872438D01*
X71861904Y-127872438D02*
X71909523Y-127920057D01*
X71909523Y-127920057D02*
X71957142Y-128015295D01*
X71957142Y-128015295D02*
X71957142Y-128158152D01*
X71957142Y-128158152D02*
X71909523Y-128253390D01*
X71909523Y-128253390D02*
X71861904Y-128301009D01*
X71861904Y-128301009D02*
X71766666Y-128348628D01*
X71766666Y-128348628D02*
X71385714Y-128348628D01*
X72909523Y-128824819D02*
X72338095Y-128824819D01*
X72623809Y-128824819D02*
X72623809Y-127824819D01*
X72623809Y-127824819D02*
X72528571Y-127967676D01*
X72528571Y-127967676D02*
X72433333Y-128062914D01*
X72433333Y-128062914D02*
X72338095Y-128110533D01*
X73528571Y-127824819D02*
X73623809Y-127824819D01*
X73623809Y-127824819D02*
X73719047Y-127872438D01*
X73719047Y-127872438D02*
X73766666Y-127920057D01*
X73766666Y-127920057D02*
X73814285Y-128015295D01*
X73814285Y-128015295D02*
X73861904Y-128205771D01*
X73861904Y-128205771D02*
X73861904Y-128443866D01*
X73861904Y-128443866D02*
X73814285Y-128634342D01*
X73814285Y-128634342D02*
X73766666Y-128729580D01*
X73766666Y-128729580D02*
X73719047Y-128777200D01*
X73719047Y-128777200D02*
X73623809Y-128824819D01*
X73623809Y-128824819D02*
X73528571Y-128824819D01*
X73528571Y-128824819D02*
X73433333Y-128777200D01*
X73433333Y-128777200D02*
X73385714Y-128729580D01*
X73385714Y-128729580D02*
X73338095Y-128634342D01*
X73338095Y-128634342D02*
X73290476Y-128443866D01*
X73290476Y-128443866D02*
X73290476Y-128205771D01*
X73290476Y-128205771D02*
X73338095Y-128015295D01*
X73338095Y-128015295D02*
X73385714Y-127920057D01*
X73385714Y-127920057D02*
X73433333Y-127872438D01*
X73433333Y-127872438D02*
X73528571Y-127824819D01*
X113957142Y-133984819D02*
X113623809Y-133508628D01*
X113385714Y-133984819D02*
X113385714Y-132984819D01*
X113385714Y-132984819D02*
X113766666Y-132984819D01*
X113766666Y-132984819D02*
X113861904Y-133032438D01*
X113861904Y-133032438D02*
X113909523Y-133080057D01*
X113909523Y-133080057D02*
X113957142Y-133175295D01*
X113957142Y-133175295D02*
X113957142Y-133318152D01*
X113957142Y-133318152D02*
X113909523Y-133413390D01*
X113909523Y-133413390D02*
X113861904Y-133461009D01*
X113861904Y-133461009D02*
X113766666Y-133508628D01*
X113766666Y-133508628D02*
X113385714Y-133508628D01*
X114338095Y-133080057D02*
X114385714Y-133032438D01*
X114385714Y-133032438D02*
X114480952Y-132984819D01*
X114480952Y-132984819D02*
X114719047Y-132984819D01*
X114719047Y-132984819D02*
X114814285Y-133032438D01*
X114814285Y-133032438D02*
X114861904Y-133080057D01*
X114861904Y-133080057D02*
X114909523Y-133175295D01*
X114909523Y-133175295D02*
X114909523Y-133270533D01*
X114909523Y-133270533D02*
X114861904Y-133413390D01*
X114861904Y-133413390D02*
X114290476Y-133984819D01*
X114290476Y-133984819D02*
X114909523Y-133984819D01*
X115861904Y-133984819D02*
X115290476Y-133984819D01*
X115576190Y-133984819D02*
X115576190Y-132984819D01*
X115576190Y-132984819D02*
X115480952Y-133127676D01*
X115480952Y-133127676D02*
X115385714Y-133222914D01*
X115385714Y-133222914D02*
X115290476Y-133270533D01*
X109370180Y-124838095D02*
X108560657Y-124838095D01*
X108560657Y-124838095D02*
X108465419Y-124885714D01*
X108465419Y-124885714D02*
X108417800Y-124933333D01*
X108417800Y-124933333D02*
X108370180Y-125028571D01*
X108370180Y-125028571D02*
X108370180Y-125219047D01*
X108370180Y-125219047D02*
X108417800Y-125314285D01*
X108417800Y-125314285D02*
X108465419Y-125361904D01*
X108465419Y-125361904D02*
X108560657Y-125409523D01*
X108560657Y-125409523D02*
X109370180Y-125409523D01*
X108941609Y-126028571D02*
X108989228Y-125933333D01*
X108989228Y-125933333D02*
X109036847Y-125885714D01*
X109036847Y-125885714D02*
X109132085Y-125838095D01*
X109132085Y-125838095D02*
X109179704Y-125838095D01*
X109179704Y-125838095D02*
X109274942Y-125885714D01*
X109274942Y-125885714D02*
X109322561Y-125933333D01*
X109322561Y-125933333D02*
X109370180Y-126028571D01*
X109370180Y-126028571D02*
X109370180Y-126219047D01*
X109370180Y-126219047D02*
X109322561Y-126314285D01*
X109322561Y-126314285D02*
X109274942Y-126361904D01*
X109274942Y-126361904D02*
X109179704Y-126409523D01*
X109179704Y-126409523D02*
X109132085Y-126409523D01*
X109132085Y-126409523D02*
X109036847Y-126361904D01*
X109036847Y-126361904D02*
X108989228Y-126314285D01*
X108989228Y-126314285D02*
X108941609Y-126219047D01*
X108941609Y-126219047D02*
X108941609Y-126028571D01*
X108941609Y-126028571D02*
X108893990Y-125933333D01*
X108893990Y-125933333D02*
X108846371Y-125885714D01*
X108846371Y-125885714D02*
X108751133Y-125838095D01*
X108751133Y-125838095D02*
X108560657Y-125838095D01*
X108560657Y-125838095D02*
X108465419Y-125885714D01*
X108465419Y-125885714D02*
X108417800Y-125933333D01*
X108417800Y-125933333D02*
X108370180Y-126028571D01*
X108370180Y-126028571D02*
X108370180Y-126219047D01*
X108370180Y-126219047D02*
X108417800Y-126314285D01*
X108417800Y-126314285D02*
X108465419Y-126361904D01*
X108465419Y-126361904D02*
X108560657Y-126409523D01*
X108560657Y-126409523D02*
X108751133Y-126409523D01*
X108751133Y-126409523D02*
X108846371Y-126361904D01*
X108846371Y-126361904D02*
X108893990Y-126314285D01*
X108893990Y-126314285D02*
X108941609Y-126219047D01*
X58934819Y-69792857D02*
X58458628Y-70126190D01*
X58934819Y-70364285D02*
X57934819Y-70364285D01*
X57934819Y-70364285D02*
X57934819Y-69983333D01*
X57934819Y-69983333D02*
X57982438Y-69888095D01*
X57982438Y-69888095D02*
X58030057Y-69840476D01*
X58030057Y-69840476D02*
X58125295Y-69792857D01*
X58125295Y-69792857D02*
X58268152Y-69792857D01*
X58268152Y-69792857D02*
X58363390Y-69840476D01*
X58363390Y-69840476D02*
X58411009Y-69888095D01*
X58411009Y-69888095D02*
X58458628Y-69983333D01*
X58458628Y-69983333D02*
X58458628Y-70364285D01*
X58934819Y-68840476D02*
X58934819Y-69411904D01*
X58934819Y-69126190D02*
X57934819Y-69126190D01*
X57934819Y-69126190D02*
X58077676Y-69221428D01*
X58077676Y-69221428D02*
X58172914Y-69316666D01*
X58172914Y-69316666D02*
X58220533Y-69411904D01*
X58934819Y-68364285D02*
X58934819Y-68173809D01*
X58934819Y-68173809D02*
X58887200Y-68078571D01*
X58887200Y-68078571D02*
X58839580Y-68030952D01*
X58839580Y-68030952D02*
X58696723Y-67935714D01*
X58696723Y-67935714D02*
X58506247Y-67888095D01*
X58506247Y-67888095D02*
X58125295Y-67888095D01*
X58125295Y-67888095D02*
X58030057Y-67935714D01*
X58030057Y-67935714D02*
X57982438Y-67983333D01*
X57982438Y-67983333D02*
X57934819Y-68078571D01*
X57934819Y-68078571D02*
X57934819Y-68269047D01*
X57934819Y-68269047D02*
X57982438Y-68364285D01*
X57982438Y-68364285D02*
X58030057Y-68411904D01*
X58030057Y-68411904D02*
X58125295Y-68459523D01*
X58125295Y-68459523D02*
X58363390Y-68459523D01*
X58363390Y-68459523D02*
X58458628Y-68411904D01*
X58458628Y-68411904D02*
X58506247Y-68364285D01*
X58506247Y-68364285D02*
X58553866Y-68269047D01*
X58553866Y-68269047D02*
X58553866Y-68078571D01*
X58553866Y-68078571D02*
X58506247Y-67983333D01*
X58506247Y-67983333D02*
X58458628Y-67935714D01*
X58458628Y-67935714D02*
X58363390Y-67888095D01*
X69166666Y-49999819D02*
X69166666Y-50714104D01*
X69166666Y-50714104D02*
X69119047Y-50856961D01*
X69119047Y-50856961D02*
X69023809Y-50952200D01*
X69023809Y-50952200D02*
X68880952Y-50999819D01*
X68880952Y-50999819D02*
X68785714Y-50999819D01*
X69785714Y-50428390D02*
X69690476Y-50380771D01*
X69690476Y-50380771D02*
X69642857Y-50333152D01*
X69642857Y-50333152D02*
X69595238Y-50237914D01*
X69595238Y-50237914D02*
X69595238Y-50190295D01*
X69595238Y-50190295D02*
X69642857Y-50095057D01*
X69642857Y-50095057D02*
X69690476Y-50047438D01*
X69690476Y-50047438D02*
X69785714Y-49999819D01*
X69785714Y-49999819D02*
X69976190Y-49999819D01*
X69976190Y-49999819D02*
X70071428Y-50047438D01*
X70071428Y-50047438D02*
X70119047Y-50095057D01*
X70119047Y-50095057D02*
X70166666Y-50190295D01*
X70166666Y-50190295D02*
X70166666Y-50237914D01*
X70166666Y-50237914D02*
X70119047Y-50333152D01*
X70119047Y-50333152D02*
X70071428Y-50380771D01*
X70071428Y-50380771D02*
X69976190Y-50428390D01*
X69976190Y-50428390D02*
X69785714Y-50428390D01*
X69785714Y-50428390D02*
X69690476Y-50476009D01*
X69690476Y-50476009D02*
X69642857Y-50523628D01*
X69642857Y-50523628D02*
X69595238Y-50618866D01*
X69595238Y-50618866D02*
X69595238Y-50809342D01*
X69595238Y-50809342D02*
X69642857Y-50904580D01*
X69642857Y-50904580D02*
X69690476Y-50952200D01*
X69690476Y-50952200D02*
X69785714Y-50999819D01*
X69785714Y-50999819D02*
X69976190Y-50999819D01*
X69976190Y-50999819D02*
X70071428Y-50952200D01*
X70071428Y-50952200D02*
X70119047Y-50904580D01*
X70119047Y-50904580D02*
X70166666Y-50809342D01*
X70166666Y-50809342D02*
X70166666Y-50618866D01*
X70166666Y-50618866D02*
X70119047Y-50523628D01*
X70119047Y-50523628D02*
X70071428Y-50476009D01*
X70071428Y-50476009D02*
X69976190Y-50428390D01*
X75534819Y-135617857D02*
X75058628Y-135951190D01*
X75534819Y-136189285D02*
X74534819Y-136189285D01*
X74534819Y-136189285D02*
X74534819Y-135808333D01*
X74534819Y-135808333D02*
X74582438Y-135713095D01*
X74582438Y-135713095D02*
X74630057Y-135665476D01*
X74630057Y-135665476D02*
X74725295Y-135617857D01*
X74725295Y-135617857D02*
X74868152Y-135617857D01*
X74868152Y-135617857D02*
X74963390Y-135665476D01*
X74963390Y-135665476D02*
X75011009Y-135713095D01*
X75011009Y-135713095D02*
X75058628Y-135808333D01*
X75058628Y-135808333D02*
X75058628Y-136189285D01*
X75534819Y-134665476D02*
X75534819Y-135236904D01*
X75534819Y-134951190D02*
X74534819Y-134951190D01*
X74534819Y-134951190D02*
X74677676Y-135046428D01*
X74677676Y-135046428D02*
X74772914Y-135141666D01*
X74772914Y-135141666D02*
X74820533Y-135236904D01*
X74630057Y-134284523D02*
X74582438Y-134236904D01*
X74582438Y-134236904D02*
X74534819Y-134141666D01*
X74534819Y-134141666D02*
X74534819Y-133903571D01*
X74534819Y-133903571D02*
X74582438Y-133808333D01*
X74582438Y-133808333D02*
X74630057Y-133760714D01*
X74630057Y-133760714D02*
X74725295Y-133713095D01*
X74725295Y-133713095D02*
X74820533Y-133713095D01*
X74820533Y-133713095D02*
X74963390Y-133760714D01*
X74963390Y-133760714D02*
X75534819Y-134332142D01*
X75534819Y-134332142D02*
X75534819Y-133713095D01*
X89339580Y-70642857D02*
X89387200Y-70690476D01*
X89387200Y-70690476D02*
X89434819Y-70833333D01*
X89434819Y-70833333D02*
X89434819Y-70928571D01*
X89434819Y-70928571D02*
X89387200Y-71071428D01*
X89387200Y-71071428D02*
X89291961Y-71166666D01*
X89291961Y-71166666D02*
X89196723Y-71214285D01*
X89196723Y-71214285D02*
X89006247Y-71261904D01*
X89006247Y-71261904D02*
X88863390Y-71261904D01*
X88863390Y-71261904D02*
X88672914Y-71214285D01*
X88672914Y-71214285D02*
X88577676Y-71166666D01*
X88577676Y-71166666D02*
X88482438Y-71071428D01*
X88482438Y-71071428D02*
X88434819Y-70928571D01*
X88434819Y-70928571D02*
X88434819Y-70833333D01*
X88434819Y-70833333D02*
X88482438Y-70690476D01*
X88482438Y-70690476D02*
X88530057Y-70642857D01*
X88530057Y-70261904D02*
X88482438Y-70214285D01*
X88482438Y-70214285D02*
X88434819Y-70119047D01*
X88434819Y-70119047D02*
X88434819Y-69880952D01*
X88434819Y-69880952D02*
X88482438Y-69785714D01*
X88482438Y-69785714D02*
X88530057Y-69738095D01*
X88530057Y-69738095D02*
X88625295Y-69690476D01*
X88625295Y-69690476D02*
X88720533Y-69690476D01*
X88720533Y-69690476D02*
X88863390Y-69738095D01*
X88863390Y-69738095D02*
X89434819Y-70309523D01*
X89434819Y-70309523D02*
X89434819Y-69690476D01*
X88863390Y-69119047D02*
X88815771Y-69214285D01*
X88815771Y-69214285D02*
X88768152Y-69261904D01*
X88768152Y-69261904D02*
X88672914Y-69309523D01*
X88672914Y-69309523D02*
X88625295Y-69309523D01*
X88625295Y-69309523D02*
X88530057Y-69261904D01*
X88530057Y-69261904D02*
X88482438Y-69214285D01*
X88482438Y-69214285D02*
X88434819Y-69119047D01*
X88434819Y-69119047D02*
X88434819Y-68928571D01*
X88434819Y-68928571D02*
X88482438Y-68833333D01*
X88482438Y-68833333D02*
X88530057Y-68785714D01*
X88530057Y-68785714D02*
X88625295Y-68738095D01*
X88625295Y-68738095D02*
X88672914Y-68738095D01*
X88672914Y-68738095D02*
X88768152Y-68785714D01*
X88768152Y-68785714D02*
X88815771Y-68833333D01*
X88815771Y-68833333D02*
X88863390Y-68928571D01*
X88863390Y-68928571D02*
X88863390Y-69119047D01*
X88863390Y-69119047D02*
X88911009Y-69214285D01*
X88911009Y-69214285D02*
X88958628Y-69261904D01*
X88958628Y-69261904D02*
X89053866Y-69309523D01*
X89053866Y-69309523D02*
X89244342Y-69309523D01*
X89244342Y-69309523D02*
X89339580Y-69261904D01*
X89339580Y-69261904D02*
X89387200Y-69214285D01*
X89387200Y-69214285D02*
X89434819Y-69119047D01*
X89434819Y-69119047D02*
X89434819Y-68928571D01*
X89434819Y-68928571D02*
X89387200Y-68833333D01*
X89387200Y-68833333D02*
X89339580Y-68785714D01*
X89339580Y-68785714D02*
X89244342Y-68738095D01*
X89244342Y-68738095D02*
X89053866Y-68738095D01*
X89053866Y-68738095D02*
X88958628Y-68785714D01*
X88958628Y-68785714D02*
X88911009Y-68833333D01*
X88911009Y-68833333D02*
X88863390Y-68928571D01*
X103907142Y-64454819D02*
X103573809Y-63978628D01*
X103335714Y-64454819D02*
X103335714Y-63454819D01*
X103335714Y-63454819D02*
X103716666Y-63454819D01*
X103716666Y-63454819D02*
X103811904Y-63502438D01*
X103811904Y-63502438D02*
X103859523Y-63550057D01*
X103859523Y-63550057D02*
X103907142Y-63645295D01*
X103907142Y-63645295D02*
X103907142Y-63788152D01*
X103907142Y-63788152D02*
X103859523Y-63883390D01*
X103859523Y-63883390D02*
X103811904Y-63931009D01*
X103811904Y-63931009D02*
X103716666Y-63978628D01*
X103716666Y-63978628D02*
X103335714Y-63978628D01*
X104240476Y-63454819D02*
X104859523Y-63454819D01*
X104859523Y-63454819D02*
X104526190Y-63835771D01*
X104526190Y-63835771D02*
X104669047Y-63835771D01*
X104669047Y-63835771D02*
X104764285Y-63883390D01*
X104764285Y-63883390D02*
X104811904Y-63931009D01*
X104811904Y-63931009D02*
X104859523Y-64026247D01*
X104859523Y-64026247D02*
X104859523Y-64264342D01*
X104859523Y-64264342D02*
X104811904Y-64359580D01*
X104811904Y-64359580D02*
X104764285Y-64407200D01*
X104764285Y-64407200D02*
X104669047Y-64454819D01*
X104669047Y-64454819D02*
X104383333Y-64454819D01*
X104383333Y-64454819D02*
X104288095Y-64407200D01*
X104288095Y-64407200D02*
X104240476Y-64359580D01*
X105192857Y-63454819D02*
X105859523Y-63454819D01*
X105859523Y-63454819D02*
X105430952Y-64454819D01*
X88189580Y-142692857D02*
X88237200Y-142740476D01*
X88237200Y-142740476D02*
X88284819Y-142883333D01*
X88284819Y-142883333D02*
X88284819Y-142978571D01*
X88284819Y-142978571D02*
X88237200Y-143121428D01*
X88237200Y-143121428D02*
X88141961Y-143216666D01*
X88141961Y-143216666D02*
X88046723Y-143264285D01*
X88046723Y-143264285D02*
X87856247Y-143311904D01*
X87856247Y-143311904D02*
X87713390Y-143311904D01*
X87713390Y-143311904D02*
X87522914Y-143264285D01*
X87522914Y-143264285D02*
X87427676Y-143216666D01*
X87427676Y-143216666D02*
X87332438Y-143121428D01*
X87332438Y-143121428D02*
X87284819Y-142978571D01*
X87284819Y-142978571D02*
X87284819Y-142883333D01*
X87284819Y-142883333D02*
X87332438Y-142740476D01*
X87332438Y-142740476D02*
X87380057Y-142692857D01*
X88284819Y-141740476D02*
X88284819Y-142311904D01*
X88284819Y-142026190D02*
X87284819Y-142026190D01*
X87284819Y-142026190D02*
X87427676Y-142121428D01*
X87427676Y-142121428D02*
X87522914Y-142216666D01*
X87522914Y-142216666D02*
X87570533Y-142311904D01*
X87284819Y-141407142D02*
X87284819Y-140740476D01*
X87284819Y-140740476D02*
X88284819Y-141169047D01*
X84679580Y-138492857D02*
X84727200Y-138540476D01*
X84727200Y-138540476D02*
X84774819Y-138683333D01*
X84774819Y-138683333D02*
X84774819Y-138778571D01*
X84774819Y-138778571D02*
X84727200Y-138921428D01*
X84727200Y-138921428D02*
X84631961Y-139016666D01*
X84631961Y-139016666D02*
X84536723Y-139064285D01*
X84536723Y-139064285D02*
X84346247Y-139111904D01*
X84346247Y-139111904D02*
X84203390Y-139111904D01*
X84203390Y-139111904D02*
X84012914Y-139064285D01*
X84012914Y-139064285D02*
X83917676Y-139016666D01*
X83917676Y-139016666D02*
X83822438Y-138921428D01*
X83822438Y-138921428D02*
X83774819Y-138778571D01*
X83774819Y-138778571D02*
X83774819Y-138683333D01*
X83774819Y-138683333D02*
X83822438Y-138540476D01*
X83822438Y-138540476D02*
X83870057Y-138492857D01*
X84774819Y-137540476D02*
X84774819Y-138111904D01*
X84774819Y-137826190D02*
X83774819Y-137826190D01*
X83774819Y-137826190D02*
X83917676Y-137921428D01*
X83917676Y-137921428D02*
X84012914Y-138016666D01*
X84012914Y-138016666D02*
X84060533Y-138111904D01*
X84203390Y-136969047D02*
X84155771Y-137064285D01*
X84155771Y-137064285D02*
X84108152Y-137111904D01*
X84108152Y-137111904D02*
X84012914Y-137159523D01*
X84012914Y-137159523D02*
X83965295Y-137159523D01*
X83965295Y-137159523D02*
X83870057Y-137111904D01*
X83870057Y-137111904D02*
X83822438Y-137064285D01*
X83822438Y-137064285D02*
X83774819Y-136969047D01*
X83774819Y-136969047D02*
X83774819Y-136778571D01*
X83774819Y-136778571D02*
X83822438Y-136683333D01*
X83822438Y-136683333D02*
X83870057Y-136635714D01*
X83870057Y-136635714D02*
X83965295Y-136588095D01*
X83965295Y-136588095D02*
X84012914Y-136588095D01*
X84012914Y-136588095D02*
X84108152Y-136635714D01*
X84108152Y-136635714D02*
X84155771Y-136683333D01*
X84155771Y-136683333D02*
X84203390Y-136778571D01*
X84203390Y-136778571D02*
X84203390Y-136969047D01*
X84203390Y-136969047D02*
X84251009Y-137064285D01*
X84251009Y-137064285D02*
X84298628Y-137111904D01*
X84298628Y-137111904D02*
X84393866Y-137159523D01*
X84393866Y-137159523D02*
X84584342Y-137159523D01*
X84584342Y-137159523D02*
X84679580Y-137111904D01*
X84679580Y-137111904D02*
X84727200Y-137064285D01*
X84727200Y-137064285D02*
X84774819Y-136969047D01*
X84774819Y-136969047D02*
X84774819Y-136778571D01*
X84774819Y-136778571D02*
X84727200Y-136683333D01*
X84727200Y-136683333D02*
X84679580Y-136635714D01*
X84679580Y-136635714D02*
X84584342Y-136588095D01*
X84584342Y-136588095D02*
X84393866Y-136588095D01*
X84393866Y-136588095D02*
X84298628Y-136635714D01*
X84298628Y-136635714D02*
X84251009Y-136683333D01*
X84251009Y-136683333D02*
X84203390Y-136778571D01*
X78711905Y-79604819D02*
X78711905Y-78604819D01*
X78711905Y-78604819D02*
X78950000Y-78604819D01*
X78950000Y-78604819D02*
X79092857Y-78652438D01*
X79092857Y-78652438D02*
X79188095Y-78747676D01*
X79188095Y-78747676D02*
X79235714Y-78842914D01*
X79235714Y-78842914D02*
X79283333Y-79033390D01*
X79283333Y-79033390D02*
X79283333Y-79176247D01*
X79283333Y-79176247D02*
X79235714Y-79366723D01*
X79235714Y-79366723D02*
X79188095Y-79461961D01*
X79188095Y-79461961D02*
X79092857Y-79557200D01*
X79092857Y-79557200D02*
X78950000Y-79604819D01*
X78950000Y-79604819D02*
X78711905Y-79604819D01*
X79759524Y-79604819D02*
X79950000Y-79604819D01*
X79950000Y-79604819D02*
X80045238Y-79557200D01*
X80045238Y-79557200D02*
X80092857Y-79509580D01*
X80092857Y-79509580D02*
X80188095Y-79366723D01*
X80188095Y-79366723D02*
X80235714Y-79176247D01*
X80235714Y-79176247D02*
X80235714Y-78795295D01*
X80235714Y-78795295D02*
X80188095Y-78700057D01*
X80188095Y-78700057D02*
X80140476Y-78652438D01*
X80140476Y-78652438D02*
X80045238Y-78604819D01*
X80045238Y-78604819D02*
X79854762Y-78604819D01*
X79854762Y-78604819D02*
X79759524Y-78652438D01*
X79759524Y-78652438D02*
X79711905Y-78700057D01*
X79711905Y-78700057D02*
X79664286Y-78795295D01*
X79664286Y-78795295D02*
X79664286Y-79033390D01*
X79664286Y-79033390D02*
X79711905Y-79128628D01*
X79711905Y-79128628D02*
X79759524Y-79176247D01*
X79759524Y-79176247D02*
X79854762Y-79223866D01*
X79854762Y-79223866D02*
X80045238Y-79223866D01*
X80045238Y-79223866D02*
X80140476Y-79176247D01*
X80140476Y-79176247D02*
X80188095Y-79128628D01*
X80188095Y-79128628D02*
X80235714Y-79033390D01*
X110129580Y-137916666D02*
X110177200Y-137964285D01*
X110177200Y-137964285D02*
X110224819Y-138107142D01*
X110224819Y-138107142D02*
X110224819Y-138202380D01*
X110224819Y-138202380D02*
X110177200Y-138345237D01*
X110177200Y-138345237D02*
X110081961Y-138440475D01*
X110081961Y-138440475D02*
X109986723Y-138488094D01*
X109986723Y-138488094D02*
X109796247Y-138535713D01*
X109796247Y-138535713D02*
X109653390Y-138535713D01*
X109653390Y-138535713D02*
X109462914Y-138488094D01*
X109462914Y-138488094D02*
X109367676Y-138440475D01*
X109367676Y-138440475D02*
X109272438Y-138345237D01*
X109272438Y-138345237D02*
X109224819Y-138202380D01*
X109224819Y-138202380D02*
X109224819Y-138107142D01*
X109224819Y-138107142D02*
X109272438Y-137964285D01*
X109272438Y-137964285D02*
X109320057Y-137916666D01*
X109653390Y-137345237D02*
X109605771Y-137440475D01*
X109605771Y-137440475D02*
X109558152Y-137488094D01*
X109558152Y-137488094D02*
X109462914Y-137535713D01*
X109462914Y-137535713D02*
X109415295Y-137535713D01*
X109415295Y-137535713D02*
X109320057Y-137488094D01*
X109320057Y-137488094D02*
X109272438Y-137440475D01*
X109272438Y-137440475D02*
X109224819Y-137345237D01*
X109224819Y-137345237D02*
X109224819Y-137154761D01*
X109224819Y-137154761D02*
X109272438Y-137059523D01*
X109272438Y-137059523D02*
X109320057Y-137011904D01*
X109320057Y-137011904D02*
X109415295Y-136964285D01*
X109415295Y-136964285D02*
X109462914Y-136964285D01*
X109462914Y-136964285D02*
X109558152Y-137011904D01*
X109558152Y-137011904D02*
X109605771Y-137059523D01*
X109605771Y-137059523D02*
X109653390Y-137154761D01*
X109653390Y-137154761D02*
X109653390Y-137345237D01*
X109653390Y-137345237D02*
X109701009Y-137440475D01*
X109701009Y-137440475D02*
X109748628Y-137488094D01*
X109748628Y-137488094D02*
X109843866Y-137535713D01*
X109843866Y-137535713D02*
X110034342Y-137535713D01*
X110034342Y-137535713D02*
X110129580Y-137488094D01*
X110129580Y-137488094D02*
X110177200Y-137440475D01*
X110177200Y-137440475D02*
X110224819Y-137345237D01*
X110224819Y-137345237D02*
X110224819Y-137154761D01*
X110224819Y-137154761D02*
X110177200Y-137059523D01*
X110177200Y-137059523D02*
X110129580Y-137011904D01*
X110129580Y-137011904D02*
X110034342Y-136964285D01*
X110034342Y-136964285D02*
X109843866Y-136964285D01*
X109843866Y-136964285D02*
X109748628Y-137011904D01*
X109748628Y-137011904D02*
X109701009Y-137059523D01*
X109701009Y-137059523D02*
X109653390Y-137154761D01*
X94357142Y-106279580D02*
X94309523Y-106327200D01*
X94309523Y-106327200D02*
X94166666Y-106374819D01*
X94166666Y-106374819D02*
X94071428Y-106374819D01*
X94071428Y-106374819D02*
X93928571Y-106327200D01*
X93928571Y-106327200D02*
X93833333Y-106231961D01*
X93833333Y-106231961D02*
X93785714Y-106136723D01*
X93785714Y-106136723D02*
X93738095Y-105946247D01*
X93738095Y-105946247D02*
X93738095Y-105803390D01*
X93738095Y-105803390D02*
X93785714Y-105612914D01*
X93785714Y-105612914D02*
X93833333Y-105517676D01*
X93833333Y-105517676D02*
X93928571Y-105422438D01*
X93928571Y-105422438D02*
X94071428Y-105374819D01*
X94071428Y-105374819D02*
X94166666Y-105374819D01*
X94166666Y-105374819D02*
X94309523Y-105422438D01*
X94309523Y-105422438D02*
X94357142Y-105470057D01*
X95309523Y-106374819D02*
X94738095Y-106374819D01*
X95023809Y-106374819D02*
X95023809Y-105374819D01*
X95023809Y-105374819D02*
X94928571Y-105517676D01*
X94928571Y-105517676D02*
X94833333Y-105612914D01*
X94833333Y-105612914D02*
X94738095Y-105660533D01*
X96166666Y-105708152D02*
X96166666Y-106374819D01*
X95928571Y-105327200D02*
X95690476Y-106041485D01*
X95690476Y-106041485D02*
X96309523Y-106041485D01*
X68583333Y-126324819D02*
X68250000Y-125848628D01*
X68011905Y-126324819D02*
X68011905Y-125324819D01*
X68011905Y-125324819D02*
X68392857Y-125324819D01*
X68392857Y-125324819D02*
X68488095Y-125372438D01*
X68488095Y-125372438D02*
X68535714Y-125420057D01*
X68535714Y-125420057D02*
X68583333Y-125515295D01*
X68583333Y-125515295D02*
X68583333Y-125658152D01*
X68583333Y-125658152D02*
X68535714Y-125753390D01*
X68535714Y-125753390D02*
X68488095Y-125801009D01*
X68488095Y-125801009D02*
X68392857Y-125848628D01*
X68392857Y-125848628D02*
X68011905Y-125848628D01*
X69440476Y-125324819D02*
X69250000Y-125324819D01*
X69250000Y-125324819D02*
X69154762Y-125372438D01*
X69154762Y-125372438D02*
X69107143Y-125420057D01*
X69107143Y-125420057D02*
X69011905Y-125562914D01*
X69011905Y-125562914D02*
X68964286Y-125753390D01*
X68964286Y-125753390D02*
X68964286Y-126134342D01*
X68964286Y-126134342D02*
X69011905Y-126229580D01*
X69011905Y-126229580D02*
X69059524Y-126277200D01*
X69059524Y-126277200D02*
X69154762Y-126324819D01*
X69154762Y-126324819D02*
X69345238Y-126324819D01*
X69345238Y-126324819D02*
X69440476Y-126277200D01*
X69440476Y-126277200D02*
X69488095Y-126229580D01*
X69488095Y-126229580D02*
X69535714Y-126134342D01*
X69535714Y-126134342D02*
X69535714Y-125896247D01*
X69535714Y-125896247D02*
X69488095Y-125801009D01*
X69488095Y-125801009D02*
X69440476Y-125753390D01*
X69440476Y-125753390D02*
X69345238Y-125705771D01*
X69345238Y-125705771D02*
X69154762Y-125705771D01*
X69154762Y-125705771D02*
X69059524Y-125753390D01*
X69059524Y-125753390D02*
X69011905Y-125801009D01*
X69011905Y-125801009D02*
X68964286Y-125896247D01*
X70833333Y-127489580D02*
X70785714Y-127537200D01*
X70785714Y-127537200D02*
X70642857Y-127584819D01*
X70642857Y-127584819D02*
X70547619Y-127584819D01*
X70547619Y-127584819D02*
X70404762Y-127537200D01*
X70404762Y-127537200D02*
X70309524Y-127441961D01*
X70309524Y-127441961D02*
X70261905Y-127346723D01*
X70261905Y-127346723D02*
X70214286Y-127156247D01*
X70214286Y-127156247D02*
X70214286Y-127013390D01*
X70214286Y-127013390D02*
X70261905Y-126822914D01*
X70261905Y-126822914D02*
X70309524Y-126727676D01*
X70309524Y-126727676D02*
X70404762Y-126632438D01*
X70404762Y-126632438D02*
X70547619Y-126584819D01*
X70547619Y-126584819D02*
X70642857Y-126584819D01*
X70642857Y-126584819D02*
X70785714Y-126632438D01*
X70785714Y-126632438D02*
X70833333Y-126680057D01*
X71166667Y-126584819D02*
X71833333Y-126584819D01*
X71833333Y-126584819D02*
X71404762Y-127584819D01*
X86834819Y-110167857D02*
X86358628Y-110501190D01*
X86834819Y-110739285D02*
X85834819Y-110739285D01*
X85834819Y-110739285D02*
X85834819Y-110358333D01*
X85834819Y-110358333D02*
X85882438Y-110263095D01*
X85882438Y-110263095D02*
X85930057Y-110215476D01*
X85930057Y-110215476D02*
X86025295Y-110167857D01*
X86025295Y-110167857D02*
X86168152Y-110167857D01*
X86168152Y-110167857D02*
X86263390Y-110215476D01*
X86263390Y-110215476D02*
X86311009Y-110263095D01*
X86311009Y-110263095D02*
X86358628Y-110358333D01*
X86358628Y-110358333D02*
X86358628Y-110739285D01*
X85834819Y-109834523D02*
X85834819Y-109215476D01*
X85834819Y-109215476D02*
X86215771Y-109548809D01*
X86215771Y-109548809D02*
X86215771Y-109405952D01*
X86215771Y-109405952D02*
X86263390Y-109310714D01*
X86263390Y-109310714D02*
X86311009Y-109263095D01*
X86311009Y-109263095D02*
X86406247Y-109215476D01*
X86406247Y-109215476D02*
X86644342Y-109215476D01*
X86644342Y-109215476D02*
X86739580Y-109263095D01*
X86739580Y-109263095D02*
X86787200Y-109310714D01*
X86787200Y-109310714D02*
X86834819Y-109405952D01*
X86834819Y-109405952D02*
X86834819Y-109691666D01*
X86834819Y-109691666D02*
X86787200Y-109786904D01*
X86787200Y-109786904D02*
X86739580Y-109834523D01*
X85930057Y-108834523D02*
X85882438Y-108786904D01*
X85882438Y-108786904D02*
X85834819Y-108691666D01*
X85834819Y-108691666D02*
X85834819Y-108453571D01*
X85834819Y-108453571D02*
X85882438Y-108358333D01*
X85882438Y-108358333D02*
X85930057Y-108310714D01*
X85930057Y-108310714D02*
X86025295Y-108263095D01*
X86025295Y-108263095D02*
X86120533Y-108263095D01*
X86120533Y-108263095D02*
X86263390Y-108310714D01*
X86263390Y-108310714D02*
X86834819Y-108882142D01*
X86834819Y-108882142D02*
X86834819Y-108263095D01*
X61281905Y-120754819D02*
X61281905Y-119754819D01*
X61281905Y-119754819D02*
X61520000Y-119754819D01*
X61520000Y-119754819D02*
X61662857Y-119802438D01*
X61662857Y-119802438D02*
X61758095Y-119897676D01*
X61758095Y-119897676D02*
X61805714Y-119992914D01*
X61805714Y-119992914D02*
X61853333Y-120183390D01*
X61853333Y-120183390D02*
X61853333Y-120326247D01*
X61853333Y-120326247D02*
X61805714Y-120516723D01*
X61805714Y-120516723D02*
X61758095Y-120611961D01*
X61758095Y-120611961D02*
X61662857Y-120707200D01*
X61662857Y-120707200D02*
X61520000Y-120754819D01*
X61520000Y-120754819D02*
X61281905Y-120754819D01*
X62234286Y-119850057D02*
X62281905Y-119802438D01*
X62281905Y-119802438D02*
X62377143Y-119754819D01*
X62377143Y-119754819D02*
X62615238Y-119754819D01*
X62615238Y-119754819D02*
X62710476Y-119802438D01*
X62710476Y-119802438D02*
X62758095Y-119850057D01*
X62758095Y-119850057D02*
X62805714Y-119945295D01*
X62805714Y-119945295D02*
X62805714Y-120040533D01*
X62805714Y-120040533D02*
X62758095Y-120183390D01*
X62758095Y-120183390D02*
X62186667Y-120754819D01*
X62186667Y-120754819D02*
X62805714Y-120754819D01*
X83233333Y-140274819D02*
X82900000Y-139798628D01*
X82661905Y-140274819D02*
X82661905Y-139274819D01*
X82661905Y-139274819D02*
X83042857Y-139274819D01*
X83042857Y-139274819D02*
X83138095Y-139322438D01*
X83138095Y-139322438D02*
X83185714Y-139370057D01*
X83185714Y-139370057D02*
X83233333Y-139465295D01*
X83233333Y-139465295D02*
X83233333Y-139608152D01*
X83233333Y-139608152D02*
X83185714Y-139703390D01*
X83185714Y-139703390D02*
X83138095Y-139751009D01*
X83138095Y-139751009D02*
X83042857Y-139798628D01*
X83042857Y-139798628D02*
X82661905Y-139798628D01*
X83614286Y-139370057D02*
X83661905Y-139322438D01*
X83661905Y-139322438D02*
X83757143Y-139274819D01*
X83757143Y-139274819D02*
X83995238Y-139274819D01*
X83995238Y-139274819D02*
X84090476Y-139322438D01*
X84090476Y-139322438D02*
X84138095Y-139370057D01*
X84138095Y-139370057D02*
X84185714Y-139465295D01*
X84185714Y-139465295D02*
X84185714Y-139560533D01*
X84185714Y-139560533D02*
X84138095Y-139703390D01*
X84138095Y-139703390D02*
X83566667Y-140274819D01*
X83566667Y-140274819D02*
X84185714Y-140274819D01*
X71957142Y-95689580D02*
X71909523Y-95737200D01*
X71909523Y-95737200D02*
X71766666Y-95784819D01*
X71766666Y-95784819D02*
X71671428Y-95784819D01*
X71671428Y-95784819D02*
X71528571Y-95737200D01*
X71528571Y-95737200D02*
X71433333Y-95641961D01*
X71433333Y-95641961D02*
X71385714Y-95546723D01*
X71385714Y-95546723D02*
X71338095Y-95356247D01*
X71338095Y-95356247D02*
X71338095Y-95213390D01*
X71338095Y-95213390D02*
X71385714Y-95022914D01*
X71385714Y-95022914D02*
X71433333Y-94927676D01*
X71433333Y-94927676D02*
X71528571Y-94832438D01*
X71528571Y-94832438D02*
X71671428Y-94784819D01*
X71671428Y-94784819D02*
X71766666Y-94784819D01*
X71766666Y-94784819D02*
X71909523Y-94832438D01*
X71909523Y-94832438D02*
X71957142Y-94880057D01*
X72338095Y-94880057D02*
X72385714Y-94832438D01*
X72385714Y-94832438D02*
X72480952Y-94784819D01*
X72480952Y-94784819D02*
X72719047Y-94784819D01*
X72719047Y-94784819D02*
X72814285Y-94832438D01*
X72814285Y-94832438D02*
X72861904Y-94880057D01*
X72861904Y-94880057D02*
X72909523Y-94975295D01*
X72909523Y-94975295D02*
X72909523Y-95070533D01*
X72909523Y-95070533D02*
X72861904Y-95213390D01*
X72861904Y-95213390D02*
X72290476Y-95784819D01*
X72290476Y-95784819D02*
X72909523Y-95784819D01*
X73528571Y-94784819D02*
X73623809Y-94784819D01*
X73623809Y-94784819D02*
X73719047Y-94832438D01*
X73719047Y-94832438D02*
X73766666Y-94880057D01*
X73766666Y-94880057D02*
X73814285Y-94975295D01*
X73814285Y-94975295D02*
X73861904Y-95165771D01*
X73861904Y-95165771D02*
X73861904Y-95403866D01*
X73861904Y-95403866D02*
X73814285Y-95594342D01*
X73814285Y-95594342D02*
X73766666Y-95689580D01*
X73766666Y-95689580D02*
X73719047Y-95737200D01*
X73719047Y-95737200D02*
X73623809Y-95784819D01*
X73623809Y-95784819D02*
X73528571Y-95784819D01*
X73528571Y-95784819D02*
X73433333Y-95737200D01*
X73433333Y-95737200D02*
X73385714Y-95689580D01*
X73385714Y-95689580D02*
X73338095Y-95594342D01*
X73338095Y-95594342D02*
X73290476Y-95403866D01*
X73290476Y-95403866D02*
X73290476Y-95165771D01*
X73290476Y-95165771D02*
X73338095Y-94975295D01*
X73338095Y-94975295D02*
X73385714Y-94880057D01*
X73385714Y-94880057D02*
X73433333Y-94832438D01*
X73433333Y-94832438D02*
X73528571Y-94784819D01*
X111517142Y-124844819D02*
X111183809Y-124368628D01*
X110945714Y-124844819D02*
X110945714Y-123844819D01*
X110945714Y-123844819D02*
X111326666Y-123844819D01*
X111326666Y-123844819D02*
X111421904Y-123892438D01*
X111421904Y-123892438D02*
X111469523Y-123940057D01*
X111469523Y-123940057D02*
X111517142Y-124035295D01*
X111517142Y-124035295D02*
X111517142Y-124178152D01*
X111517142Y-124178152D02*
X111469523Y-124273390D01*
X111469523Y-124273390D02*
X111421904Y-124321009D01*
X111421904Y-124321009D02*
X111326666Y-124368628D01*
X111326666Y-124368628D02*
X110945714Y-124368628D01*
X111898095Y-123940057D02*
X111945714Y-123892438D01*
X111945714Y-123892438D02*
X112040952Y-123844819D01*
X112040952Y-123844819D02*
X112279047Y-123844819D01*
X112279047Y-123844819D02*
X112374285Y-123892438D01*
X112374285Y-123892438D02*
X112421904Y-123940057D01*
X112421904Y-123940057D02*
X112469523Y-124035295D01*
X112469523Y-124035295D02*
X112469523Y-124130533D01*
X112469523Y-124130533D02*
X112421904Y-124273390D01*
X112421904Y-124273390D02*
X111850476Y-124844819D01*
X111850476Y-124844819D02*
X112469523Y-124844819D01*
X112802857Y-123844819D02*
X113469523Y-123844819D01*
X113469523Y-123844819D02*
X113040952Y-124844819D01*
X53190476Y-64534819D02*
X53190476Y-65249104D01*
X53190476Y-65249104D02*
X53142857Y-65391961D01*
X53142857Y-65391961D02*
X53047619Y-65487200D01*
X53047619Y-65487200D02*
X52904762Y-65534819D01*
X52904762Y-65534819D02*
X52809524Y-65534819D01*
X54190476Y-65534819D02*
X53619048Y-65534819D01*
X53904762Y-65534819D02*
X53904762Y-64534819D01*
X53904762Y-64534819D02*
X53809524Y-64677676D01*
X53809524Y-64677676D02*
X53714286Y-64772914D01*
X53714286Y-64772914D02*
X53619048Y-64820533D01*
X55142857Y-65534819D02*
X54571429Y-65534819D01*
X54857143Y-65534819D02*
X54857143Y-64534819D01*
X54857143Y-64534819D02*
X54761905Y-64677676D01*
X54761905Y-64677676D02*
X54666667Y-64772914D01*
X54666667Y-64772914D02*
X54571429Y-64820533D01*
X73883333Y-126324819D02*
X73550000Y-125848628D01*
X73311905Y-126324819D02*
X73311905Y-125324819D01*
X73311905Y-125324819D02*
X73692857Y-125324819D01*
X73692857Y-125324819D02*
X73788095Y-125372438D01*
X73788095Y-125372438D02*
X73835714Y-125420057D01*
X73835714Y-125420057D02*
X73883333Y-125515295D01*
X73883333Y-125515295D02*
X73883333Y-125658152D01*
X73883333Y-125658152D02*
X73835714Y-125753390D01*
X73835714Y-125753390D02*
X73788095Y-125801009D01*
X73788095Y-125801009D02*
X73692857Y-125848628D01*
X73692857Y-125848628D02*
X73311905Y-125848628D01*
X74216667Y-125324819D02*
X74883333Y-125324819D01*
X74883333Y-125324819D02*
X74454762Y-126324819D01*
X110707142Y-67804819D02*
X110373809Y-67328628D01*
X110135714Y-67804819D02*
X110135714Y-66804819D01*
X110135714Y-66804819D02*
X110516666Y-66804819D01*
X110516666Y-66804819D02*
X110611904Y-66852438D01*
X110611904Y-66852438D02*
X110659523Y-66900057D01*
X110659523Y-66900057D02*
X110707142Y-66995295D01*
X110707142Y-66995295D02*
X110707142Y-67138152D01*
X110707142Y-67138152D02*
X110659523Y-67233390D01*
X110659523Y-67233390D02*
X110611904Y-67281009D01*
X110611904Y-67281009D02*
X110516666Y-67328628D01*
X110516666Y-67328628D02*
X110135714Y-67328628D01*
X111040476Y-66804819D02*
X111659523Y-66804819D01*
X111659523Y-66804819D02*
X111326190Y-67185771D01*
X111326190Y-67185771D02*
X111469047Y-67185771D01*
X111469047Y-67185771D02*
X111564285Y-67233390D01*
X111564285Y-67233390D02*
X111611904Y-67281009D01*
X111611904Y-67281009D02*
X111659523Y-67376247D01*
X111659523Y-67376247D02*
X111659523Y-67614342D01*
X111659523Y-67614342D02*
X111611904Y-67709580D01*
X111611904Y-67709580D02*
X111564285Y-67757200D01*
X111564285Y-67757200D02*
X111469047Y-67804819D01*
X111469047Y-67804819D02*
X111183333Y-67804819D01*
X111183333Y-67804819D02*
X111088095Y-67757200D01*
X111088095Y-67757200D02*
X111040476Y-67709580D01*
X112230952Y-67233390D02*
X112135714Y-67185771D01*
X112135714Y-67185771D02*
X112088095Y-67138152D01*
X112088095Y-67138152D02*
X112040476Y-67042914D01*
X112040476Y-67042914D02*
X112040476Y-66995295D01*
X112040476Y-66995295D02*
X112088095Y-66900057D01*
X112088095Y-66900057D02*
X112135714Y-66852438D01*
X112135714Y-66852438D02*
X112230952Y-66804819D01*
X112230952Y-66804819D02*
X112421428Y-66804819D01*
X112421428Y-66804819D02*
X112516666Y-66852438D01*
X112516666Y-66852438D02*
X112564285Y-66900057D01*
X112564285Y-66900057D02*
X112611904Y-66995295D01*
X112611904Y-66995295D02*
X112611904Y-67042914D01*
X112611904Y-67042914D02*
X112564285Y-67138152D01*
X112564285Y-67138152D02*
X112516666Y-67185771D01*
X112516666Y-67185771D02*
X112421428Y-67233390D01*
X112421428Y-67233390D02*
X112230952Y-67233390D01*
X112230952Y-67233390D02*
X112135714Y-67281009D01*
X112135714Y-67281009D02*
X112088095Y-67328628D01*
X112088095Y-67328628D02*
X112040476Y-67423866D01*
X112040476Y-67423866D02*
X112040476Y-67614342D01*
X112040476Y-67614342D02*
X112088095Y-67709580D01*
X112088095Y-67709580D02*
X112135714Y-67757200D01*
X112135714Y-67757200D02*
X112230952Y-67804819D01*
X112230952Y-67804819D02*
X112421428Y-67804819D01*
X112421428Y-67804819D02*
X112516666Y-67757200D01*
X112516666Y-67757200D02*
X112564285Y-67709580D01*
X112564285Y-67709580D02*
X112611904Y-67614342D01*
X112611904Y-67614342D02*
X112611904Y-67423866D01*
X112611904Y-67423866D02*
X112564285Y-67328628D01*
X112564285Y-67328628D02*
X112516666Y-67281009D01*
X112516666Y-67281009D02*
X112421428Y-67233390D01*
X124038095Y-86554819D02*
X124038095Y-87364342D01*
X124038095Y-87364342D02*
X124085714Y-87459580D01*
X124085714Y-87459580D02*
X124133333Y-87507200D01*
X124133333Y-87507200D02*
X124228571Y-87554819D01*
X124228571Y-87554819D02*
X124419047Y-87554819D01*
X124419047Y-87554819D02*
X124514285Y-87507200D01*
X124514285Y-87507200D02*
X124561904Y-87459580D01*
X124561904Y-87459580D02*
X124609523Y-87364342D01*
X124609523Y-87364342D02*
X124609523Y-86554819D01*
X125514285Y-86554819D02*
X125323809Y-86554819D01*
X125323809Y-86554819D02*
X125228571Y-86602438D01*
X125228571Y-86602438D02*
X125180952Y-86650057D01*
X125180952Y-86650057D02*
X125085714Y-86792914D01*
X125085714Y-86792914D02*
X125038095Y-86983390D01*
X125038095Y-86983390D02*
X125038095Y-87364342D01*
X125038095Y-87364342D02*
X125085714Y-87459580D01*
X125085714Y-87459580D02*
X125133333Y-87507200D01*
X125133333Y-87507200D02*
X125228571Y-87554819D01*
X125228571Y-87554819D02*
X125419047Y-87554819D01*
X125419047Y-87554819D02*
X125514285Y-87507200D01*
X125514285Y-87507200D02*
X125561904Y-87459580D01*
X125561904Y-87459580D02*
X125609523Y-87364342D01*
X125609523Y-87364342D02*
X125609523Y-87126247D01*
X125609523Y-87126247D02*
X125561904Y-87031009D01*
X125561904Y-87031009D02*
X125514285Y-86983390D01*
X125514285Y-86983390D02*
X125419047Y-86935771D01*
X125419047Y-86935771D02*
X125228571Y-86935771D01*
X125228571Y-86935771D02*
X125133333Y-86983390D01*
X125133333Y-86983390D02*
X125085714Y-87031009D01*
X125085714Y-87031009D02*
X125038095Y-87126247D01*
X53666666Y-74494819D02*
X53666666Y-75209104D01*
X53666666Y-75209104D02*
X53619047Y-75351961D01*
X53619047Y-75351961D02*
X53523809Y-75447200D01*
X53523809Y-75447200D02*
X53380952Y-75494819D01*
X53380952Y-75494819D02*
X53285714Y-75494819D01*
X54095238Y-74590057D02*
X54142857Y-74542438D01*
X54142857Y-74542438D02*
X54238095Y-74494819D01*
X54238095Y-74494819D02*
X54476190Y-74494819D01*
X54476190Y-74494819D02*
X54571428Y-74542438D01*
X54571428Y-74542438D02*
X54619047Y-74590057D01*
X54619047Y-74590057D02*
X54666666Y-74685295D01*
X54666666Y-74685295D02*
X54666666Y-74780533D01*
X54666666Y-74780533D02*
X54619047Y-74923390D01*
X54619047Y-74923390D02*
X54047619Y-75494819D01*
X54047619Y-75494819D02*
X54666666Y-75494819D01*
X113489580Y-141416666D02*
X113537200Y-141464285D01*
X113537200Y-141464285D02*
X113584819Y-141607142D01*
X113584819Y-141607142D02*
X113584819Y-141702380D01*
X113584819Y-141702380D02*
X113537200Y-141845237D01*
X113537200Y-141845237D02*
X113441961Y-141940475D01*
X113441961Y-141940475D02*
X113346723Y-141988094D01*
X113346723Y-141988094D02*
X113156247Y-142035713D01*
X113156247Y-142035713D02*
X113013390Y-142035713D01*
X113013390Y-142035713D02*
X112822914Y-141988094D01*
X112822914Y-141988094D02*
X112727676Y-141940475D01*
X112727676Y-141940475D02*
X112632438Y-141845237D01*
X112632438Y-141845237D02*
X112584819Y-141702380D01*
X112584819Y-141702380D02*
X112584819Y-141607142D01*
X112584819Y-141607142D02*
X112632438Y-141464285D01*
X112632438Y-141464285D02*
X112680057Y-141416666D01*
X112584819Y-140511904D02*
X112584819Y-140988094D01*
X112584819Y-140988094D02*
X113061009Y-141035713D01*
X113061009Y-141035713D02*
X113013390Y-140988094D01*
X113013390Y-140988094D02*
X112965771Y-140892856D01*
X112965771Y-140892856D02*
X112965771Y-140654761D01*
X112965771Y-140654761D02*
X113013390Y-140559523D01*
X113013390Y-140559523D02*
X113061009Y-140511904D01*
X113061009Y-140511904D02*
X113156247Y-140464285D01*
X113156247Y-140464285D02*
X113394342Y-140464285D01*
X113394342Y-140464285D02*
X113489580Y-140511904D01*
X113489580Y-140511904D02*
X113537200Y-140559523D01*
X113537200Y-140559523D02*
X113584819Y-140654761D01*
X113584819Y-140654761D02*
X113584819Y-140892856D01*
X113584819Y-140892856D02*
X113537200Y-140988094D01*
X113537200Y-140988094D02*
X113489580Y-141035713D01*
X72834819Y-134367857D02*
X72358628Y-134701190D01*
X72834819Y-134939285D02*
X71834819Y-134939285D01*
X71834819Y-134939285D02*
X71834819Y-134558333D01*
X71834819Y-134558333D02*
X71882438Y-134463095D01*
X71882438Y-134463095D02*
X71930057Y-134415476D01*
X71930057Y-134415476D02*
X72025295Y-134367857D01*
X72025295Y-134367857D02*
X72168152Y-134367857D01*
X72168152Y-134367857D02*
X72263390Y-134415476D01*
X72263390Y-134415476D02*
X72311009Y-134463095D01*
X72311009Y-134463095D02*
X72358628Y-134558333D01*
X72358628Y-134558333D02*
X72358628Y-134939285D01*
X71834819Y-134034523D02*
X71834819Y-133415476D01*
X71834819Y-133415476D02*
X72215771Y-133748809D01*
X72215771Y-133748809D02*
X72215771Y-133605952D01*
X72215771Y-133605952D02*
X72263390Y-133510714D01*
X72263390Y-133510714D02*
X72311009Y-133463095D01*
X72311009Y-133463095D02*
X72406247Y-133415476D01*
X72406247Y-133415476D02*
X72644342Y-133415476D01*
X72644342Y-133415476D02*
X72739580Y-133463095D01*
X72739580Y-133463095D02*
X72787200Y-133510714D01*
X72787200Y-133510714D02*
X72834819Y-133605952D01*
X72834819Y-133605952D02*
X72834819Y-133891666D01*
X72834819Y-133891666D02*
X72787200Y-133986904D01*
X72787200Y-133986904D02*
X72739580Y-134034523D01*
X71834819Y-132558333D02*
X71834819Y-132748809D01*
X71834819Y-132748809D02*
X71882438Y-132844047D01*
X71882438Y-132844047D02*
X71930057Y-132891666D01*
X71930057Y-132891666D02*
X72072914Y-132986904D01*
X72072914Y-132986904D02*
X72263390Y-133034523D01*
X72263390Y-133034523D02*
X72644342Y-133034523D01*
X72644342Y-133034523D02*
X72739580Y-132986904D01*
X72739580Y-132986904D02*
X72787200Y-132939285D01*
X72787200Y-132939285D02*
X72834819Y-132844047D01*
X72834819Y-132844047D02*
X72834819Y-132653571D01*
X72834819Y-132653571D02*
X72787200Y-132558333D01*
X72787200Y-132558333D02*
X72739580Y-132510714D01*
X72739580Y-132510714D02*
X72644342Y-132463095D01*
X72644342Y-132463095D02*
X72406247Y-132463095D01*
X72406247Y-132463095D02*
X72311009Y-132510714D01*
X72311009Y-132510714D02*
X72263390Y-132558333D01*
X72263390Y-132558333D02*
X72215771Y-132653571D01*
X72215771Y-132653571D02*
X72215771Y-132844047D01*
X72215771Y-132844047D02*
X72263390Y-132939285D01*
X72263390Y-132939285D02*
X72311009Y-132986904D01*
X72311009Y-132986904D02*
X72406247Y-133034523D01*
X137690476Y-105924819D02*
X137690476Y-106639104D01*
X137690476Y-106639104D02*
X137642857Y-106781961D01*
X137642857Y-106781961D02*
X137547619Y-106877200D01*
X137547619Y-106877200D02*
X137404762Y-106924819D01*
X137404762Y-106924819D02*
X137309524Y-106924819D01*
X138690476Y-106924819D02*
X138119048Y-106924819D01*
X138404762Y-106924819D02*
X138404762Y-105924819D01*
X138404762Y-105924819D02*
X138309524Y-106067676D01*
X138309524Y-106067676D02*
X138214286Y-106162914D01*
X138214286Y-106162914D02*
X138119048Y-106210533D01*
X139023810Y-105924819D02*
X139642857Y-105924819D01*
X139642857Y-105924819D02*
X139309524Y-106305771D01*
X139309524Y-106305771D02*
X139452381Y-106305771D01*
X139452381Y-106305771D02*
X139547619Y-106353390D01*
X139547619Y-106353390D02*
X139595238Y-106401009D01*
X139595238Y-106401009D02*
X139642857Y-106496247D01*
X139642857Y-106496247D02*
X139642857Y-106734342D01*
X139642857Y-106734342D02*
X139595238Y-106829580D01*
X139595238Y-106829580D02*
X139547619Y-106877200D01*
X139547619Y-106877200D02*
X139452381Y-106924819D01*
X139452381Y-106924819D02*
X139166667Y-106924819D01*
X139166667Y-106924819D02*
X139071429Y-106877200D01*
X139071429Y-106877200D02*
X139023810Y-106829580D01*
X94124819Y-120442857D02*
X93648628Y-120776190D01*
X94124819Y-121014285D02*
X93124819Y-121014285D01*
X93124819Y-121014285D02*
X93124819Y-120633333D01*
X93124819Y-120633333D02*
X93172438Y-120538095D01*
X93172438Y-120538095D02*
X93220057Y-120490476D01*
X93220057Y-120490476D02*
X93315295Y-120442857D01*
X93315295Y-120442857D02*
X93458152Y-120442857D01*
X93458152Y-120442857D02*
X93553390Y-120490476D01*
X93553390Y-120490476D02*
X93601009Y-120538095D01*
X93601009Y-120538095D02*
X93648628Y-120633333D01*
X93648628Y-120633333D02*
X93648628Y-121014285D01*
X94124819Y-119490476D02*
X94124819Y-120061904D01*
X94124819Y-119776190D02*
X93124819Y-119776190D01*
X93124819Y-119776190D02*
X93267676Y-119871428D01*
X93267676Y-119871428D02*
X93362914Y-119966666D01*
X93362914Y-119966666D02*
X93410533Y-120061904D01*
X93124819Y-119157142D02*
X93124819Y-118490476D01*
X93124819Y-118490476D02*
X94124819Y-118919047D01*
X119039580Y-70442857D02*
X119087200Y-70490476D01*
X119087200Y-70490476D02*
X119134819Y-70633333D01*
X119134819Y-70633333D02*
X119134819Y-70728571D01*
X119134819Y-70728571D02*
X119087200Y-70871428D01*
X119087200Y-70871428D02*
X118991961Y-70966666D01*
X118991961Y-70966666D02*
X118896723Y-71014285D01*
X118896723Y-71014285D02*
X118706247Y-71061904D01*
X118706247Y-71061904D02*
X118563390Y-71061904D01*
X118563390Y-71061904D02*
X118372914Y-71014285D01*
X118372914Y-71014285D02*
X118277676Y-70966666D01*
X118277676Y-70966666D02*
X118182438Y-70871428D01*
X118182438Y-70871428D02*
X118134819Y-70728571D01*
X118134819Y-70728571D02*
X118134819Y-70633333D01*
X118134819Y-70633333D02*
X118182438Y-70490476D01*
X118182438Y-70490476D02*
X118230057Y-70442857D01*
X118230057Y-70061904D02*
X118182438Y-70014285D01*
X118182438Y-70014285D02*
X118134819Y-69919047D01*
X118134819Y-69919047D02*
X118134819Y-69680952D01*
X118134819Y-69680952D02*
X118182438Y-69585714D01*
X118182438Y-69585714D02*
X118230057Y-69538095D01*
X118230057Y-69538095D02*
X118325295Y-69490476D01*
X118325295Y-69490476D02*
X118420533Y-69490476D01*
X118420533Y-69490476D02*
X118563390Y-69538095D01*
X118563390Y-69538095D02*
X119134819Y-70109523D01*
X119134819Y-70109523D02*
X119134819Y-69490476D01*
X118230057Y-69109523D02*
X118182438Y-69061904D01*
X118182438Y-69061904D02*
X118134819Y-68966666D01*
X118134819Y-68966666D02*
X118134819Y-68728571D01*
X118134819Y-68728571D02*
X118182438Y-68633333D01*
X118182438Y-68633333D02*
X118230057Y-68585714D01*
X118230057Y-68585714D02*
X118325295Y-68538095D01*
X118325295Y-68538095D02*
X118420533Y-68538095D01*
X118420533Y-68538095D02*
X118563390Y-68585714D01*
X118563390Y-68585714D02*
X119134819Y-69157142D01*
X119134819Y-69157142D02*
X119134819Y-68538095D01*
X145090476Y-62884819D02*
X145090476Y-63599104D01*
X145090476Y-63599104D02*
X145042857Y-63741961D01*
X145042857Y-63741961D02*
X144947619Y-63837200D01*
X144947619Y-63837200D02*
X144804762Y-63884819D01*
X144804762Y-63884819D02*
X144709524Y-63884819D01*
X146090476Y-63884819D02*
X145519048Y-63884819D01*
X145804762Y-63884819D02*
X145804762Y-62884819D01*
X145804762Y-62884819D02*
X145709524Y-63027676D01*
X145709524Y-63027676D02*
X145614286Y-63122914D01*
X145614286Y-63122914D02*
X145519048Y-63170533D01*
X146661905Y-63313390D02*
X146566667Y-63265771D01*
X146566667Y-63265771D02*
X146519048Y-63218152D01*
X146519048Y-63218152D02*
X146471429Y-63122914D01*
X146471429Y-63122914D02*
X146471429Y-63075295D01*
X146471429Y-63075295D02*
X146519048Y-62980057D01*
X146519048Y-62980057D02*
X146566667Y-62932438D01*
X146566667Y-62932438D02*
X146661905Y-62884819D01*
X146661905Y-62884819D02*
X146852381Y-62884819D01*
X146852381Y-62884819D02*
X146947619Y-62932438D01*
X146947619Y-62932438D02*
X146995238Y-62980057D01*
X146995238Y-62980057D02*
X147042857Y-63075295D01*
X147042857Y-63075295D02*
X147042857Y-63122914D01*
X147042857Y-63122914D02*
X146995238Y-63218152D01*
X146995238Y-63218152D02*
X146947619Y-63265771D01*
X146947619Y-63265771D02*
X146852381Y-63313390D01*
X146852381Y-63313390D02*
X146661905Y-63313390D01*
X146661905Y-63313390D02*
X146566667Y-63361009D01*
X146566667Y-63361009D02*
X146519048Y-63408628D01*
X146519048Y-63408628D02*
X146471429Y-63503866D01*
X146471429Y-63503866D02*
X146471429Y-63694342D01*
X146471429Y-63694342D02*
X146519048Y-63789580D01*
X146519048Y-63789580D02*
X146566667Y-63837200D01*
X146566667Y-63837200D02*
X146661905Y-63884819D01*
X146661905Y-63884819D02*
X146852381Y-63884819D01*
X146852381Y-63884819D02*
X146947619Y-63837200D01*
X146947619Y-63837200D02*
X146995238Y-63789580D01*
X146995238Y-63789580D02*
X147042857Y-63694342D01*
X147042857Y-63694342D02*
X147042857Y-63503866D01*
X147042857Y-63503866D02*
X146995238Y-63408628D01*
X146995238Y-63408628D02*
X146947619Y-63361009D01*
X146947619Y-63361009D02*
X146852381Y-63313390D01*
X89344819Y-110167857D02*
X88868628Y-110501190D01*
X89344819Y-110739285D02*
X88344819Y-110739285D01*
X88344819Y-110739285D02*
X88344819Y-110358333D01*
X88344819Y-110358333D02*
X88392438Y-110263095D01*
X88392438Y-110263095D02*
X88440057Y-110215476D01*
X88440057Y-110215476D02*
X88535295Y-110167857D01*
X88535295Y-110167857D02*
X88678152Y-110167857D01*
X88678152Y-110167857D02*
X88773390Y-110215476D01*
X88773390Y-110215476D02*
X88821009Y-110263095D01*
X88821009Y-110263095D02*
X88868628Y-110358333D01*
X88868628Y-110358333D02*
X88868628Y-110739285D01*
X88344819Y-109834523D02*
X88344819Y-109215476D01*
X88344819Y-109215476D02*
X88725771Y-109548809D01*
X88725771Y-109548809D02*
X88725771Y-109405952D01*
X88725771Y-109405952D02*
X88773390Y-109310714D01*
X88773390Y-109310714D02*
X88821009Y-109263095D01*
X88821009Y-109263095D02*
X88916247Y-109215476D01*
X88916247Y-109215476D02*
X89154342Y-109215476D01*
X89154342Y-109215476D02*
X89249580Y-109263095D01*
X89249580Y-109263095D02*
X89297200Y-109310714D01*
X89297200Y-109310714D02*
X89344819Y-109405952D01*
X89344819Y-109405952D02*
X89344819Y-109691666D01*
X89344819Y-109691666D02*
X89297200Y-109786904D01*
X89297200Y-109786904D02*
X89249580Y-109834523D01*
X89344819Y-108263095D02*
X89344819Y-108834523D01*
X89344819Y-108548809D02*
X88344819Y-108548809D01*
X88344819Y-108548809D02*
X88487676Y-108644047D01*
X88487676Y-108644047D02*
X88582914Y-108739285D01*
X88582914Y-108739285D02*
X88630533Y-108834523D01*
X70633333Y-122579580D02*
X70585714Y-122627200D01*
X70585714Y-122627200D02*
X70442857Y-122674819D01*
X70442857Y-122674819D02*
X70347619Y-122674819D01*
X70347619Y-122674819D02*
X70204762Y-122627200D01*
X70204762Y-122627200D02*
X70109524Y-122531961D01*
X70109524Y-122531961D02*
X70061905Y-122436723D01*
X70061905Y-122436723D02*
X70014286Y-122246247D01*
X70014286Y-122246247D02*
X70014286Y-122103390D01*
X70014286Y-122103390D02*
X70061905Y-121912914D01*
X70061905Y-121912914D02*
X70109524Y-121817676D01*
X70109524Y-121817676D02*
X70204762Y-121722438D01*
X70204762Y-121722438D02*
X70347619Y-121674819D01*
X70347619Y-121674819D02*
X70442857Y-121674819D01*
X70442857Y-121674819D02*
X70585714Y-121722438D01*
X70585714Y-121722438D02*
X70633333Y-121770057D01*
X71109524Y-122674819D02*
X71300000Y-122674819D01*
X71300000Y-122674819D02*
X71395238Y-122627200D01*
X71395238Y-122627200D02*
X71442857Y-122579580D01*
X71442857Y-122579580D02*
X71538095Y-122436723D01*
X71538095Y-122436723D02*
X71585714Y-122246247D01*
X71585714Y-122246247D02*
X71585714Y-121865295D01*
X71585714Y-121865295D02*
X71538095Y-121770057D01*
X71538095Y-121770057D02*
X71490476Y-121722438D01*
X71490476Y-121722438D02*
X71395238Y-121674819D01*
X71395238Y-121674819D02*
X71204762Y-121674819D01*
X71204762Y-121674819D02*
X71109524Y-121722438D01*
X71109524Y-121722438D02*
X71061905Y-121770057D01*
X71061905Y-121770057D02*
X71014286Y-121865295D01*
X71014286Y-121865295D02*
X71014286Y-122103390D01*
X71014286Y-122103390D02*
X71061905Y-122198628D01*
X71061905Y-122198628D02*
X71109524Y-122246247D01*
X71109524Y-122246247D02*
X71204762Y-122293866D01*
X71204762Y-122293866D02*
X71395238Y-122293866D01*
X71395238Y-122293866D02*
X71490476Y-122246247D01*
X71490476Y-122246247D02*
X71538095Y-122198628D01*
X71538095Y-122198628D02*
X71585714Y-122103390D01*
X78688095Y-89104819D02*
X78688095Y-89914342D01*
X78688095Y-89914342D02*
X78735714Y-90009580D01*
X78735714Y-90009580D02*
X78783333Y-90057200D01*
X78783333Y-90057200D02*
X78878571Y-90104819D01*
X78878571Y-90104819D02*
X79069047Y-90104819D01*
X79069047Y-90104819D02*
X79164285Y-90057200D01*
X79164285Y-90057200D02*
X79211904Y-90009580D01*
X79211904Y-90009580D02*
X79259523Y-89914342D01*
X79259523Y-89914342D02*
X79259523Y-89104819D01*
X79640476Y-89104819D02*
X80307142Y-89104819D01*
X80307142Y-89104819D02*
X79878571Y-90104819D01*
X75074819Y-53333333D02*
X75789104Y-53333333D01*
X75789104Y-53333333D02*
X75931961Y-53380952D01*
X75931961Y-53380952D02*
X76027200Y-53476190D01*
X76027200Y-53476190D02*
X76074819Y-53619047D01*
X76074819Y-53619047D02*
X76074819Y-53714285D01*
X75074819Y-52380952D02*
X75074819Y-52857142D01*
X75074819Y-52857142D02*
X75551009Y-52904761D01*
X75551009Y-52904761D02*
X75503390Y-52857142D01*
X75503390Y-52857142D02*
X75455771Y-52761904D01*
X75455771Y-52761904D02*
X75455771Y-52523809D01*
X75455771Y-52523809D02*
X75503390Y-52428571D01*
X75503390Y-52428571D02*
X75551009Y-52380952D01*
X75551009Y-52380952D02*
X75646247Y-52333333D01*
X75646247Y-52333333D02*
X75884342Y-52333333D01*
X75884342Y-52333333D02*
X75979580Y-52380952D01*
X75979580Y-52380952D02*
X76027200Y-52428571D01*
X76027200Y-52428571D02*
X76074819Y-52523809D01*
X76074819Y-52523809D02*
X76074819Y-52761904D01*
X76074819Y-52761904D02*
X76027200Y-52857142D01*
X76027200Y-52857142D02*
X75979580Y-52904761D01*
X79454761Y-122900057D02*
X79359523Y-122852438D01*
X79359523Y-122852438D02*
X79264285Y-122757200D01*
X79264285Y-122757200D02*
X79121428Y-122614342D01*
X79121428Y-122614342D02*
X79026190Y-122566723D01*
X79026190Y-122566723D02*
X78930952Y-122566723D01*
X78978571Y-122804819D02*
X78883333Y-122757200D01*
X78883333Y-122757200D02*
X78788095Y-122661961D01*
X78788095Y-122661961D02*
X78740476Y-122471485D01*
X78740476Y-122471485D02*
X78740476Y-122138152D01*
X78740476Y-122138152D02*
X78788095Y-121947676D01*
X78788095Y-121947676D02*
X78883333Y-121852438D01*
X78883333Y-121852438D02*
X78978571Y-121804819D01*
X78978571Y-121804819D02*
X79169047Y-121804819D01*
X79169047Y-121804819D02*
X79264285Y-121852438D01*
X79264285Y-121852438D02*
X79359523Y-121947676D01*
X79359523Y-121947676D02*
X79407142Y-122138152D01*
X79407142Y-122138152D02*
X79407142Y-122471485D01*
X79407142Y-122471485D02*
X79359523Y-122661961D01*
X79359523Y-122661961D02*
X79264285Y-122757200D01*
X79264285Y-122757200D02*
X79169047Y-122804819D01*
X79169047Y-122804819D02*
X78978571Y-122804819D01*
X80264285Y-122138152D02*
X80264285Y-122804819D01*
X80026190Y-121757200D02*
X79788095Y-122471485D01*
X79788095Y-122471485D02*
X80407142Y-122471485D01*
X70034200Y-145883332D02*
X70081819Y-145740475D01*
X70081819Y-145740475D02*
X70081819Y-145502380D01*
X70081819Y-145502380D02*
X70034200Y-145407142D01*
X70034200Y-145407142D02*
X69986580Y-145359523D01*
X69986580Y-145359523D02*
X69891342Y-145311904D01*
X69891342Y-145311904D02*
X69796104Y-145311904D01*
X69796104Y-145311904D02*
X69700866Y-145359523D01*
X69700866Y-145359523D02*
X69653247Y-145407142D01*
X69653247Y-145407142D02*
X69605628Y-145502380D01*
X69605628Y-145502380D02*
X69558009Y-145692856D01*
X69558009Y-145692856D02*
X69510390Y-145788094D01*
X69510390Y-145788094D02*
X69462771Y-145835713D01*
X69462771Y-145835713D02*
X69367533Y-145883332D01*
X69367533Y-145883332D02*
X69272295Y-145883332D01*
X69272295Y-145883332D02*
X69177057Y-145835713D01*
X69177057Y-145835713D02*
X69129438Y-145788094D01*
X69129438Y-145788094D02*
X69081819Y-145692856D01*
X69081819Y-145692856D02*
X69081819Y-145454761D01*
X69081819Y-145454761D02*
X69129438Y-145311904D01*
X69081819Y-144978570D02*
X70081819Y-144740475D01*
X70081819Y-144740475D02*
X69367533Y-144549999D01*
X69367533Y-144549999D02*
X70081819Y-144359523D01*
X70081819Y-144359523D02*
X69081819Y-144121428D01*
X70081819Y-143216666D02*
X70081819Y-143788094D01*
X70081819Y-143502380D02*
X69081819Y-143502380D01*
X69081819Y-143502380D02*
X69224676Y-143597618D01*
X69224676Y-143597618D02*
X69319914Y-143692856D01*
X69319914Y-143692856D02*
X69367533Y-143788094D01*
X127984819Y-54363333D02*
X128699104Y-54363333D01*
X128699104Y-54363333D02*
X128841961Y-54410952D01*
X128841961Y-54410952D02*
X128937200Y-54506190D01*
X128937200Y-54506190D02*
X128984819Y-54649047D01*
X128984819Y-54649047D02*
X128984819Y-54744285D01*
X127984819Y-53458571D02*
X127984819Y-53649047D01*
X127984819Y-53649047D02*
X128032438Y-53744285D01*
X128032438Y-53744285D02*
X128080057Y-53791904D01*
X128080057Y-53791904D02*
X128222914Y-53887142D01*
X128222914Y-53887142D02*
X128413390Y-53934761D01*
X128413390Y-53934761D02*
X128794342Y-53934761D01*
X128794342Y-53934761D02*
X128889580Y-53887142D01*
X128889580Y-53887142D02*
X128937200Y-53839523D01*
X128937200Y-53839523D02*
X128984819Y-53744285D01*
X128984819Y-53744285D02*
X128984819Y-53553809D01*
X128984819Y-53553809D02*
X128937200Y-53458571D01*
X128937200Y-53458571D02*
X128889580Y-53410952D01*
X128889580Y-53410952D02*
X128794342Y-53363333D01*
X128794342Y-53363333D02*
X128556247Y-53363333D01*
X128556247Y-53363333D02*
X128461009Y-53410952D01*
X128461009Y-53410952D02*
X128413390Y-53458571D01*
X128413390Y-53458571D02*
X128365771Y-53553809D01*
X128365771Y-53553809D02*
X128365771Y-53744285D01*
X128365771Y-53744285D02*
X128413390Y-53839523D01*
X128413390Y-53839523D02*
X128461009Y-53887142D01*
X128461009Y-53887142D02*
X128556247Y-53934761D01*
X87089580Y-93442857D02*
X87137200Y-93490476D01*
X87137200Y-93490476D02*
X87184819Y-93633333D01*
X87184819Y-93633333D02*
X87184819Y-93728571D01*
X87184819Y-93728571D02*
X87137200Y-93871428D01*
X87137200Y-93871428D02*
X87041961Y-93966666D01*
X87041961Y-93966666D02*
X86946723Y-94014285D01*
X86946723Y-94014285D02*
X86756247Y-94061904D01*
X86756247Y-94061904D02*
X86613390Y-94061904D01*
X86613390Y-94061904D02*
X86422914Y-94014285D01*
X86422914Y-94014285D02*
X86327676Y-93966666D01*
X86327676Y-93966666D02*
X86232438Y-93871428D01*
X86232438Y-93871428D02*
X86184819Y-93728571D01*
X86184819Y-93728571D02*
X86184819Y-93633333D01*
X86184819Y-93633333D02*
X86232438Y-93490476D01*
X86232438Y-93490476D02*
X86280057Y-93442857D01*
X86280057Y-93061904D02*
X86232438Y-93014285D01*
X86232438Y-93014285D02*
X86184819Y-92919047D01*
X86184819Y-92919047D02*
X86184819Y-92680952D01*
X86184819Y-92680952D02*
X86232438Y-92585714D01*
X86232438Y-92585714D02*
X86280057Y-92538095D01*
X86280057Y-92538095D02*
X86375295Y-92490476D01*
X86375295Y-92490476D02*
X86470533Y-92490476D01*
X86470533Y-92490476D02*
X86613390Y-92538095D01*
X86613390Y-92538095D02*
X87184819Y-93109523D01*
X87184819Y-93109523D02*
X87184819Y-92490476D01*
X87184819Y-91538095D02*
X87184819Y-92109523D01*
X87184819Y-91823809D02*
X86184819Y-91823809D01*
X86184819Y-91823809D02*
X86327676Y-91919047D01*
X86327676Y-91919047D02*
X86422914Y-92014285D01*
X86422914Y-92014285D02*
X86470533Y-92109523D01*
X130364819Y-139202857D02*
X129888628Y-139536190D01*
X130364819Y-139774285D02*
X129364819Y-139774285D01*
X129364819Y-139774285D02*
X129364819Y-139393333D01*
X129364819Y-139393333D02*
X129412438Y-139298095D01*
X129412438Y-139298095D02*
X129460057Y-139250476D01*
X129460057Y-139250476D02*
X129555295Y-139202857D01*
X129555295Y-139202857D02*
X129698152Y-139202857D01*
X129698152Y-139202857D02*
X129793390Y-139250476D01*
X129793390Y-139250476D02*
X129841009Y-139298095D01*
X129841009Y-139298095D02*
X129888628Y-139393333D01*
X129888628Y-139393333D02*
X129888628Y-139774285D01*
X129460057Y-138821904D02*
X129412438Y-138774285D01*
X129412438Y-138774285D02*
X129364819Y-138679047D01*
X129364819Y-138679047D02*
X129364819Y-138440952D01*
X129364819Y-138440952D02*
X129412438Y-138345714D01*
X129412438Y-138345714D02*
X129460057Y-138298095D01*
X129460057Y-138298095D02*
X129555295Y-138250476D01*
X129555295Y-138250476D02*
X129650533Y-138250476D01*
X129650533Y-138250476D02*
X129793390Y-138298095D01*
X129793390Y-138298095D02*
X130364819Y-138869523D01*
X130364819Y-138869523D02*
X130364819Y-138250476D01*
X129364819Y-137345714D02*
X129364819Y-137821904D01*
X129364819Y-137821904D02*
X129841009Y-137869523D01*
X129841009Y-137869523D02*
X129793390Y-137821904D01*
X129793390Y-137821904D02*
X129745771Y-137726666D01*
X129745771Y-137726666D02*
X129745771Y-137488571D01*
X129745771Y-137488571D02*
X129793390Y-137393333D01*
X129793390Y-137393333D02*
X129841009Y-137345714D01*
X129841009Y-137345714D02*
X129936247Y-137298095D01*
X129936247Y-137298095D02*
X130174342Y-137298095D01*
X130174342Y-137298095D02*
X130269580Y-137345714D01*
X130269580Y-137345714D02*
X130317200Y-137393333D01*
X130317200Y-137393333D02*
X130364819Y-137488571D01*
X130364819Y-137488571D02*
X130364819Y-137726666D01*
X130364819Y-137726666D02*
X130317200Y-137821904D01*
X130317200Y-137821904D02*
X130269580Y-137869523D01*
%TO.C,SW2*%
D11*
X125650000Y-124300000D02*
X125650000Y-129300000D01*
D12*
X125650000Y-129300000D02*
X125650000Y-124300000D01*
D11*
X125919000Y-124300000D02*
X125650000Y-124300000D01*
X125919000Y-129300000D02*
X125650000Y-129300000D01*
X128650000Y-124300000D02*
X128381000Y-124300000D01*
X128650000Y-129300000D02*
X128381000Y-129300000D01*
D12*
X128650000Y-129300000D02*
X128650000Y-124300000D01*
D11*
X128650000Y-129300000D02*
X128650000Y-124300000D01*
D13*
X128293000Y-126800000D02*
G75*
G02*
X126007000Y-126800000I-1143000J0D01*
G01*
X126007000Y-126800000D02*
G75*
G02*
X128293000Y-126800000I1143000J0D01*
G01*
%TO.C,R4*%
D14*
X62412742Y-113827500D02*
X62887258Y-113827500D01*
X62412742Y-114872500D02*
X62887258Y-114872500D01*
%TO.C,J9*%
X144570000Y-86600000D02*
X145950000Y-86600000D01*
X144570000Y-87980000D02*
X144570000Y-86600000D01*
X144570000Y-89250000D02*
X144570000Y-102060000D01*
X144570000Y-89250000D02*
X147330000Y-89250000D01*
X144570000Y-102060000D02*
X147330000Y-102060000D01*
X147330000Y-89250000D02*
X147330000Y-102060000D01*
%TO.C,U3*%
X69240000Y-117090000D02*
X69715000Y-117090000D01*
X69240000Y-117565000D02*
X69240000Y-117090000D01*
X69240000Y-121310000D02*
X69240000Y-120835000D01*
X69715000Y-121310000D02*
X69240000Y-121310000D01*
X72985000Y-117090000D02*
X73460000Y-117090000D01*
X73460000Y-117090000D02*
X73460000Y-117565000D01*
X73460000Y-120835000D02*
X73460000Y-121310000D01*
X73460000Y-121310000D02*
X72985000Y-121310000D01*
X68740000Y-117950000D02*
X68410000Y-118190000D01*
X68410000Y-117710000D01*
X68740000Y-117950000D01*
G36*
X68740000Y-117950000D02*
G01*
X68410000Y-118190000D01*
X68410000Y-117710000D01*
X68740000Y-117950000D01*
G37*
%TO.C,R29*%
X110662258Y-130327500D02*
X110187742Y-130327500D01*
X110662258Y-131372500D02*
X110187742Y-131372500D01*
%TO.C,J1*%
X52620000Y-91120000D02*
X54000000Y-91120000D01*
X52620000Y-92500000D02*
X52620000Y-91120000D01*
X52620000Y-93770000D02*
X52620000Y-106580000D01*
X52620000Y-93770000D02*
X55380000Y-93770000D01*
X52620000Y-106580000D02*
X55380000Y-106580000D01*
X55380000Y-93770000D02*
X55380000Y-106580000D01*
%TO.C,C31*%
X102965000Y-70988748D02*
X102965000Y-71511252D01*
X104435000Y-70988748D02*
X104435000Y-71511252D01*
%TO.C,R33*%
X81917500Y-109287742D02*
X81917500Y-109762258D01*
X82962500Y-109287742D02*
X82962500Y-109762258D01*
%TO.C,J4*%
X62120000Y-91580000D02*
X63500000Y-91580000D01*
X62120000Y-92960000D02*
X62120000Y-91580000D01*
X62120000Y-94230000D02*
X62120000Y-99420000D01*
X62120000Y-94230000D02*
X64880000Y-94230000D01*
X62120000Y-99420000D02*
X64880000Y-99420000D01*
X64880000Y-94230000D02*
X64880000Y-99420000D01*
%TO.C,C13*%
X98690000Y-104590580D02*
X98690000Y-104309420D01*
X99710000Y-104590580D02*
X99710000Y-104309420D01*
%TO.C,R11*%
X85337258Y-134477500D02*
X84862742Y-134477500D01*
X85337258Y-135522500D02*
X84862742Y-135522500D01*
%TO.C,J10*%
X138520000Y-86600000D02*
X139900000Y-86600000D01*
X138520000Y-87980000D02*
X138520000Y-86600000D01*
X138520000Y-89250000D02*
X138520000Y-102060000D01*
X138520000Y-89250000D02*
X141280000Y-89250000D01*
X138520000Y-102060000D02*
X141280000Y-102060000D01*
X141280000Y-89250000D02*
X141280000Y-102060000D01*
%TO.C,L2*%
X96145000Y-75040000D02*
X101215000Y-75040000D01*
X96145000Y-76240000D02*
X96145000Y-75040000D01*
X96145000Y-80460000D02*
X96145000Y-79260000D01*
X101215000Y-75040000D02*
X101215000Y-76240000D01*
X101215000Y-79260000D02*
X101215000Y-80460000D01*
X101215000Y-80460000D02*
X96145000Y-80460000D01*
%TO.C,FB1*%
X95221267Y-104840000D02*
X94878733Y-104840000D01*
X95221267Y-105860000D02*
X94878733Y-105860000D01*
%TO.C,D8*%
X82910000Y-68450000D02*
X77400000Y-68450000D01*
X82910000Y-71750000D02*
X77400000Y-71750000D01*
X82910000Y-71750000D02*
X82910000Y-68450000D01*
%TO.C,R20*%
X85337258Y-132877500D02*
X84862742Y-132877500D01*
X85337258Y-133922500D02*
X84862742Y-133922500D01*
%TO.C,J7*%
X61820000Y-51445000D02*
X63200000Y-51445000D01*
X61820000Y-52825000D02*
X61820000Y-51445000D01*
X61820000Y-54095000D02*
X61820000Y-56745000D01*
X61820000Y-54095000D02*
X64580000Y-54095000D01*
X61820000Y-56745000D02*
X64580000Y-56745000D01*
X64580000Y-54095000D02*
X64580000Y-56745000D01*
%TO.C,R34*%
X101587742Y-100027500D02*
X102062258Y-100027500D01*
X101587742Y-101072500D02*
X102062258Y-101072500D01*
%TO.C,R8*%
X75762742Y-115627500D02*
X76237258Y-115627500D01*
X75762742Y-116672500D02*
X76237258Y-116672500D01*
%TO.C,R16*%
X101127500Y-89037258D02*
X101127500Y-88562742D01*
X102172500Y-89037258D02*
X102172500Y-88562742D01*
%TO.C,C12*%
X100440000Y-112340580D02*
X100440000Y-112059420D01*
X101460000Y-112340580D02*
X101460000Y-112059420D01*
%TO.C,R30*%
X110662258Y-128727500D02*
X110187742Y-128727500D01*
X110662258Y-129772500D02*
X110187742Y-129772500D01*
%TO.C,C30*%
X105975000Y-70988748D02*
X105975000Y-71511252D01*
X107445000Y-70988748D02*
X107445000Y-71511252D01*
%TO.C,R15*%
X106377500Y-107162742D02*
X106377500Y-107637258D01*
X107422500Y-107162742D02*
X107422500Y-107637258D01*
%TO.C,J19*%
X95345000Y-54380000D02*
X95345000Y-53000000D01*
X96725000Y-54380000D02*
X95345000Y-54380000D01*
X97995000Y-51620000D02*
X100645000Y-51620000D01*
X97995000Y-54380000D02*
X97995000Y-51620000D01*
X97995000Y-54380000D02*
X100645000Y-54380000D01*
X100645000Y-54380000D02*
X100645000Y-51620000D01*
%TO.C,C23*%
X91040000Y-69909420D02*
X91040000Y-70190580D01*
X92060000Y-69909420D02*
X92060000Y-70190580D01*
%TO.C,U4*%
X97890000Y-106940000D02*
X98365000Y-106940000D01*
X97890000Y-108165000D02*
X97890000Y-106940000D01*
X97890000Y-110160000D02*
X97890000Y-108935000D01*
X98365000Y-110160000D02*
X97890000Y-110160000D01*
X102135000Y-106940000D02*
X102610000Y-106940000D01*
X102610000Y-106940000D02*
X102610000Y-108165000D01*
X102610000Y-108935000D02*
X102610000Y-110160000D01*
X102610000Y-110160000D02*
X102135000Y-110160000D01*
X98750000Y-106690000D02*
X98510000Y-106360000D01*
X98990000Y-106360000D01*
X98750000Y-106690000D01*
G36*
X98750000Y-106690000D02*
G01*
X98510000Y-106360000D01*
X98990000Y-106360000D01*
X98750000Y-106690000D01*
G37*
%TO.C,D5*%
X137190000Y-137650000D02*
X137190000Y-138950000D01*
X140310000Y-138950000D02*
X140310000Y-137680000D01*
X140260000Y-137300000D02*
X140590000Y-137060000D01*
X140590000Y-137540000D01*
X140260000Y-137300000D01*
G36*
X140590000Y-137540000D02*
G01*
X140260000Y-137300000D01*
X140590000Y-137060000D01*
X140590000Y-137540000D01*
G37*
%TO.C,R18*%
X72987258Y-91027500D02*
X72512742Y-91027500D01*
X72987258Y-92072500D02*
X72512742Y-92072500D01*
%TO.C,J12*%
X62920000Y-65860000D02*
X64300000Y-65860000D01*
X62920000Y-67240000D02*
X62920000Y-65860000D01*
X62920000Y-68510000D02*
X62920000Y-76240000D01*
X62920000Y-68510000D02*
X65680000Y-68510000D01*
X62920000Y-76240000D02*
X65680000Y-76240000D01*
X65680000Y-68510000D02*
X65680000Y-76240000D01*
%TO.C,J14*%
X114530000Y-51870000D02*
X114530000Y-54630000D01*
X122260000Y-51870000D02*
X114530000Y-51870000D01*
X122260000Y-51870000D02*
X122260000Y-54630000D01*
X122260000Y-54630000D02*
X114530000Y-54630000D01*
X123530000Y-51870000D02*
X124910000Y-51870000D01*
X124910000Y-51870000D02*
X124910000Y-53250000D01*
%TO.C,D7*%
X82910000Y-62050000D02*
X77400000Y-62050000D01*
X82910000Y-65350000D02*
X77400000Y-65350000D01*
X82910000Y-65350000D02*
X82910000Y-62050000D01*
%TO.C,C10*%
X65015000Y-121761252D02*
X65015000Y-121238748D01*
X66485000Y-121761252D02*
X66485000Y-121238748D01*
%TO.C,J15*%
X144520000Y-107480000D02*
X145900000Y-107480000D01*
X144520000Y-108860000D02*
X144520000Y-107480000D01*
X144520000Y-110130000D02*
X144520000Y-115320000D01*
X144520000Y-110130000D02*
X147280000Y-110130000D01*
X144520000Y-115320000D02*
X147280000Y-115320000D01*
X147280000Y-110130000D02*
X147280000Y-115320000D01*
%TO.C,Q3*%
X78890000Y-117740000D02*
X80410000Y-117740000D01*
X78890000Y-117790000D02*
X78890000Y-117740000D01*
X78890000Y-119690000D02*
X78890000Y-118910000D01*
X78890000Y-120860000D02*
X78890000Y-120810000D01*
X80410000Y-117740000D02*
X80410000Y-118740000D01*
X80410000Y-119860000D02*
X80410000Y-120860000D01*
X80410000Y-120860000D02*
X78890000Y-120860000D01*
X78350000Y-118920000D02*
X78590000Y-119250000D01*
X78110000Y-119250000D01*
X78350000Y-118920000D01*
G36*
X78590000Y-119250000D02*
G01*
X78110000Y-119250000D01*
X78350000Y-118920000D01*
X78590000Y-119250000D01*
G37*
%TO.C,R24*%
X123662742Y-131827500D02*
X124137258Y-131827500D01*
X123662742Y-132872500D02*
X124137258Y-132872500D01*
%TO.C,R28*%
X111912742Y-126887500D02*
X112387258Y-126887500D01*
X111912742Y-127932500D02*
X112387258Y-127932500D01*
%TO.C,U5*%
X106002500Y-99240000D02*
X106057500Y-99240000D01*
X106002500Y-103360000D02*
X106002500Y-99240000D01*
X106057500Y-103360000D02*
X106002500Y-103360000D01*
X116067500Y-99240000D02*
X116122500Y-99240000D01*
X116122500Y-99240000D02*
X116122500Y-103360000D01*
X116122500Y-103360000D02*
X116067500Y-103360000D01*
X116072500Y-98700000D02*
X116402500Y-98460000D01*
X116402500Y-98940000D01*
X116072500Y-98700000D01*
G36*
X116402500Y-98940000D02*
G01*
X116072500Y-98700000D01*
X116402500Y-98460000D01*
X116402500Y-98940000D01*
G37*
%TO.C,R5*%
X62212742Y-125477500D02*
X62687258Y-125477500D01*
X62212742Y-126522500D02*
X62687258Y-126522500D01*
%TO.C,R22*%
X113027500Y-138087258D02*
X113027500Y-137612742D01*
X114072500Y-138087258D02*
X114072500Y-137612742D01*
%TO.C,R9*%
X75862742Y-118377500D02*
X76337258Y-118377500D01*
X75862742Y-119422500D02*
X76337258Y-119422500D01*
%TO.C,J17*%
X135670000Y-64470000D02*
X137050000Y-64470000D01*
X135670000Y-65850000D02*
X135670000Y-64470000D01*
X135670000Y-67120000D02*
X135670000Y-72310000D01*
X135670000Y-67120000D02*
X138430000Y-67120000D01*
X135670000Y-72310000D02*
X138430000Y-72310000D01*
X138430000Y-67120000D02*
X138430000Y-72310000D01*
%TO.C,R13*%
X101227500Y-104212742D02*
X101227500Y-104687258D01*
X102272500Y-104212742D02*
X102272500Y-104687258D01*
%TO.C,C29*%
X97510580Y-73190000D02*
X97229420Y-73190000D01*
X97510580Y-74210000D02*
X97229420Y-74210000D01*
%TO.C,C15*%
X56390000Y-78790580D02*
X56390000Y-78509420D01*
X57410000Y-78790580D02*
X57410000Y-78509420D01*
%TO.C,C6*%
X108940000Y-141309420D02*
X108940000Y-141590580D01*
X109960000Y-141309420D02*
X109960000Y-141590580D01*
%TO.C,R35*%
X96227500Y-119562742D02*
X96227500Y-120037258D01*
X97272500Y-119562742D02*
X97272500Y-120037258D01*
%TO.C,J16*%
X128520000Y-144285000D02*
X128520000Y-146205000D01*
X128520000Y-149920000D02*
X128520000Y-148215000D01*
X137680000Y-146205000D02*
X137680000Y-144285000D01*
X137680000Y-148215000D02*
X137680000Y-149920000D01*
X137680000Y-149920000D02*
X128520000Y-149920000D01*
%TO.C,R26*%
X133337500Y-138677258D02*
X133337500Y-138202742D01*
X134382500Y-138677258D02*
X134382500Y-138202742D01*
%TO.C,R14*%
X95662742Y-109277500D02*
X96137258Y-109277500D01*
X95662742Y-110322500D02*
X96137258Y-110322500D01*
%TO.C,R23*%
X86027500Y-123737258D02*
X86027500Y-123262742D01*
X87072500Y-123737258D02*
X87072500Y-123262742D01*
%TO.C,R3*%
X83212742Y-138977500D02*
X83687258Y-138977500D01*
X83212742Y-140022500D02*
X83687258Y-140022500D01*
%TO.C,R1*%
X134262258Y-57577500D02*
X133787742Y-57577500D01*
X134262258Y-58622500D02*
X133787742Y-58622500D01*
%TO.C,C16*%
X58165000Y-78288748D02*
X58165000Y-78811252D01*
X59635000Y-78288748D02*
X59635000Y-78811252D01*
%TO.C,C19*%
X118309420Y-104240000D02*
X118590580Y-104240000D01*
X118309420Y-105260000D02*
X118590580Y-105260000D01*
%TO.C,U9*%
X95090000Y-68940000D02*
X95140000Y-68940000D01*
X95090000Y-70760000D02*
X95090000Y-68940000D01*
X95140000Y-70760000D02*
X95090000Y-70760000D01*
X98160000Y-68940000D02*
X98210000Y-68940000D01*
X98210000Y-68940000D02*
X98210000Y-70760000D01*
X98210000Y-70760000D02*
X98160000Y-70760000D01*
X98160000Y-68400000D02*
X98490000Y-68160000D01*
X98490000Y-68640000D01*
X98160000Y-68400000D01*
G36*
X98490000Y-68640000D02*
G01*
X98160000Y-68400000D01*
X98490000Y-68160000D01*
X98490000Y-68640000D01*
G37*
%TO.C,J20*%
X95365000Y-61535000D02*
X95365000Y-60155000D01*
X96745000Y-61535000D02*
X95365000Y-61535000D01*
X98015000Y-58775000D02*
X100665000Y-58775000D01*
X98015000Y-61535000D02*
X98015000Y-58775000D01*
X98015000Y-61535000D02*
X100665000Y-61535000D01*
X100665000Y-61535000D02*
X100665000Y-58775000D01*
%TO.C,R10*%
X72362742Y-129277500D02*
X72837258Y-129277500D01*
X72362742Y-130322500D02*
X72837258Y-130322500D01*
%TO.C,R21*%
X114837258Y-131577500D02*
X114362742Y-131577500D01*
X114837258Y-132622500D02*
X114362742Y-132622500D01*
%TO.C,U8*%
X89125000Y-124050000D02*
X89125000Y-125050000D01*
X89125000Y-124050000D02*
X90625000Y-124050000D01*
X89125000Y-149900000D02*
X89125000Y-143700000D01*
X107525000Y-124050000D02*
X106025000Y-124050000D01*
X107525000Y-125050000D02*
X107525000Y-124050000D01*
X107525000Y-149900000D02*
X89125000Y-149900000D01*
X107525000Y-149900000D02*
X107525000Y-143700000D01*
X107525000Y-143025000D02*
X108025000Y-143025000D01*
X107525000Y-143525000D01*
X107525000Y-143025000D01*
G36*
X107525000Y-143525000D02*
G01*
X107525000Y-143025000D01*
X108025000Y-143025000D01*
X107525000Y-143525000D01*
G37*
%TO.C,R19*%
X56527500Y-68912742D02*
X56527500Y-69387258D01*
X57572500Y-68912742D02*
X57572500Y-69387258D01*
%TO.C,J8*%
X68120000Y-51545000D02*
X69500000Y-51545000D01*
X68120000Y-52925000D02*
X68120000Y-51545000D01*
X68120000Y-54195000D02*
X68120000Y-56845000D01*
X68120000Y-54195000D02*
X70880000Y-54195000D01*
X68120000Y-56845000D02*
X70880000Y-56845000D01*
X70880000Y-54195000D02*
X70880000Y-56845000D01*
%TO.C,R12*%
X73127500Y-134737742D02*
X73127500Y-135212258D01*
X74172500Y-134737742D02*
X74172500Y-135212258D01*
%TO.C,C28*%
X86565000Y-69738748D02*
X86565000Y-70261252D01*
X88035000Y-69738748D02*
X88035000Y-70261252D01*
%TO.C,R37*%
X104322936Y-64915000D02*
X104777064Y-64915000D01*
X104322936Y-66385000D02*
X104777064Y-66385000D01*
%TO.C,C17*%
X85890000Y-141909420D02*
X85890000Y-142190580D01*
X86910000Y-141909420D02*
X86910000Y-142190580D01*
%TO.C,C18*%
X85240000Y-137990580D02*
X85240000Y-137709420D01*
X86260000Y-137990580D02*
X86260000Y-137709420D01*
%TO.C,C11*%
X67190000Y-121109420D02*
X67190000Y-121390580D01*
X68210000Y-121109420D02*
X68210000Y-121390580D01*
%TO.C,D9*%
X82960000Y-75000000D02*
X77450000Y-75000000D01*
X82960000Y-78300000D02*
X77450000Y-78300000D01*
X82960000Y-78300000D02*
X82960000Y-75000000D01*
%TO.C,C8*%
X110715000Y-138011252D02*
X110715000Y-137488748D01*
X112185000Y-138011252D02*
X112185000Y-137488748D01*
%TO.C,C14*%
X94738748Y-106865000D02*
X95261252Y-106865000D01*
X94738748Y-108335000D02*
X95261252Y-108335000D01*
%TO.C,R6*%
X68512742Y-126777500D02*
X68987258Y-126777500D01*
X68512742Y-127822500D02*
X68987258Y-127822500D01*
%TO.C,C7*%
X71261252Y-124715000D02*
X70738748Y-124715000D01*
X71261252Y-126185000D02*
X70738748Y-126185000D01*
%TO.C,R32*%
X84427500Y-109287742D02*
X84427500Y-109762258D01*
X85472500Y-109287742D02*
X85472500Y-109762258D01*
%TO.C,D2*%
X61350000Y-124560000D02*
X62650000Y-124560000D01*
X62650000Y-121440000D02*
X61380000Y-121440000D01*
X61000000Y-121490000D02*
X60760000Y-121160000D01*
X61240000Y-121160000D01*
X61000000Y-121490000D01*
G36*
X61000000Y-121490000D02*
G01*
X60760000Y-121160000D01*
X61240000Y-121160000D01*
X61000000Y-121490000D01*
G37*
%TO.C,R2*%
X83162742Y-140727500D02*
X83637258Y-140727500D01*
X83162742Y-141772500D02*
X83637258Y-141772500D01*
%TO.C,C20*%
X72740580Y-93390000D02*
X72459420Y-93390000D01*
X72740580Y-94410000D02*
X72459420Y-94410000D01*
%TO.C,R27*%
X111922742Y-125297500D02*
X112397258Y-125297500D01*
X111922742Y-126342500D02*
X112397258Y-126342500D01*
%TO.C,J11*%
X52620000Y-66080000D02*
X54000000Y-66080000D01*
X52620000Y-67460000D02*
X52620000Y-66080000D01*
X52620000Y-68730000D02*
X52620000Y-71380000D01*
X52620000Y-68730000D02*
X55380000Y-68730000D01*
X52620000Y-71380000D02*
X55380000Y-71380000D01*
X55380000Y-68730000D02*
X55380000Y-71380000D01*
%TO.C,R7*%
X73812742Y-126777500D02*
X74287258Y-126777500D01*
X73812742Y-127822500D02*
X74287258Y-127822500D01*
%TO.C,R38*%
X111122936Y-68265000D02*
X111577064Y-68265000D01*
X111122936Y-69735000D02*
X111577064Y-69735000D01*
%TO.C,U6*%
X122740000Y-87940000D02*
X126860000Y-87940000D01*
X122740000Y-87995000D02*
X122740000Y-87940000D01*
X122740000Y-98060000D02*
X122740000Y-98005000D01*
X126860000Y-87940000D02*
X126860000Y-87995000D01*
X126860000Y-98005000D02*
X126860000Y-98060000D01*
X126860000Y-98060000D02*
X122740000Y-98060000D01*
X122200000Y-87990000D02*
X121960000Y-87660000D01*
X122440000Y-87660000D01*
X122200000Y-87990000D01*
G36*
X122200000Y-87990000D02*
G01*
X121960000Y-87660000D01*
X122440000Y-87660000D01*
X122200000Y-87990000D01*
G37*
%TO.C,J2*%
X52620000Y-76040000D02*
X54000000Y-76040000D01*
X52620000Y-77420000D02*
X52620000Y-76040000D01*
X52620000Y-78690000D02*
X52620000Y-86420000D01*
X52620000Y-78690000D02*
X55380000Y-78690000D01*
X52620000Y-86420000D02*
X55380000Y-86420000D01*
X55380000Y-78690000D02*
X55380000Y-86420000D01*
%TO.C,C5*%
X110715000Y-140988748D02*
X110715000Y-141511252D01*
X112185000Y-140988748D02*
X112185000Y-141511252D01*
%TO.C,R36*%
X70427500Y-133487742D02*
X70427500Y-133962258D01*
X71472500Y-133487742D02*
X71472500Y-133962258D01*
%TO.C,J13*%
X137120000Y-107470000D02*
X138500000Y-107470000D01*
X137120000Y-108850000D02*
X137120000Y-107470000D01*
X137120000Y-110120000D02*
X137120000Y-117850000D01*
X137120000Y-110120000D02*
X139880000Y-110120000D01*
X137120000Y-117850000D02*
X139880000Y-117850000D01*
X139880000Y-110120000D02*
X139880000Y-117850000D01*
%TO.C,R17*%
X94577500Y-120037258D02*
X94577500Y-119562742D01*
X95622500Y-120037258D02*
X95622500Y-119562742D01*
%TO.C,C22*%
X116740000Y-69659420D02*
X116740000Y-69940580D01*
X117760000Y-69659420D02*
X117760000Y-69940580D01*
%TO.C,J18*%
X144520000Y-64430000D02*
X145900000Y-64430000D01*
X144520000Y-65810000D02*
X144520000Y-64430000D01*
X144520000Y-67080000D02*
X144520000Y-72270000D01*
X144520000Y-67080000D02*
X147280000Y-67080000D01*
X144520000Y-72270000D02*
X147280000Y-72270000D01*
X147280000Y-67080000D02*
X147280000Y-72270000D01*
%TO.C,R31*%
X86937500Y-109287742D02*
X86937500Y-109762258D01*
X87982500Y-109287742D02*
X87982500Y-109762258D01*
%TO.C,C9*%
X70659420Y-123140000D02*
X70940580Y-123140000D01*
X70659420Y-124160000D02*
X70940580Y-124160000D01*
%TO.C,U7*%
X77390000Y-90490000D02*
X81510000Y-90490000D01*
X77390000Y-90585000D02*
X77390000Y-90490000D01*
X77390000Y-95610000D02*
X77390000Y-95515000D01*
X81510000Y-90490000D02*
X81510000Y-90585000D01*
X81510000Y-95515000D02*
X81510000Y-95610000D01*
X81510000Y-95610000D02*
X77390000Y-95610000D01*
X76850000Y-90580000D02*
X76610000Y-90250000D01*
X77090000Y-90250000D01*
X76850000Y-90580000D01*
G36*
X76850000Y-90580000D02*
G01*
X76610000Y-90250000D01*
X77090000Y-90250000D01*
X76850000Y-90580000D01*
G37*
%TO.C,J3*%
X50580000Y-115020000D02*
X52285000Y-115020000D01*
X50580000Y-124180000D02*
X50580000Y-115020000D01*
X52285000Y-124180000D02*
X50580000Y-124180000D01*
X54295000Y-124180000D02*
X56215000Y-124180000D01*
X56215000Y-115020000D02*
X54295000Y-115020000D01*
%TO.C,J5*%
X76620000Y-54380000D02*
X76620000Y-53000000D01*
X78000000Y-54380000D02*
X76620000Y-54380000D01*
X79270000Y-51620000D02*
X81920000Y-51620000D01*
X79270000Y-54380000D02*
X79270000Y-51620000D01*
X79270000Y-54380000D02*
X81920000Y-54380000D01*
X81920000Y-54380000D02*
X81920000Y-51620000D01*
%TO.C,Q4*%
X78790000Y-123190000D02*
X80310000Y-123190000D01*
X78790000Y-123240000D02*
X78790000Y-123190000D01*
X78790000Y-125140000D02*
X78790000Y-124360000D01*
X78790000Y-126310000D02*
X78790000Y-126260000D01*
X80310000Y-123190000D02*
X80310000Y-124190000D01*
X80310000Y-125310000D02*
X80310000Y-126310000D01*
X80310000Y-126310000D02*
X78790000Y-126310000D01*
X78250000Y-124370000D02*
X78490000Y-124700000D01*
X78010000Y-124700000D01*
X78250000Y-124370000D01*
G36*
X78490000Y-124700000D02*
G01*
X78010000Y-124700000D01*
X78250000Y-124370000D01*
X78490000Y-124700000D01*
G37*
%TO.C,SW1*%
D11*
X65800000Y-142050000D02*
X65800000Y-147050000D01*
D12*
X65800000Y-147050000D02*
X65800000Y-142050000D01*
D11*
X66069000Y-142050000D02*
X65800000Y-142050000D01*
X66069000Y-147050000D02*
X65800000Y-147050000D01*
X68800000Y-142050000D02*
X68531000Y-142050000D01*
X68800000Y-147050000D02*
X68531000Y-147050000D01*
D12*
X68800000Y-147050000D02*
X68800000Y-142050000D01*
D11*
X68800000Y-147050000D02*
X68800000Y-142050000D01*
D13*
X68443000Y-144550000D02*
G75*
G02*
X66157000Y-144550000I-1143000J0D01*
G01*
X66157000Y-144550000D02*
G75*
G02*
X68443000Y-144550000I1143000J0D01*
G01*
%TO.C,J6*%
D14*
X129530000Y-51380000D02*
X139910000Y-51380000D01*
X129530000Y-54030000D02*
X129530000Y-51380000D01*
X129530000Y-56680000D02*
X129530000Y-55300000D01*
X130910000Y-56680000D02*
X129530000Y-56680000D01*
X132180000Y-54030000D02*
X129530000Y-54030000D01*
X132180000Y-56680000D02*
X132180000Y-54030000D01*
X132180000Y-56680000D02*
X139910000Y-56680000D01*
X139910000Y-56680000D02*
X139910000Y-51380000D01*
%TO.C,C21*%
X84790000Y-92659420D02*
X84790000Y-92940580D01*
X85810000Y-92659420D02*
X85810000Y-92940580D01*
%TO.C,R25*%
X130817500Y-138797258D02*
X130817500Y-138322742D01*
X131862500Y-138797258D02*
X131862500Y-138322742D01*
%TD*%
%LPC*%
D15*
%TO.C,SW2*%
X127150000Y-124575000D03*
X127150000Y-129025000D03*
%TD*%
D16*
%TO.C,R4*%
X61825000Y-114350000D03*
X63475000Y-114350000D03*
%TD*%
D17*
%TO.C,J9*%
X145950000Y-87980000D03*
D18*
X145950000Y-90520000D03*
X145950000Y-93060000D03*
X145950000Y-95600000D03*
X145950000Y-98140000D03*
X145950000Y-100680000D03*
%TD*%
D19*
%TO.C,REF\u002A\u002A*%
X54000000Y-54000000D03*
%TD*%
%TO.C,REF\u002A\u002A*%
X146000000Y-146000000D03*
%TD*%
D20*
%TO.C,U3*%
X69412500Y-117950000D03*
X69412500Y-118450000D03*
X69412500Y-118950000D03*
X69412500Y-119450000D03*
X69412500Y-119950000D03*
X69412500Y-120450000D03*
D21*
X70100000Y-121137500D03*
X70600000Y-121137500D03*
X71100000Y-121137500D03*
X71600000Y-121137500D03*
X72100000Y-121137500D03*
X72600000Y-121137500D03*
D20*
X73287500Y-120450000D03*
X73287500Y-119950000D03*
X73287500Y-119450000D03*
X73287500Y-118950000D03*
X73287500Y-118450000D03*
X73287500Y-117950000D03*
D21*
X72600000Y-117262500D03*
X72100000Y-117262500D03*
X71600000Y-117262500D03*
X71100000Y-117262500D03*
X70600000Y-117262500D03*
X70100000Y-117262500D03*
D22*
X71350000Y-119200000D03*
%TD*%
D23*
%TO.C,R29*%
X111250000Y-130850000D03*
X109600000Y-130850000D03*
%TD*%
D17*
%TO.C,J1*%
X54000000Y-92500000D03*
D18*
X54000000Y-95040000D03*
X54000000Y-97580000D03*
X54000000Y-100120000D03*
X54000000Y-102660000D03*
X54000000Y-105200000D03*
%TD*%
D19*
%TO.C,REF\u002A\u002A*%
X146000000Y-54000000D03*
%TD*%
D24*
%TO.C,C31*%
X103700000Y-70300000D03*
X103700000Y-72200000D03*
%TD*%
D25*
%TO.C,R33*%
X82440000Y-108700000D03*
X82440000Y-110350000D03*
%TD*%
D17*
%TO.C,J4*%
X63500000Y-92960000D03*
D18*
X63500000Y-95500000D03*
X63500000Y-98040000D03*
%TD*%
D26*
%TO.C,C13*%
X99200000Y-105225000D03*
X99200000Y-103675000D03*
%TD*%
D23*
%TO.C,R11*%
X85925000Y-135000000D03*
X84275000Y-135000000D03*
%TD*%
D17*
%TO.C,J10*%
X139900000Y-87980000D03*
D18*
X139900000Y-90520000D03*
X139900000Y-93060000D03*
X139900000Y-95600000D03*
X139900000Y-98140000D03*
X139900000Y-100680000D03*
%TD*%
D27*
%TO.C,L2*%
X96630000Y-77750000D03*
X100730000Y-77750000D03*
%TD*%
D28*
%TO.C,FB1*%
X95925000Y-105350000D03*
X94175000Y-105350000D03*
%TD*%
D29*
%TO.C,D8*%
X81400000Y-70100000D03*
X77400000Y-70100000D03*
%TD*%
D23*
%TO.C,R20*%
X85925000Y-133400000D03*
X84275000Y-133400000D03*
%TD*%
D17*
%TO.C,J7*%
X63200000Y-52825000D03*
D18*
X63200000Y-55365000D03*
%TD*%
D16*
%TO.C,R34*%
X101000000Y-100550000D03*
X102650000Y-100550000D03*
%TD*%
%TO.C,R8*%
X75175000Y-116150000D03*
X76825000Y-116150000D03*
%TD*%
D30*
%TO.C,R16*%
X101650000Y-89625000D03*
X101650000Y-87975000D03*
%TD*%
D26*
%TO.C,C12*%
X100950000Y-112975000D03*
X100950000Y-111425000D03*
%TD*%
D23*
%TO.C,R30*%
X111250000Y-129250000D03*
X109600000Y-129250000D03*
%TD*%
D24*
%TO.C,C30*%
X106710000Y-70300000D03*
X106710000Y-72200000D03*
%TD*%
D25*
%TO.C,R15*%
X106900000Y-106575000D03*
X106900000Y-108225000D03*
%TD*%
D17*
%TO.C,J19*%
X96725000Y-53000000D03*
D18*
X99265000Y-53000000D03*
%TD*%
D31*
%TO.C,C23*%
X91550000Y-69275000D03*
X91550000Y-70825000D03*
%TD*%
D32*
%TO.C,U4*%
X98750000Y-107287500D03*
X99250000Y-107287500D03*
X99750000Y-107287500D03*
X100250000Y-107287500D03*
X100750000Y-107287500D03*
X101250000Y-107287500D03*
X101750000Y-107287500D03*
D33*
X102262500Y-108550000D03*
D32*
X101750000Y-109812500D03*
X101250000Y-109812500D03*
X100750000Y-109812500D03*
X100250000Y-109812500D03*
X99750000Y-109812500D03*
X99250000Y-109812500D03*
X98750000Y-109812500D03*
D33*
X98237500Y-108550000D03*
%TD*%
D34*
%TO.C,D5*%
X139500000Y-137300000D03*
D35*
X137800000Y-137300000D03*
X137800000Y-139300000D03*
X139700000Y-139300000D03*
%TD*%
D23*
%TO.C,R18*%
X73575000Y-91550000D03*
X71925000Y-91550000D03*
%TD*%
D17*
%TO.C,J12*%
X64300000Y-67240000D03*
D18*
X64300000Y-69780000D03*
X64300000Y-72320000D03*
X64300000Y-74860000D03*
%TD*%
D17*
%TO.C,J14*%
X123530000Y-53250000D03*
D18*
X120990000Y-53250000D03*
X118450000Y-53250000D03*
X115910000Y-53250000D03*
%TD*%
D29*
%TO.C,D7*%
X81400000Y-63700000D03*
X77400000Y-63700000D03*
%TD*%
D36*
%TO.C,C10*%
X65750000Y-122450000D03*
X65750000Y-120550000D03*
%TD*%
D17*
%TO.C,J15*%
X145900000Y-108860000D03*
D18*
X145900000Y-111400000D03*
X145900000Y-113940000D03*
%TD*%
D37*
%TO.C,Q3*%
X78712500Y-118350000D03*
X78712500Y-120250000D03*
X80587500Y-119300000D03*
%TD*%
D16*
%TO.C,R24*%
X123075000Y-132350000D03*
X124725000Y-132350000D03*
%TD*%
%TO.C,R28*%
X111325000Y-127410000D03*
X112975000Y-127410000D03*
%TD*%
D38*
%TO.C,U5*%
X115507500Y-98825000D03*
X114237500Y-98825000D03*
X112967500Y-98825000D03*
X111697500Y-98825000D03*
X110427500Y-98825000D03*
X109157500Y-98825000D03*
X107887500Y-98825000D03*
X106617500Y-98825000D03*
X106617500Y-103775000D03*
X107887500Y-103775000D03*
X109157500Y-103775000D03*
X110427500Y-103775000D03*
X111697500Y-103775000D03*
X112967500Y-103775000D03*
X114237500Y-103775000D03*
X115507500Y-103775000D03*
%TD*%
D16*
%TO.C,R5*%
X61625000Y-126000000D03*
X63275000Y-126000000D03*
%TD*%
D30*
%TO.C,R22*%
X113550000Y-138675000D03*
X113550000Y-137025000D03*
%TD*%
D16*
%TO.C,R9*%
X75275000Y-118900000D03*
X76925000Y-118900000D03*
%TD*%
D17*
%TO.C,J17*%
X137050000Y-65850000D03*
D18*
X137050000Y-68390000D03*
X137050000Y-70930000D03*
%TD*%
D25*
%TO.C,R13*%
X101750000Y-103625000D03*
X101750000Y-105275000D03*
%TD*%
D39*
%TO.C,C29*%
X98145000Y-73700000D03*
X96595000Y-73700000D03*
%TD*%
D26*
%TO.C,C15*%
X56900000Y-79425000D03*
X56900000Y-77875000D03*
%TD*%
D19*
%TO.C,REF\u002A\u002A*%
X54000000Y-146000000D03*
%TD*%
D31*
%TO.C,C6*%
X109450000Y-140675000D03*
X109450000Y-142225000D03*
%TD*%
D25*
%TO.C,R35*%
X96750000Y-118975000D03*
X96750000Y-120625000D03*
%TD*%
D40*
%TO.C,J16*%
X130210000Y-143530000D03*
X135990000Y-143530000D03*
D41*
X129900000Y-142410000D03*
X130700000Y-142410000D03*
D42*
X131850000Y-142410000D03*
X132850000Y-142410000D03*
X133350000Y-142410000D03*
X134350000Y-142410000D03*
D41*
X135500000Y-142410000D03*
X136300000Y-142410000D03*
X136300000Y-142410000D03*
X135500000Y-142410000D03*
D42*
X134850000Y-142410000D03*
X133850000Y-142410000D03*
X132350000Y-142410000D03*
X131350000Y-142410000D03*
D41*
X130700000Y-142410000D03*
X129900000Y-142410000D03*
D43*
X128780000Y-143010000D03*
D44*
X128780000Y-147210000D03*
D43*
X137420000Y-143010000D03*
D44*
X137420000Y-147210000D03*
%TD*%
D30*
%TO.C,R26*%
X133860000Y-139265000D03*
X133860000Y-137615000D03*
%TD*%
D16*
%TO.C,R14*%
X95075000Y-109800000D03*
X96725000Y-109800000D03*
%TD*%
D30*
%TO.C,R23*%
X86550000Y-124325000D03*
X86550000Y-122675000D03*
%TD*%
D16*
%TO.C,R3*%
X82625000Y-139500000D03*
X84275000Y-139500000D03*
%TD*%
D23*
%TO.C,R1*%
X134850000Y-58100000D03*
X133200000Y-58100000D03*
%TD*%
D24*
%TO.C,C16*%
X58900000Y-77600000D03*
X58900000Y-79500000D03*
%TD*%
D45*
%TO.C,C19*%
X117675000Y-104750000D03*
X119225000Y-104750000D03*
%TD*%
D46*
%TO.C,U9*%
X97600000Y-68712500D03*
X96650000Y-68712500D03*
X95700000Y-68712500D03*
X95700000Y-70987500D03*
X96650000Y-70987500D03*
X97600000Y-70987500D03*
%TD*%
D17*
%TO.C,J20*%
X96745000Y-60155000D03*
D18*
X99285000Y-60155000D03*
%TD*%
D16*
%TO.C,R10*%
X71775000Y-129800000D03*
X73425000Y-129800000D03*
%TD*%
D23*
%TO.C,R21*%
X115425000Y-132100000D03*
X113775000Y-132100000D03*
%TD*%
D47*
%TO.C,U8*%
X107075000Y-142260000D03*
X107075000Y-140990000D03*
X107075000Y-139720000D03*
X107075000Y-138450000D03*
X107075000Y-137180000D03*
X107075000Y-135910000D03*
X107075000Y-134640000D03*
X107075000Y-133370000D03*
X107075000Y-132100000D03*
X107075000Y-130830000D03*
X107075000Y-129560000D03*
X107075000Y-128290000D03*
X107075000Y-127020000D03*
X107075000Y-125750000D03*
D48*
X105310000Y-124500000D03*
X104040000Y-124500000D03*
X102770000Y-124500000D03*
X101500000Y-124500000D03*
X100230000Y-124500000D03*
X98960000Y-124500000D03*
X97690000Y-124500000D03*
X96420000Y-124500000D03*
X95150000Y-124500000D03*
X93880000Y-124500000D03*
X92610000Y-124500000D03*
X91340000Y-124500000D03*
D47*
X89575000Y-125750000D03*
X89575000Y-127020000D03*
X89575000Y-128290000D03*
X89575000Y-129560000D03*
X89575000Y-130830000D03*
X89575000Y-132100000D03*
X89575000Y-133370000D03*
X89575000Y-134640000D03*
X89575000Y-135910000D03*
X89575000Y-137180000D03*
X89575000Y-138450000D03*
X89575000Y-139720000D03*
X89575000Y-140990000D03*
X89575000Y-142260000D03*
D49*
X101225000Y-135240000D03*
X101225000Y-133840000D03*
X100525000Y-135940000D03*
X100525000Y-134540000D03*
X100525000Y-133140000D03*
X99825000Y-135240000D03*
D50*
X99825000Y-134540000D03*
D49*
X99825000Y-133840000D03*
X99125000Y-135940000D03*
X99125000Y-134540000D03*
X99125000Y-133140000D03*
X98425000Y-135240000D03*
X98425000Y-133840000D03*
%TD*%
D25*
%TO.C,R19*%
X57050000Y-68325000D03*
X57050000Y-69975000D03*
%TD*%
D17*
%TO.C,J8*%
X69500000Y-52925000D03*
D18*
X69500000Y-55465000D03*
%TD*%
D25*
%TO.C,R12*%
X73650000Y-134150000D03*
X73650000Y-135800000D03*
%TD*%
D24*
%TO.C,C28*%
X87300000Y-69050000D03*
X87300000Y-70950000D03*
%TD*%
D51*
%TO.C,R37*%
X103637500Y-65650000D03*
X105462500Y-65650000D03*
%TD*%
D31*
%TO.C,C17*%
X86400000Y-141275000D03*
X86400000Y-142825000D03*
%TD*%
D26*
%TO.C,C18*%
X85750000Y-138625000D03*
X85750000Y-137075000D03*
%TD*%
D31*
%TO.C,C11*%
X67700000Y-120475000D03*
X67700000Y-122025000D03*
%TD*%
D29*
%TO.C,D9*%
X81450000Y-76650000D03*
X77450000Y-76650000D03*
%TD*%
D36*
%TO.C,C8*%
X111450000Y-138700000D03*
X111450000Y-136800000D03*
%TD*%
D52*
%TO.C,C14*%
X94050000Y-107600000D03*
X95950000Y-107600000D03*
%TD*%
D16*
%TO.C,R6*%
X67925000Y-127300000D03*
X69575000Y-127300000D03*
%TD*%
D53*
%TO.C,C7*%
X71950000Y-125450000D03*
X70050000Y-125450000D03*
%TD*%
D25*
%TO.C,R32*%
X84950000Y-108700000D03*
X84950000Y-110350000D03*
%TD*%
D54*
%TO.C,D2*%
X61000000Y-122250000D03*
D55*
X61000000Y-123950000D03*
X63000000Y-123950000D03*
X63000000Y-122050000D03*
%TD*%
D16*
%TO.C,R2*%
X82575000Y-141250000D03*
X84225000Y-141250000D03*
%TD*%
D39*
%TO.C,C20*%
X73375000Y-93900000D03*
X71825000Y-93900000D03*
%TD*%
D16*
%TO.C,R27*%
X111335000Y-125820000D03*
X112985000Y-125820000D03*
%TD*%
D17*
%TO.C,J11*%
X54000000Y-67460000D03*
D18*
X54000000Y-70000000D03*
%TD*%
D16*
%TO.C,R7*%
X73225000Y-127300000D03*
X74875000Y-127300000D03*
%TD*%
D51*
%TO.C,R38*%
X110437500Y-69000000D03*
X112262500Y-69000000D03*
%TD*%
D56*
%TO.C,U6*%
X122325000Y-88555000D03*
X122325000Y-89825000D03*
X122325000Y-91095000D03*
X122325000Y-92365000D03*
X122325000Y-93635000D03*
X122325000Y-94905000D03*
X122325000Y-96175000D03*
X122325000Y-97445000D03*
X127275000Y-97445000D03*
X127275000Y-96175000D03*
X127275000Y-94905000D03*
X127275000Y-93635000D03*
X127275000Y-92365000D03*
X127275000Y-91095000D03*
X127275000Y-89825000D03*
X127275000Y-88555000D03*
%TD*%
D17*
%TO.C,J2*%
X54000000Y-77420000D03*
D18*
X54000000Y-79960000D03*
X54000000Y-82500000D03*
X54000000Y-85040000D03*
%TD*%
D24*
%TO.C,C5*%
X111450000Y-140300000D03*
X111450000Y-142200000D03*
%TD*%
D25*
%TO.C,R36*%
X70950000Y-132900000D03*
X70950000Y-134550000D03*
%TD*%
D17*
%TO.C,J13*%
X138500000Y-108850000D03*
D18*
X138500000Y-111390000D03*
X138500000Y-113930000D03*
X138500000Y-116470000D03*
%TD*%
D30*
%TO.C,R17*%
X95100000Y-120625000D03*
X95100000Y-118975000D03*
%TD*%
D31*
%TO.C,C22*%
X117250000Y-69025000D03*
X117250000Y-70575000D03*
%TD*%
D17*
%TO.C,J18*%
X145900000Y-65810000D03*
D18*
X145900000Y-68350000D03*
X145900000Y-70890000D03*
%TD*%
D25*
%TO.C,R31*%
X87460000Y-108700000D03*
X87460000Y-110350000D03*
%TD*%
D45*
%TO.C,C9*%
X70025000Y-123650000D03*
X71575000Y-123650000D03*
%TD*%
D56*
%TO.C,U7*%
X76975000Y-91145000D03*
X76975000Y-92415000D03*
X76975000Y-93685000D03*
X76975000Y-94955000D03*
X81925000Y-94955000D03*
X81925000Y-93685000D03*
X81925000Y-92415000D03*
X81925000Y-91145000D03*
%TD*%
D40*
%TO.C,J3*%
X56970000Y-116710000D03*
X56970000Y-122490000D03*
D57*
X58090000Y-116400000D03*
X58090000Y-117200000D03*
D58*
X58090000Y-118350000D03*
X58090000Y-119350000D03*
X58090000Y-119850000D03*
X58090000Y-120850000D03*
D57*
X58090000Y-122000000D03*
X58090000Y-122800000D03*
X58090000Y-122800000D03*
X58090000Y-122000000D03*
D58*
X58090000Y-121350000D03*
X58090000Y-120350000D03*
X58090000Y-118850000D03*
X58090000Y-117850000D03*
D57*
X58090000Y-117200000D03*
X58090000Y-116400000D03*
D59*
X57490000Y-115280000D03*
D60*
X53290000Y-115280000D03*
D59*
X57490000Y-123920000D03*
D60*
X53290000Y-123920000D03*
%TD*%
D17*
%TO.C,J5*%
X78000000Y-53000000D03*
D18*
X80540000Y-53000000D03*
%TD*%
D37*
%TO.C,Q4*%
X78612500Y-123800000D03*
X78612500Y-125700000D03*
X80487500Y-124750000D03*
%TD*%
D15*
%TO.C,SW1*%
X67300000Y-142325000D03*
X67300000Y-146775000D03*
%TD*%
D17*
%TO.C,J6*%
X130910000Y-55300000D03*
D18*
X130910000Y-52760000D03*
X133450000Y-55300000D03*
X133450000Y-52760000D03*
X135990000Y-55300000D03*
X135990000Y-52760000D03*
X138530000Y-55300000D03*
X138530000Y-52760000D03*
%TD*%
D31*
%TO.C,C21*%
X85300000Y-92025000D03*
X85300000Y-93575000D03*
%TD*%
D30*
%TO.C,R25*%
X131340000Y-139385000D03*
X131340000Y-137735000D03*
%TD*%
%LPD*%
M02*
