%TF.GenerationSoftware,KiCad,Pcbnew,10.0.4-10.0.4~ubuntu24.04.1*%
%TF.CreationDate,2026-07-30T16:56:11-03:00*%
%TF.ProjectId,PCB_SALUS_v3,5043425f-5341-44c5-9553-5f76332e6b69,rev?*%
%TF.SameCoordinates,Original*%
%TF.FileFunction,Soldermask,Bot*%
%TF.FilePolarity,Negative*%
%FSLAX46Y46*%
G04 Gerber Fmt 4.6, Leading zero omitted, Abs format (unit mm)*
G04 Created by KiCad (PCBNEW 10.0.4-10.0.4~ubuntu24.04.1) date 2026-07-30 16:56:11*
%MOMM*%
%LPD*%
G01*
G04 APERTURE LIST*
%ADD10R,1.700000X1.700000*%
%ADD11C,1.700000*%
%ADD12C,3.200000*%
%ADD13C,0.650000*%
%ADD14O,1.000000X2.100000*%
%ADD15O,1.000000X1.800000*%
%ADD16O,2.100000X1.000000*%
%ADD17O,1.800000X1.000000*%
G04 APERTURE END LIST*
D10*
%TO.C,J9*%
X145950000Y-87980000D03*
D11*
X145950000Y-90520000D03*
X145950000Y-93060000D03*
X145950000Y-95600000D03*
X145950000Y-98140000D03*
X145950000Y-100680000D03*
%TD*%
D12*
%TO.C,REF\u002A\u002A*%
X54000000Y-54000000D03*
%TD*%
%TO.C,REF\u002A\u002A*%
X146000000Y-146000000D03*
%TD*%
D10*
%TO.C,J1*%
X54000000Y-92500000D03*
D11*
X54000000Y-95040000D03*
X54000000Y-97580000D03*
X54000000Y-100120000D03*
X54000000Y-102660000D03*
X54000000Y-105200000D03*
%TD*%
D12*
%TO.C,REF\u002A\u002A*%
X146000000Y-54000000D03*
%TD*%
D10*
%TO.C,J4*%
X63500000Y-92960000D03*
D11*
X63500000Y-95500000D03*
X63500000Y-98040000D03*
%TD*%
D10*
%TO.C,J10*%
X139900000Y-87980000D03*
D11*
X139900000Y-90520000D03*
X139900000Y-93060000D03*
X139900000Y-95600000D03*
X139900000Y-98140000D03*
X139900000Y-100680000D03*
%TD*%
D10*
%TO.C,J7*%
X63200000Y-52825000D03*
D11*
X63200000Y-55365000D03*
%TD*%
D10*
%TO.C,J19*%
X96725000Y-53000000D03*
D11*
X99265000Y-53000000D03*
%TD*%
D10*
%TO.C,J12*%
X64300000Y-67240000D03*
D11*
X64300000Y-69780000D03*
X64300000Y-72320000D03*
X64300000Y-74860000D03*
%TD*%
D10*
%TO.C,J14*%
X123530000Y-53250000D03*
D11*
X120990000Y-53250000D03*
X118450000Y-53250000D03*
X115910000Y-53250000D03*
%TD*%
D10*
%TO.C,J15*%
X145900000Y-108860000D03*
D11*
X145900000Y-111400000D03*
X145900000Y-113940000D03*
%TD*%
D10*
%TO.C,J17*%
X137050000Y-65850000D03*
D11*
X137050000Y-68390000D03*
X137050000Y-70930000D03*
%TD*%
D12*
%TO.C,REF\u002A\u002A*%
X54000000Y-146000000D03*
%TD*%
D13*
%TO.C,J16*%
X130210000Y-143530000D03*
X135990000Y-143530000D03*
D14*
X128780000Y-143010000D03*
D15*
X128780000Y-147210000D03*
D14*
X137420000Y-143010000D03*
D15*
X137420000Y-147210000D03*
%TD*%
D10*
%TO.C,J20*%
X96745000Y-60155000D03*
D11*
X99285000Y-60155000D03*
%TD*%
D10*
%TO.C,J8*%
X69500000Y-52925000D03*
D11*
X69500000Y-55465000D03*
%TD*%
D10*
%TO.C,J11*%
X54000000Y-67460000D03*
D11*
X54000000Y-70000000D03*
%TD*%
D10*
%TO.C,J2*%
X54000000Y-77420000D03*
D11*
X54000000Y-79960000D03*
X54000000Y-82500000D03*
X54000000Y-85040000D03*
%TD*%
D10*
%TO.C,J13*%
X138500000Y-108850000D03*
D11*
X138500000Y-111390000D03*
X138500000Y-113930000D03*
X138500000Y-116470000D03*
%TD*%
D10*
%TO.C,J18*%
X145900000Y-65810000D03*
D11*
X145900000Y-68350000D03*
X145900000Y-70890000D03*
%TD*%
D13*
%TO.C,J3*%
X56970000Y-116710000D03*
X56970000Y-122490000D03*
D16*
X57490000Y-115280000D03*
D17*
X53290000Y-115280000D03*
D16*
X57490000Y-123920000D03*
D17*
X53290000Y-123920000D03*
%TD*%
D10*
%TO.C,J5*%
X78000000Y-53000000D03*
D11*
X80540000Y-53000000D03*
%TD*%
D10*
%TO.C,J6*%
X130910000Y-55300000D03*
D11*
X130910000Y-52760000D03*
X133450000Y-55300000D03*
X133450000Y-52760000D03*
X135990000Y-55300000D03*
X135990000Y-52760000D03*
X138530000Y-55300000D03*
X138530000Y-52760000D03*
%TD*%
M02*
